<svg width="198" height="70" viewBox="0 0 198 70" fill="none" xmlns="http://www.w3.org/2000/svg">
<path fill-rule="evenodd" clip-rule="evenodd" d="M114.017 21.1132C113.116 22.3995 113.388 23.4884 114.799 24.2437C116.766 25.2963 118.943 23.0111 117.874 21.0147C117.152 19.6637 114.994 19.7184 114.017 21.1132ZM165.263 21.3158C165.263 22.5242 165.456 22.6316 167.632 22.6316H170V31.5789V40.5263H167.368C164.795 40.5263 164.737 40.5616 164.737 42.1053V43.6842H171.316H177.895V42.1053C177.895 40.5847 177.807 40.5263 175.526 40.5263H173.158V30.2632V20H169.211C165.351 20 165.263 20.0295 165.263 21.3158ZM131.447 21.9416C130.745 22.1253 130.526 22.7358 130.526 24.5121V26.8421H128.158C125.983 26.8421 125.789 26.9495 125.789 28.1579C125.789 29.3663 125.983 29.4737 128.158 29.4737H130.526V34.5C130.526 40.3353 131.234 42.2247 133.747 43.1011C135.571 43.7363 138.898 43.8721 140.22 43.3647C140.678 43.1889 141.053 42.5253 141.053 41.8895C141.053 40.8342 140.797 40.7363 138.116 40.7616C134.143 40.7995 133.684 40.1105 133.684 34.11V29.4737H137.368C140.947 29.4737 141.053 29.4363 141.053 28.1579C141.053 26.8795 140.947 26.8421 137.368 26.8421H133.684V24.2105C133.684 21.5432 133.538 21.3953 131.447 21.9416ZM23.0263 26.9489C21.4395 27.3705 21.0526 27.7205 21.0526 28.7363C21.0526 30.12 21.2711 30.1658 24.7079 29.5026C28.3253 28.8047 30.5005 29.9268 30.5184 32.5C30.5258 33.5984 30.2958 33.6842 27.3421 33.6842C22.3842 33.6842 20 35.3679 20 38.8695C20 41.1595 20.4721 42.05 22.1432 42.9142C24.1963 43.9758 26.7868 43.8747 28.7879 42.6542C30.4621 41.6332 30.4726 41.6337 30.8068 42.6868C31.0332 43.3995 31.5153 43.6926 32.2821 43.5832C33.3705 43.4284 33.4279 43.1311 33.5695 36.9068C33.7368 29.5437 33.3347 28.3547 30.2389 27.0611C28.2205 26.2179 25.9137 26.1821 23.0263 26.9489ZM59.2105 27.0863C55.3379 28.4942 53.2226 32.4542 53.9063 37.0158C54.5347 41.2074 57.5616 43.6842 62.0542 43.6842C65.269 43.6842 66.8421 42.8984 66.8421 41.2932C66.8421 40.2405 66.6316 39.9916 65.9211 40.2026C60.6558 41.7668 57.599 40.3884 57.3011 36.3158C57.0853 33.3668 57.4353 31.9905 58.729 30.6968C59.9821 29.4437 60.3547 29.3579 63.4658 29.6079C66.7268 29.8695 66.8421 29.8368 66.8421 28.6547C66.8421 27.1495 66.6437 27.0226 63.6842 26.6326C62.1842 26.4353 60.5437 26.6016 59.2105 27.0863ZM75.1316 26.9489C73.52 27.3768 73.1579 27.7132 73.1579 28.7826C73.1579 30.0326 73.26 30.0753 75.3947 29.7105C79.029 29.09 80.7026 29.3137 81.7063 30.5532C82.2153 31.1816 82.6316 32.1432 82.6316 32.69C82.6316 33.5584 82.2158 33.6842 79.3421 33.6863C74.1042 33.6895 71.0284 36.2963 71.85 40.0368C72.3037 42.1011 73.8279 43.2442 76.5342 43.5489C78.3184 43.75 79.3474 43.5521 80.7169 42.7442C82.5253 41.6774 82.5347 41.6774 82.8074 42.72C83.0011 43.4605 83.4395 43.7168 84.3037 43.5942C85.4937 43.4258 85.53 43.2568 85.6747 37.2432C85.7911 32.3932 85.6421 30.7153 84.9816 29.4384C83.5537 26.6768 79.7632 25.7184 75.1316 26.9489ZM96.8532 26.9032C96.1353 27.1895 95.1284 27.8032 94.6163 28.2674C93.7521 29.0495 93.6842 29.0284 93.6842 27.9763C93.6842 27.0668 93.3711 26.8421 92.1053 26.8421H90.5263V38.4211V50H92.1053H93.6842L93.6858 46.7105L93.6874 43.4211H96.8058C102.007 43.4211 104.842 40.3763 104.842 34.7884C104.842 28.5074 101.385 25.0953 96.8532 26.9032ZM148.816 26.9489C147.114 27.4005 146.842 27.6816 146.842 28.9868C146.842 30.4095 146.926 30.4684 148.247 29.9658C149.021 29.6721 150.722 29.41 152.029 29.3842C153.891 29.3468 154.612 29.5916 155.361 30.5158C155.886 31.1647 156.316 32.1432 156.316 32.69C156.316 33.5605 155.899 33.6842 152.973 33.6842C147.312 33.6842 144.339 36.7705 146.052 40.8695C147.248 43.7305 151.378 44.6047 154.554 42.6684C156.199 41.6653 156.216 41.6658 156.489 42.7121C156.685 43.4605 157.121 43.7168 157.988 43.5942C159.181 43.4253 159.214 43.2684 159.343 37.1053C159.493 29.9142 159.101 28.6384 156.308 27.2379C154.302 26.2316 151.87 26.1374 148.816 26.9489ZM110 28.1579C110 29.3663 110.193 29.4737 112.368 29.4737H114.737V35V40.5263H112.105C109.532 40.5263 109.474 40.5616 109.474 42.1053V43.6842H116.053H122.632V42.1053C122.632 40.5847 122.544 40.5263 120.263 40.5263H117.895V33.6842V26.8421H113.947C110.088 26.8421 110 26.8716 110 28.1579ZM100.759 30.6437C101.725 32.0221 101.857 36.7079 100.984 38.6237C100.209 40.3247 97.88 41.2658 95.5353 40.8258L93.6842 40.4784V36.3389C93.6842 32.3621 93.7479 32.1453 95.3037 30.8363C97.3332 29.1284 99.6416 29.0468 100.759 30.6437ZM30.5263 37.3763C30.5263 38.6016 30.1368 39.2005 28.8158 40.0058C25.8521 41.8126 23.1579 41.1637 23.1579 38.6432C23.1579 36.7647 24.6937 35.97 28.5526 35.8505C30.4105 35.7932 30.5263 35.8826 30.5263 37.3763ZM82.6316 37.3079C82.6316 39.5521 79.2311 41.5021 76.509 40.8189C75.4058 40.5421 75.2247 40.2253 75.3626 38.8095C75.5611 36.7716 77.17 35.8084 80.3947 35.7974C82.5111 35.79 82.6316 35.8711 82.6316 37.3079ZM156.316 37.3079C156.316 39.0053 154.734 40.3426 152.104 40.8684C150.226 41.2442 148.947 40.36 148.947 38.6842C148.947 36.7637 150.457 35.9705 154.342 35.8505C156.181 35.7937 156.316 35.8932 156.316 37.3079ZM35.2632 44.4737V45.7895H44.4737H53.6842V44.4737V43.1579H44.4737H35.2632V44.4737Z" fill="#999999"/>
</svg>
