<svg width="263" height="58" viewBox="0 0 263 58" fill="none" xmlns="http://www.w3.org/2000/svg">
<path fill-rule="evenodd" clip-rule="evenodd" d="M70.5545 24.2729L70.6277 37.4197L71.8944 37.8242C72.6867 38.077 74.4781 38.2397 76.6796 38.2585C79.9157 38.2864 80.3233 38.2301 81.7592 37.5568C85.0547 36.0109 86.7042 33.6439 87.0077 30.0235C87.4606 24.6208 84.3924 20.6933 79.3505 20.2226C77.772 20.0751 76.0513 20.3071 74.6048 20.8621C74.1918 21.0206 74.1462 20.5458 74.1462 16.082V11.126H72.3138H70.4813L70.5545 24.2729ZM45.566 12.7952C44.7776 13.1231 44.3427 13.7032 44.1451 14.6904C43.903 15.9016 45.1297 17.3186 46.4203 17.3186C47.7264 17.3186 48.9379 15.9024 48.6902 14.6645C48.3884 13.1549 46.8763 12.2502 45.566 12.7952ZM15.7366 20.6392C11.8175 21.9945 9.72834 25.4514 10.0284 30.0849C10.2558 33.5995 11.8257 36.0909 14.7024 37.5036C16.1219 38.2006 16.6027 38.2873 18.9759 38.2746C20.8167 38.2647 21.9784 38.1161 22.7041 37.7969L23.7579 37.3339L22.9867 36.0945L22.2151 34.8554L20.3132 34.9917C18.9322 35.0905 18.0678 34.9965 17.1583 34.6494C13.4723 33.2414 12.4466 28.2581 15.2133 25.1958C16.4673 23.8078 17.6962 23.4045 20.1387 23.579L22.0662 23.7169L22.773 22.4528C23.1615 21.7573 23.4796 21.1459 23.4796 21.0941C23.4796 21.042 22.8231 20.8047 22.0209 20.5666C20.1142 20.0002 17.497 20.0304 15.7366 20.6392ZM29.903 20.5612C28.0984 21.1394 25.7052 23.3738 24.865 25.2648C24.3364 26.4543 24.2035 27.2515 24.1945 29.2874C24.1841 31.6054 24.2646 31.9919 25.1161 33.7216C26.7507 37.0414 29.6992 38.6284 33.7503 38.3683C37.2716 38.1426 39.991 36.1283 41.2377 32.8223C41.719 31.5463 41.8079 30.8035 41.7136 28.8593C41.5256 24.9946 40.0642 22.5412 37.0807 21.0814C35.1529 20.1382 31.9485 19.9059 29.903 20.5612ZM55.9907 20.4562C55.2166 20.5992 53.9817 20.912 53.2462 21.1509L51.9092 21.5861V29.867V38.1482H53.7388H55.5684V31.1165V24.0848L56.3425 23.8684C56.7681 23.7493 58.0258 23.6519 59.1368 23.6519C60.7463 23.6519 61.3183 23.7718 61.9516 24.2413C63.2267 25.1868 63.4167 26.2201 63.4342 32.3075L63.4499 37.8667H65.2796H67.1092V31.9694C67.1092 28.718 66.9693 25.4199 66.7973 24.6182C66.3728 22.6391 64.986 21.1214 63.086 20.5573C61.5263 20.094 58.2082 20.0467 55.9907 20.4562ZM91.9499 20.7222L90.1907 21.2799V22.9583C90.1907 24.5859 90.3511 24.9056 90.9084 24.3897C91.8973 23.4743 95.7623 23.1756 97.1731 23.9052C98.0471 24.357 98.6298 25.6321 98.6334 27.1001C98.6348 27.6762 98.502 27.7337 97.1573 27.7356C93.0964 27.7413 90.0688 28.8908 89.007 30.8297C88.2985 32.1234 88.4244 34.7155 89.2497 35.8296C91.0098 38.2059 95.0848 38.9507 100.957 37.9695L102.013 37.793L102.007 31.0039C102.001 25.0205 101.939 24.0812 101.483 23.0889C100.85 21.7091 100.127 21.0414 98.7241 20.5413C97.1607 19.9836 94.0166 20.0678 91.9499 20.7222ZM107.67 20.8813C105.73 21.9033 104.965 23.2381 105.017 25.5117C105.084 28.4481 106.082 29.4729 110.067 30.6999C112.626 31.4878 113.272 32.0153 113.272 33.3149C113.272 34.7699 112.458 35.3334 110.356 35.3334C108.927 35.3334 108.232 35.1639 106.908 34.4926C105.996 34.0301 105.218 33.6501 105.18 33.6482C105.141 33.6462 105.109 34.4115 105.109 35.3492V37.0538L106.446 37.6711C107.525 38.1693 108.299 38.2887 110.457 38.2887C112.784 38.2889 113.296 38.1977 114.398 37.5852C117.318 35.9633 117.814 31.6223 115.344 29.3131C114.863 28.8635 113.614 28.2766 112.243 27.8564C108.582 26.7338 107.688 25.5981 109.138 23.9117C110.089 22.8063 112.375 22.8539 114.535 24.024L116.087 24.8645V23.0923V21.3204L114.891 20.8267C114.233 20.555 112.681 20.2761 111.443 20.2066C109.382 20.0912 109.061 20.1483 107.67 20.8813ZM124.452 20.521C121.986 21.4397 120.032 23.5027 119.289 25.9727C119.076 26.6806 118.902 28.2482 118.902 29.4563C118.902 33.9437 120.966 36.8714 124.94 38.0187C127.117 38.6473 130.321 38.4581 132.361 37.5807L133.82 36.953V35.3142V33.6757L132.207 34.4141C130.936 34.9962 130.14 35.1563 128.452 35.1704C126.546 35.1865 126.16 35.0955 124.954 34.346C123.585 33.4962 122.649 32.1555 122.5 30.8297L122.42 30.126L128.402 30.05L134.383 29.974V27.904C134.383 24.4944 133.193 22.0987 130.919 20.9286C129.42 20.1579 126.004 19.9425 124.452 20.521ZM44.5907 29.2815V38.1482H46.4203H48.2499V29.2815V20.4149H46.4203H44.5907V29.2815ZM162.832 21.8926C163.141 22.7053 164.63 26.6638 166.14 30.6889L168.885 38.0075H169.969H171.052L174.356 29.2815L177.661 20.5556L176.958 20.4633C176.572 20.4123 176.151 20.4757 176.024 20.604C175.898 20.7321 174.657 23.9404 173.268 27.7334C169.846 37.0777 170.132 36.3926 169.864 35.8964C169.739 35.6641 168.395 32.0857 166.878 27.9445L164.12 20.4149H163.195H162.269L162.832 21.8926ZM204.191 23.5112V25.2001H203.205C202.408 25.2001 202.22 25.3073 202.22 25.763C202.22 26.2187 202.408 26.326 203.205 26.326H204.191L204.192 30.7593C204.194 35.9783 204.433 37.1163 205.686 37.8802C206.698 38.4975 207.514 38.5589 209.046 38.1333C209.915 37.8923 210.102 37.7125 210.102 37.1197C210.102 36.5455 210.002 36.4393 209.609 36.5978C208.29 37.1295 207.072 37.0884 206.475 36.492C205.917 35.9335 205.88 35.6059 205.88 31.2519V26.6075H207.709C209.473 26.6075 209.539 26.5821 209.539 25.9038C209.539 25.2254 209.473 25.2001 207.709 25.2001H205.88V23.5112V21.8223H205.035H204.191V23.5112ZM35.3288 23.9475C37.6201 25.1322 38.6748 28.3645 37.8041 31.5334C37.3507 33.184 35.4085 34.9593 33.7902 35.2019C30.4169 35.7078 27.9194 33.2628 27.8842 29.4206C27.8414 24.7736 31.593 22.0157 35.3288 23.9475ZM128.885 23.704C129.925 24.2002 131.005 25.9395 131.005 27.1186C131.005 27.7233 130.937 27.7334 126.783 27.7334C122.07 27.7334 122.108 27.7534 123.094 25.8221C124.304 23.4521 126.597 22.6132 128.885 23.704ZM80.2203 24.0449C82.3413 25.0084 83.2893 26.914 83.103 29.8394C82.8868 33.2361 80.6439 35.1884 76.961 35.1859C73.9559 35.1839 74.1462 35.5648 74.1462 29.5582V24.3283L75.061 23.9309C76.3598 23.3665 78.8472 23.4214 80.2203 24.0449ZM180.687 25.3186C177.51 26.7406 176.145 31.6215 177.955 35.0857C178.527 36.1798 179.115 36.8224 180.108 37.4363C181.319 38.1848 181.72 38.2805 183.614 38.2726C186.395 38.2608 187.865 37.6207 187.865 36.4216V35.6033L186.72 36.1877C183.906 37.623 180.921 36.9899 179.58 34.673C179.208 34.0298 178.861 33.1238 178.81 32.6593L178.717 31.8149L183.611 31.7377L188.505 31.6606L188.354 29.9968C188.052 26.6728 186.252 24.909 183.182 24.9296C182.274 24.9357 181.151 25.1108 180.687 25.3186ZM192.087 25.2929L190.82 25.6223L190.745 31.8852L190.669 38.1482H191.378H192.087V32.5352C192.087 28.568 192.183 26.8628 192.415 26.7195C192.595 26.608 193.649 26.4588 194.756 26.3876C196.268 26.2908 196.991 26.3733 197.661 26.7192C199.207 27.5189 199.405 28.2885 199.405 33.4897V38.1482H200.281H201.156L201.053 33.0112C200.937 27.2169 200.682 26.3446 198.833 25.4117C197.685 24.8327 194.101 24.7697 192.087 25.2929ZM227.835 25.0998C227.603 25.175 226.874 25.4289 226.217 25.6637L225.02 26.0909V32.1197V38.1482H225.724H226.428V32.6523V27.1563L227.15 26.8819C227.547 26.731 228.687 26.6075 229.683 26.6075C231.406 26.6075 231.494 26.5745 231.494 25.9339C231.494 25.5634 231.294 25.1834 231.049 25.0894C230.535 24.8918 228.456 24.8986 227.835 25.0998ZM235.294 25.3864C231.481 27.3965 230.573 32.9664 233.513 36.3068C235.342 38.3847 238.551 38.9707 241.455 37.7572C242.311 37.4 242.472 37.1951 242.472 36.4672C242.472 35.6374 242.446 35.6185 241.839 36.0078C240.79 36.6797 238.792 37.0831 237.484 36.8869C235.415 36.5767 233.465 34.393 233.465 32.3868V31.6741H238.25H243.035V30.1857C243.035 28.157 242.118 26.3831 240.642 25.5578C239.271 24.7902 236.588 24.7044 235.294 25.3864ZM245.968 25.4492C244.852 26.1298 244.325 27.4077 244.529 28.935C244.732 30.4463 245.763 31.407 248.094 32.2568C249.739 32.8566 250.917 33.857 250.917 34.6545C250.917 35.457 250.241 36.4376 249.467 36.7583C248.398 37.201 246.528 36.9319 245.525 36.1905L244.724 35.598V36.5466C244.724 37.6517 245.415 38.0899 247.557 38.3436C250.381 38.678 252.324 37.2013 252.324 34.7206C252.324 33.5001 252.199 33.182 251.409 32.3947C250.906 31.8931 249.734 31.1993 248.805 30.853C246.59 30.0277 246.131 29.5838 246.131 28.2688C246.131 27.486 246.298 27.086 246.757 26.7642C247.607 26.1686 249.449 26.2125 250.716 26.8585L251.761 27.3911V26.5627C251.761 25.8835 251.585 25.6608 250.785 25.3264C249.391 24.7441 247.026 24.8046 245.968 25.4492ZM211.553 30.3872C211.642 35.1358 211.7 35.6416 212.242 36.3687C213.406 37.9295 214.44 38.2903 217.703 38.2751C219.329 38.2678 220.881 38.1766 221.151 38.073C221.599 37.9013 221.642 37.317 221.642 31.5421V25.2001H220.944H220.247L220.17 31.0408L220.094 36.8815L218.265 36.971C215.799 37.0918 214.436 36.6564 213.749 35.5293C213.263 34.7324 213.2 34.0915 213.199 29.9149L213.198 25.2001H212.327H211.455L211.553 30.3872ZM185.026 26.7358C185.859 27.1668 186.739 28.6761 186.739 29.6759C186.739 30.2479 186.613 30.2667 182.798 30.2667C180.258 30.2667 178.857 30.1626 178.857 29.974C178.857 29.2489 180.043 27.4685 180.886 26.9292C181.982 26.2269 183.871 26.1388 185.026 26.7358ZM240.335 27.1457C240.984 27.7562 241.722 29.7972 241.407 30.1125C241.322 30.1972 239.487 30.2667 237.328 30.2667C233.866 30.2667 233.424 30.2144 233.575 29.8214C233.669 29.5765 233.746 29.2644 233.746 29.1276C233.746 28.725 235.494 26.8521 236.123 26.5804C237.175 26.1267 239.596 26.4515 240.335 27.1457ZM98.5768 32.7758C98.6723 35.5166 98.6069 35.6042 96.4593 35.6106C94.5871 35.616 92.8949 34.9475 92.4808 34.0383C91.4739 31.8284 93.3382 30.2394 96.8055 30.3523L98.4944 30.4075L98.5768 32.7758Z" fill="#999999"/>
<rect opacity="0.2" x="148" y="10" width="1.8" height="34" rx="0.9" fill="#999999"/>
</svg>
