<svg width="111" height="56" viewBox="0 0 111 56" fill="none" xmlns="http://www.w3.org/2000/svg">
<path fill-rule="evenodd" clip-rule="evenodd" d="M19.8936 11.0108C17.8014 15.1613 14.8944 17.8988 11.5537 18.8641L10 19.3131V20.5287C10 21.5632 10.0508 21.7441 10.3408 21.7441C11.0289 21.7441 13.5997 20.9319 14.9304 20.294C16.3911 19.5938 18.9142 17.7348 19.2465 17.1137C19.357 16.9073 19.5445 16.7384 19.6631 16.7384C19.8204 16.7384 19.8452 18.1643 19.7549 21.9848C19.6866 24.8702 19.6298 29.6787 19.6286 32.67L19.6263 38.1089H14.8132H10V39.1678V40.2267H20.1077H30.2153V39.1678V38.1089H26.3648H22.5142V24.0545V10H21.4586H20.403L19.8936 11.0108ZM32.7182 25.1133V40.2267H34.0658H35.4135L35.4201 36.0392L35.4264 31.8518L37.2208 30.5617C38.2077 29.852 39.0983 29.2455 39.2001 29.214C39.302 29.1822 41.5694 31.6473 44.2388 34.6916L49.0922 40.2267H50.8563H52.6204L52.1331 39.6972C51.8651 39.4061 49.4959 36.6986 46.8683 33.6808C44.2407 30.6629 41.9306 28.0141 41.7346 27.7945C41.3828 27.4002 41.3897 27.3871 42.2946 26.7414C42.7985 26.3817 45.2867 24.5471 47.8238 22.6644L52.4367 19.2413H50.2968H48.1569L41.8333 23.8721L35.5098 28.503L35.4597 19.2515L35.4099 10H34.0639H32.7182V25.1133ZM68.5154 10.6409C65.5538 11.9337 62.9052 13.8532 60.3993 16.5228C54.5411 22.7636 52.3819 31.3876 54.9615 38.2412C55.9409 40.843 58.1163 43.7626 60.2333 45.3167C61.3157 46.1115 61.4229 46.1332 61.7416 45.623C61.9508 45.2878 61.8736 45.1357 61.0812 44.3235C55.49 38.5918 55.4151 27.57 60.91 19.1402C62.9381 16.029 67.0195 12.3948 69.7453 11.2734C70.3256 11.0346 70.468 10.8814 70.4191 10.5485C70.385 10.3163 70.2705 10.0992 70.1646 10.0657C70.0587 10.0323 69.3165 10.2911 68.5154 10.6409ZM92.3117 10.3779C91.9812 10.7432 91.9898 10.7726 92.5768 11.2666C94.1581 12.5972 95.9518 15.8917 96.6777 18.7983C97.0254 20.1912 97.1004 21.041 97.0999 23.5731C97.0993 26.23 97.0288 26.9522 96.5885 28.8255C95.0475 35.3798 90.9998 40.9402 85.4557 44.119C84.5845 44.6186 83.7868 45.0556 83.6829 45.0903C83.4258 45.176 83.7064 46.0031 83.9913 46C84.4027 45.9952 87.8488 44.1933 89.3218 43.2128C91.3695 41.8495 94.8219 38.3732 96.1114 36.3762C98.8763 32.0946 100.103 28.2471 100.103 23.8533C100.103 19.465 98.6921 15.7257 95.8802 12.6592C94.8727 11.5606 93.0314 10 92.7424 10C92.6935 10 92.4998 10.17 92.3117 10.3779ZM85.4133 19.3264C84.2603 19.7378 83.2967 20.4625 82.0957 21.8221C80.8425 23.2406 78.5395 26.5015 78.5395 26.8574C78.5395 26.9857 78.6544 27.364 78.795 27.698L79.0503 28.3054L79.981 26.9019C81.9603 23.9166 84.1274 21.3591 84.6773 21.3591C84.9195 21.3591 85.3825 21.9707 85.6468 22.6396C86.1909 24.0165 87.5276 24.5656 88.7286 23.9056C90.5536 22.9026 90.4457 20.3593 88.5372 19.3861C87.7565 18.9879 86.4331 18.9627 85.4133 19.3264ZM71.4915 19.9789C71.0776 20.2788 70.2957 21.1667 69.7539 21.9523C68.7671 23.3835 66.4103 27.6703 66.4103 28.0344C66.4103 28.2136 67.3691 28.7585 67.4658 28.6341C67.4894 28.6037 67.8797 27.9291 68.3331 27.1349C69.5585 24.9882 70.5302 23.7682 71.3086 23.3987C72.7458 22.7168 73.2285 23.3334 75.0606 28.1938C78.2384 36.6234 79.4765 39.4497 80.2626 40.0679C81.2636 40.8551 82.6134 40.1965 84.0073 38.2408C84.7974 37.1322 87.5883 32.0524 87.5883 31.7228C87.5883 31.6417 87.3515 31.4513 87.0623 31.2996L86.5361 31.0241L85.513 32.9781C84.4008 35.1024 83.5997 36.0824 82.6369 36.4953C81.8119 36.8494 81.7426 36.8396 81.0695 36.2732C80.6654 35.9332 80.2726 35.2175 79.7752 33.9147C79.3824 32.886 78.914 31.6978 78.7342 31.2742C78.5545 30.8506 77.5619 28.2804 76.5282 25.5625C75.1229 21.8677 74.5024 20.4713 74.0685 20.0274C73.314 19.2557 72.5105 19.2407 71.4915 19.9789ZM73.7647 33.7738C72.266 36.0129 70.9207 37.5313 70.4355 37.5313C70.1906 37.5313 69.8918 37.2019 69.5389 36.5427C69.2476 35.9988 68.7622 35.2624 68.46 34.9062C67.981 34.3412 67.7963 34.2588 67.016 34.2614C64.568 34.2701 63.2223 36.494 64.3407 38.6826C64.9878 39.9489 65.5938 40.3033 67.2559 40.3873C68.8292 40.4668 69.6748 40.1558 71.16 38.9518C72.0152 38.2585 73.9416 35.9526 75.012 34.3408C75.6501 33.3801 75.6559 33.3529 75.3648 32.6562C75.2021 32.2667 75.0484 31.9511 75.0234 31.9548C74.9982 31.9584 74.432 32.7769 73.7647 33.7738Z" fill="#999999"/>
</svg>
