<svg width="164" height="54" viewBox="0 0 164 54" fill="none" xmlns="http://www.w3.org/2000/svg">
<path fill-rule="evenodd" clip-rule="evenodd" d="M64.2628 28.8677V22.3193H67.4545V29.1281C67.4545 29.806 67.663 30.3495 68.0805 30.7594C68.4983 31.169 69.0303 31.3742 69.6765 31.3742C70.3066 31.3742 70.8269 31.165 71.2368 30.7475C71.6464 30.3299 71.8514 29.7899 71.8514 29.1281V22.3193H75.0429V28.8677C75.0429 30.4754 74.5344 31.7838 73.5181 32.7921C72.5014 33.8011 71.2211 34.3053 69.6765 34.3053C68.1003 34.3053 66.8045 33.8049 65.7878 32.8038C64.771 31.8031 64.2628 30.4913 64.2628 28.8677Z" fill="#999999"/>
<path fill-rule="evenodd" clip-rule="evenodd" d="M85.6085 28.1824C85.6085 27.2212 85.3253 26.4412 84.7576 25.8416C84.1906 25.2434 83.4651 24.9438 82.5829 24.9438C81.732 24.9438 81.0262 25.2275 80.4671 25.7947C79.9073 26.3622 79.6278 27.1501 79.6278 28.1588C79.6278 29.1676 79.9073 29.9595 80.4671 30.5341C81.0262 31.1101 81.732 31.3974 82.5829 31.3974C83.4494 31.3974 84.1706 31.0982 84.7459 30.4989C85.3212 29.9 85.6085 29.1281 85.6085 28.1824ZM87.2278 23.7972C88.3073 24.9554 88.8474 26.4093 88.8474 28.1588C88.8474 29.9081 88.3073 31.3698 87.2278 32.544C86.1486 33.718 84.7971 34.3052 83.1737 34.3052C81.708 34.3052 80.5416 33.8325 79.675 32.8868V38.2765H76.4837V22.3193H79.415V23.7855C80.2188 22.6349 81.4716 22.0596 83.1737 22.0596C84.7971 22.0596 86.1486 22.6385 87.2278 23.7972Z" fill="#999999"/>
<path fill-rule="evenodd" clip-rule="evenodd" d="M93.2196 27.0003H98.5388C98.5229 26.2912 98.2744 25.7199 97.7938 25.2865C97.3127 24.8533 96.7179 24.6367 96.0091 24.6367C95.3314 24.6367 94.7401 24.8492 94.236 25.2748C93.7314 25.7 93.3927 26.2757 93.2196 27.0003ZM101.422 29.2461H93.2196C93.4086 29.9873 93.7902 30.5586 94.3659 30.9601C94.9408 31.3624 95.6544 31.5633 96.5056 31.5633C97.6555 31.5633 98.7431 31.1691 99.7678 30.3808L101.091 32.5561C99.689 33.7225 98.1285 34.3054 96.4106 34.3054C94.614 34.3366 93.0894 33.7496 91.8364 32.5442C90.5834 31.3381 89.9727 29.8845 90.0046 28.1826C89.9727 26.4962 90.5634 25.0463 91.7774 23.8329C92.9906 22.6192 94.4405 22.0284 96.1274 22.0598C97.735 22.0598 99.0546 22.5796 100.087 23.6201C101.119 24.6602 101.635 25.9525 101.635 27.4973C101.635 28.0641 101.564 28.6479 101.422 29.2461Z" fill="#999999"/>
<path fill-rule="evenodd" clip-rule="evenodd" d="M110.211 22.3191V25.1326H109.36C108.382 25.1326 107.614 25.3928 107.055 25.9129C106.495 26.4327 106.216 27.1894 106.216 28.1822V34.0213H103.024V22.3191H105.956V23.714C106.775 22.69 107.847 22.1777 109.171 22.1777C109.565 22.1777 109.912 22.2249 110.211 22.3191Z" fill="#999999"/>
<path fill-rule="evenodd" clip-rule="evenodd" d="M119.262 34.0218H122.454V16.0078H119.262V34.0218ZM117.738 16.0078V18.8684H116.969C116.229 18.8684 115.689 19.0103 115.35 19.294C115.011 19.5773 114.842 20.0424 114.842 20.6886V22.3196H117.738V25.0148H114.842V34.0218H111.65V20.4052C111.65 18.9553 112.044 17.8602 112.833 17.1189C113.62 16.3787 114.731 16.0078 116.166 16.0078H117.738Z" fill="#999999"/>
<path fill-rule="evenodd" clip-rule="evenodd" d="M124.008 28.8677V22.3193H127.2V29.1281C127.2 29.806 127.409 30.3495 127.826 30.7594C128.244 31.169 128.776 31.3742 129.422 31.3742C130.052 31.3742 130.572 31.165 130.982 30.7475C131.392 30.3299 131.597 29.7899 131.597 29.1281V22.3193H134.788V28.8677C134.788 30.4754 134.28 31.7838 133.263 32.7921C132.247 33.8011 130.966 34.3053 129.422 34.3053C127.846 34.3053 126.55 33.8049 125.534 32.8038C124.517 31.8031 124.008 30.4913 124.008 28.8677Z" fill="#999999"/>
<path fill-rule="evenodd" clip-rule="evenodd" d="M136.343 34.0215H139.535V22.3193H136.343V34.0215Z" fill="#999999"/>
<path fill-rule="evenodd" clip-rule="evenodd" d="M149.614 30.5464C150.173 29.9791 150.453 29.1915 150.453 28.1827C150.453 27.174 150.169 26.382 149.602 25.8067C149.034 25.2314 148.333 24.9441 147.498 24.9441C146.631 24.9441 145.91 25.2438 145.335 25.842C144.759 26.4416 144.472 27.2135 144.472 28.1592C144.472 29.1208 144.756 29.9003 145.323 30.4992C145.89 31.0986 146.615 31.3978 147.498 31.3978C148.349 31.3978 149.054 31.1141 149.614 30.5464ZM150.406 16.0078H153.597V34.0218H150.666V32.5796C149.862 33.7302 148.609 34.3055 146.907 34.3055C145.267 34.3055 143.912 33.7262 142.841 32.5679C141.769 31.4097 141.233 29.948 141.233 28.1827C141.233 26.4178 141.769 24.9558 142.841 23.7975C143.912 22.6388 145.267 22.0599 146.907 22.0599C148.388 22.0599 149.554 22.525 150.406 23.4548V16.0078Z" fill="#999999"/>
<path fill-rule="evenodd" clip-rule="evenodd" d="M59.2725 25.0617L57.4995 24.2819C56.8059 23.967 56.3293 23.687 56.0694 23.4421C55.8095 23.1984 55.6793 22.8792 55.6793 22.4852C55.6793 22.4267 55.6905 22.3748 55.6962 22.3193H52.4518C52.4483 22.3984 52.4406 22.4752 52.4406 22.5559C52.4406 24.4316 53.7012 25.9288 56.2232 27.0478L57.9013 27.804C58.6894 28.167 59.2171 28.4702 59.4853 28.7142C59.7534 28.9584 59.8874 29.3019 59.8874 29.7423C59.8874 30.2788 59.69 30.6998 59.2963 31.0074C58.9022 31.3147 58.3583 31.4682 57.6651 31.4682C56.2148 31.4682 54.9383 30.7115 53.8353 29.1988L51.6368 30.8534C52.2514 31.9257 53.0826 32.7683 54.1309 33.3831C55.1787 33.998 56.3569 34.3053 57.6651 34.3053C59.2566 34.3053 60.5648 33.8759 61.5893 33.0168C62.6135 32.1578 63.126 31.0271 63.126 29.6244C63.126 28.584 62.8185 27.7138 62.2041 27.0123C61.5893 26.3111 60.6119 25.661 59.2725 25.0617Z" fill="#999999"/>
<path fill-rule="evenodd" clip-rule="evenodd" d="M63.1253 17.6758H58.482V19.9975H60.8038V22.319H63.1253V17.6758Z" fill="#999999"/>
<path fill-rule="evenodd" clip-rule="evenodd" d="M139.533 22.3191H143.051V18.8008H139.533V22.3191Z" fill="#999999"/>
<path fill-rule="evenodd" clip-rule="evenodd" d="M37.085 30.1015H30.8817V23.8983H24.6782V17.6947H37.085V30.1015ZM18.475 36.3048H24.6782V30.1015H18.475V36.3048ZM10.78 13.7159V40.2841C10.78 42.3362 12.4436 44 14.4959 44H41.0641C43.1164 44 44.78 42.3362 44.78 40.2841V13.7159C44.78 11.6636 43.1164 10 41.0641 10H14.4959C12.4436 10 10.78 11.6636 10.78 13.7159Z" fill="#999999"/>
</svg>
