<svg fill="none" height="469" viewBox="0 0 656 469" width="656" xmlns="http://www.w3.org/2000/svg" xmlns:xlink="http://www.w3.org/1999/xlink"><linearGradient id="a"><stop offset="0" stop-color="#5c6671"/><stop offset="1" stop-color="#383f46" stop-opacity="0"/></linearGradient><linearGradient id="b" gradientUnits="userSpaceOnUse" x1="328.295" x2="145.062" xlink:href="#a" y1="89.2684" y2="3.72456"/><linearGradient id="c"><stop offset="0" stop-color="#d2d2d2"/><stop offset="1" stop-color="#bababa" stop-opacity="0"/></linearGradient><linearGradient id="d" gradientUnits="userSpaceOnUse" x1="292.55" x2="223.994" xlink:href="#c" y1="106.5" y2="106.614"/><linearGradient id="e" gradientUnits="userSpaceOnUse" x1="292.853" x2="224.288" xlink:href="#c" y1="106.474" y2="100.627"/><linearGradient id="f" gradientUnits="userSpaceOnUse" x1="292.148" x2="225.593" xlink:href="#c" y1="106.577" y2="114.634"/><linearGradient id="g"><stop offset="0" stop-color="#5c6671"/><stop offset="1" stop-color="#384149" stop-opacity="0"/></linearGradient><linearGradient id="h" gradientUnits="userSpaceOnUse" x1="512.778" x2="327.644" xlink:href="#g" y1="1.75222" y2="81.2275"/><linearGradient id="i" gradientUnits="userSpaceOnUse" x1="461.904" x2="338.861" xlink:href="#g" y1="36.0652" y2="85.1434"/><linearGradient id="j" gradientUnits="userSpaceOnUse" x1="442.497" x2="344.196" xlink:href="#g" y1="63.7701" y2="88.8501"/><linearGradient id="k" gradientUnits="userSpaceOnUse" x1="435.951" x2="347.551" xlink:href="#g" y1="84.6101" y2="96.7235"/><linearGradient id="l" gradientUnits="userSpaceOnUse" x1="436.465" x2="354.993" xlink:href="#g" y1="103.5" y2="103.661"/><linearGradient id="m" gradientUnits="userSpaceOnUse" x1="440.107" x2="348.658" xlink:href="#g" y1="131.449" y2="112.777"/><linearGradient id="n" gradientUnits="userSpaceOnUse" x1="447.473" x2="341.06" xlink:href="#g" y1="156.454" y2="118.989"/><linearGradient id="o" gradientUnits="userSpaceOnUse" x1="508.269" x2="333.049" xlink:href="#g" y1="207.291" y2="130.604"/><linearGradient id="p" gradientUnits="userSpaceOnUse" x1="325.537" x2="165.875" xlink:href="#a" y1="127.261" y2="198.479"/><path d="m327.786 93.452-184-86.99998" stroke="url(#b)"/><path d="m293 110.5h-69" stroke="url(#d)"/><path d="m292.957 110.498-69-6" stroke="url(#e)"/><path d="m293.059 110.496-67 8" stroke="url(#f)"/><path d="m515.557 4.9189-186.724 79.0833" stroke="url(#h)"/><path d="m464.184 39.465-124 49" stroke="url(#i)"/><path d="m444.122 67.4848-99 25" stroke="url(#j)"/><path d="m437.067 88.4955-89 12.0005" stroke="url(#k)"/><path d="m437 107.5h-82" stroke="url(#l)"/><path d="m439.899 135.49-92-19" stroke="url(#m)"/><path d="m446.833 160.471-107-38" stroke="url(#n)"/><path d="m507.797 211.457-176-78" stroke="url(#o)"/><path d="m328.202 130.457-161 71" stroke="url(#p)"/><g stroke-width="2"><circle cx="109.5" cy="109.5" r="108.5" stroke="#b617e6"/><circle cx="546.5" cy="109.5" r="108.5" stroke="#5f72fe"/><circle cx="109.5" cy="109.5" r="90.5" stroke="#b617e6"/><circle cx="546.5" cy="109.5" r="90.5" stroke="#5f72fe"/></g><path d="m327.729 92.7071h26.9v26.9h-26.9z" stroke="#aaa" transform="matrix(.70710678 .70710678 -.70710678 .70710678 161.543421 -204.586117)"/><path d="m85.9659 97h-1.7614c-.1041-.5066-.2864-.9517-.5468-1.3352-.2557-.3836-.5682-.7055-.9375-.9659-.3646-.2652-.7694-.4641-1.2145-.5966-.4451-.1326-.9091-.1989-1.3921-.1989-.8806 0-1.6785.2225-2.3934.6676-.7103.4451-1.2761 1.1009-1.6975 1.9674-.4166.8664-.625 1.9294-.625 3.1889 0 1.2597.2084 2.3227.625 3.1887.4214.867.9872 1.522 1.6975 1.968.7149.445 1.5128.667 2.3934.667.483 0 .947-.066 1.3921-.199.4451-.132.8499-.329 1.2145-.589.3693-.265.6818-.59.9375-.973.2604-.388.4427-.834.5468-1.335h1.7614c-.1326.743-.374 1.408-.7244 1.995s-.786 1.087-1.3068 1.499c-.5209.407-1.1056.717-1.7543.93-.6439.213-1.3329.32-2.0668.32-1.2405 0-2.3437-.303-3.3096-.909s-1.7259-1.468-2.2799-2.585c-.5539-1.118-.8309-2.444-.8309-3.9777 0-1.5341.277-2.8599.8309-3.9773.554-1.1174 1.314-1.9792 2.2799-2.5852.9659-.6061 2.0691-.9091 3.3096-.9091.7339 0 1.4229.1065 2.0668.3196.6487.2131 1.2334.5256 1.7543.9375.5208.4072.9564.9043 1.3068 1.4915.3504.5823.5918 1.2476.7244 1.9957zm4.2951 3.438v6.562h-1.6761v-14.5455h1.6761v5.341h.1421c.2556-.5635.6392-1.0109 1.1505-1.3424.5161-.3361 1.2027-.5042 2.0597-.5042.7434 0 1.3944.1491 1.9531.4474.5587.2936.992.7457 1.2997 1.3565.3125.6061.4688 1.3779.4688 2.3152v6.932h-1.6762v-6.818c0-.8667-.2249-1.5366-.6747-2.0101-.4451-.4782-1.063-.7174-1.8537-.7174-.5492 0-1.0416.116-1.4772.3481-.4309.232-.7718.5705-1.0228 1.0156-.2462.4451-.3693.9848-.3693 1.6198zm13.351 6.818c-.692 0-1.319-.131-1.883-.391-.563-.265-1.01-.646-1.342-1.143-.331-.502-.4971-1.108-.4971-1.819 0-.625.1231-1.131.3691-1.519.246-.393.576-.701.987-.924.412-.222.867-.388 1.364-.497.502-.114 1.006-.204 1.513-.27.663-.085 1.2-.149 1.612-.192.417-.047.72-.125.909-.234.194-.109.291-.2983.291-.5681v-.0569c0-.7007-.191-1.2452-.575-1.6335-.379-.3882-.954-.5824-1.726-.5824-.8 0-1.427.1752-1.882.5256-.454.3504-.774.7244-.959 1.1222l-1.591-.5682c.285-.6629.663-1.179 1.137-1.5483.478-.3741.999-.6345 1.562-.7813.568-.1515 1.127-.2272 1.676-.2272.351 0 .753.0426 1.208.1278.459.0805.902.2486 1.328.5043.431.2556.788.6415 1.072 1.1576s.427 1.2074.427 2.0739v7.1875h-1.677v-1.477h-.085c-.113.236-.303.49-.568.76s-.618.499-1.058.689c-.441.189-.978.284-1.612.284zm.255-1.506c.663 0 1.222-.13 1.676-.391.46-.26.805-.596 1.037-1.008.237-.412.355-.845.355-1.3v-1.534c-.071.085-.227.163-.468.234-.237.067-.512.126-.824.178-.308.047-.609.09-.902.128-.289.033-.523.061-.703.085-.436.057-.843.149-1.222.277-.374.123-.677.31-.909.561-.227.246-.341.582-.341 1.009 0 .582.215 1.022.646 1.321.436.293.988.44 1.655.44zm7.804 1.25v-10.9091h1.676v10.9091zm.852-12.7273c-.327 0-.608-.1112-.845-.3338-.232-.2225-.348-.49-.348-.8025s.116-.5801.348-.8026c.237-.2225.518-.3338.845-.3338s.606.1113.838.3338c.237.2225.355.4901.355.8026s-.118.58-.355.8025c-.232.2226-.511.3338-.838.3338zm5.57 6.1653v6.562h-1.676v-10.9091h1.619v1.7046h.142c.256-.554.644-.9991 1.165-1.3353.521-.3409 1.193-.5113 2.017-.5113.739 0 1.385.1515 1.939.4545.554.2983.985.7528 1.293 1.3636.307.6061.461 1.3732.461 2.301v6.932h-1.676v-6.818c0-.8572-.222-1.5248-.667-2.003-.446-.483-1.056-.7245-1.833-.7245-.535 0-1.013.116-1.435.3481-.416.232-.745.5705-.987 1.0156-.241.4451-.362.9848-.362 1.6198zm16.472 6.562h-1.847l5.341-14.5455h1.818l5.341 14.5455h-1.846l-4.347-12.2443h-.113zm.682-5.682h7.443v1.563h-7.443z" fill="#fff"/><path d="m52.5256 119.864-2.8125 10.448h-1.564l2.8125-10.448zm4.6757 0-2.8125 10.448h-1.5639l2.8125-10.448zm3.6861 9.136v-8.727h1.8452v7.206h3.7415v1.521zm9.7575.128c-.6733 0-1.2529-.137-1.7387-.409-.4829-.276-.8551-.665-1.1164-1.168-.2614-.506-.3921-1.104-.3921-1.794 0-.673.1307-1.264.3921-1.773.2613-.508.6292-.904 1.1037-1.189.4772-.284 1.0369-.426 1.6789-.426.4319 0 .8339.07 1.206.209.375.136.7017.342.9801.618.2813.276.5.622.6563 1.04.1562.415.2343.9.2343 1.457v.499h-5.5269v-1.125h3.8181c0-.262-.0568-.493-.1704-.695s-.2713-.359-.473-.473c-.1989-.116-.4304-.175-.6946-.175-.2756 0-.5199.064-.733.192-.2102.125-.375.294-.4943.507-.1193.211-.1804.445-.1832.703v1.07c0 .324.0596.604.1789.84.1222.235.2941.417.5157.545s.4843.192.7883.192c.2017 0 .3864-.029.554-.085.1676-.057.3111-.143.4304-.256.1193-.114.2102-.253.2727-.418l1.679.111c-.0852.403-.2599.756-.5242 1.057-.2613.298-.5994.531-1.0142.699-.4119.164-.8877.247-1.4275.247zm6.0042-3.912v3.784h-1.8153v-6.545h1.7301v1.154h.0767c.1449-.38.3878-.681.7287-.903.3409-.224.7543-.337 1.2401-.337.4545 0 .8508.1 1.1889.299.3381.198.6008.483.7883.852.1875.366.2813.804.2813 1.312v4.168h-1.8153v-3.844c.0028-.4-.0995-.713-.3069-.937-.2073-.228-.4929-.341-.8565-.341-.2443 0-.4602.052-.6477.158-.1847.105-.3296.258-.4347.46-.1023.199-.1548.439-.1577.72zm8.0615 3.891c-.4972 0-.9475-.128-1.3509-.384-.4005-.259-.7187-.638-.9545-1.138-.233-.503-.3494-1.119-.3494-1.849 0-.75.1207-1.374.3622-1.871.2414-.5.5625-.874.963-1.121.4034-.25.8452-.375 1.3253-.375.3665 0 .6719.063.9162.188.2472.122.446.275.5966.46.1534.182.2699.361.3494.537h.0554v-3.281h1.8111v8.727h-1.7898v-1.048h-.0767c-.0852.182-.2059.362-.3622.541-.1534.176-.3537.322-.6008.439-.2443.116-.5426.175-.8949.175zm.5753-1.445c.2926 0 .5397-.08.7414-.239.2046-.162.3608-.387.4688-.677.1108-.29.1662-.63.1662-1.019s-.054-.727-.1619-1.014c-.108-.287-.2642-.508-.4688-.665-.2045-.156-.4531-.234-.7457-.234-.2983 0-.5497.081-.7543.243-.2045.162-.3594.386-.4645.673s-.1577.619-.1577.997c0 .381.0526.718.1577 1.01.108.29.2628.517.4645.682.2046.162.456.243.7543.243zm10.3764 1.466c-.6619 0-1.2344-.141-1.7173-.422-.4802-.284-.8509-.679-1.1123-1.185-.2613-.508-.392-1.098-.392-1.768 0-.676.1307-1.267.392-1.773.2614-.508.6321-.903 1.1123-1.185.4829-.284 1.0554-.426 1.7173-.426s1.2329.142 1.7131.426c.4829.282.8551.677 1.1164 1.185.2614.506.3921 1.097.3921 1.773 0 .67-.1307 1.26-.3921 1.768-.2613.506-.6335.901-1.1164 1.185-.4802.281-1.0512.422-1.7131.422zm.0085-1.406c.3011 0 .5526-.086.7543-.256.2017-.173.3537-.409.4559-.707.1052-.299.1577-.638.1577-1.019s-.0525-.72-.1577-1.018c-.1022-.299-.2542-.535-.4559-.708s-.4532-.26-.7543-.26c-.304 0-.5596.087-.767.26-.2046.173-.3594.409-.4645.708-.1023.298-.1534.637-.1534 1.018s.0511.72.1534 1.019c.1051.298.2599.534.4645.707.2074.17.463.256.767.256zm4.3932 1.278v-6.545h1.76v1.142h.068c.12-.407.32-.713.601-.921.282-.21.605-.315.972-.315.091 0 .189.005.294.017.105.011.197.027.277.047v1.611c-.085-.026-.203-.049-.354-.069-.15-.02-.288-.029-.413-.029-.267 0-.506.058-.716.174-.207.114-.372.273-.494.477-.12.205-.179.441-.179.708v3.703zm15.422-5.672h-1.866c-.034-.241-.104-.456-.209-.643-.105-.191-.24-.353-.405-.486-.165-.134-.355-.236-.571-.307-.213-.071-.445-.106-.695-.106-.451 0-.845.112-1.18.336-.335.222-.595.546-.78.972-.184.423-.277.937-.277 1.542 0 .623.093 1.145.277 1.569.188.423.449.742.784.958.336.216.723.324 1.164.324.247 0 .475-.032.686-.098.213-.065.402-.16.566-.285.165-.128.302-.283.41-.465.11-.182.187-.389.23-.622l1.866.009c-.048.4-.169.786-.362 1.159-.19.369-.448.7-.771.993-.321.289-.705.519-1.151.69-.443.168-.945.251-1.504.251-.779 0-1.475-.176-2.088-.528-.611-.352-1.094-.862-1.449-1.53-.352-.668-.529-1.476-.529-2.425 0-.951.179-1.761.537-2.429.358-.667.844-1.176 1.458-1.525.613-.352 1.304-.529 2.071-.529.505 0 .974.071 1.406.213.435.143.82.35 1.155.623.335.27.608.6.818.993.213.392.349.84.409 1.346zm4.247 5.8c-.662 0-1.235-.141-1.718-.422-.48-.284-.851-.679-1.112-1.185-.261-.508-.392-1.098-.392-1.768 0-.676.131-1.267.392-1.773.261-.508.632-.903 1.112-1.185.483-.284 1.056-.426 1.718-.426s1.233.142 1.713.426c.483.282.855.677 1.116 1.185.262.506.392 1.097.392 1.773 0 .67-.13 1.26-.392 1.768-.261.506-.633.901-1.116 1.185-.48.281-1.051.422-1.713.422zm.008-1.406c.301 0 .553-.086.754-.256.202-.173.354-.409.456-.707.105-.299.158-.638.158-1.019s-.053-.72-.158-1.018c-.102-.299-.254-.535-.456-.708-.201-.173-.453-.26-.754-.26-.304 0-.56.087-.767.26-.204.173-.359.409-.464.708-.103.298-.154.637-.154 1.018s.051.72.154 1.019c.105.298.26.534.464.707.207.17.463.256.767.256zm6.209-7.449v8.727h-1.815v-8.727zm3.269 0v8.727h-1.815v-8.727zm3.321 8.851c-.417 0-.79-.073-1.116-.218-.327-.147-.586-.365-.776-.652-.187-.29-.281-.65-.281-1.082 0-.364.067-.669.2-.916.134-.247.315-.446.546-.597.23-.15.491-.264.784-.341.295-.077.605-.13.929-.162.38-.04.687-.076.92-.111.233-.036.402-.09.507-.161.105-.072.158-.177.158-.316v-.025c0-.27-.085-.479-.256-.627-.167-.148-.406-.221-.716-.221-.326 0-.586.072-.78.217-.193.142-.321.321-.383.537l-1.679-.137c.085-.397.253-.741.503-1.031.25-.292.572-.517.967-.673.398-.159.858-.239 1.381-.239.363 0 .711.043 1.044.128.335.085.632.217.89.396.262.179.468.41.618.691.151.278.226.612.226 1.001v4.415h-1.721v-.908h-.052c-.105.205-.245.385-.421.542-.177.153-.388.274-.635.362-.247.085-.533.128-.857.128zm.52-1.253c.267 0 .503-.053.707-.158.205-.108.365-.253.482-.435.116-.181.175-.387.175-.617v-.695c-.057.037-.135.071-.235.102-.096.029-.206.056-.328.081-.122.023-.244.044-.366.064-.122.017-.233.033-.333.047-.213.031-.399.081-.558.149s-.283.161-.371.277c-.088.114-.132.256-.132.426 0 .247.09.436.269.567.181.128.412.192.69.192zm8.056-5.416v1.363h-3.942v-1.363zm-3.047-1.569h1.816v6.103c0 .167.025.298.076.392.051.091.122.155.213.191.094.037.202.056.324.056.085 0 .171-.007.256-.021.085-.018.15-.03.196-.039l.285 1.351c-.09.028-.218.061-.383.098-.165.04-.365.064-.601.072-.437.018-.821-.041-1.151-.174-.326-.134-.58-.341-.762-.622-.182-.282-.272-.637-.269-1.066zm7.142 8.242c-.673 0-1.253-.137-1.738-.409-.483-.276-.855-.665-1.117-1.168-.261-.506-.392-1.104-.392-1.794 0-.673.131-1.264.392-1.773.262-.508.629-.904 1.104-1.189.477-.284 1.037-.426 1.679-.426.432 0 .834.07 1.206.209.375.136.702.342.98.618.281.276.5.622.656 1.04.156.415.235.9.235 1.457v.499h-5.527v-1.125h3.818c0-.262-.057-.493-.171-.695-.113-.202-.271-.359-.473-.473-.199-.116-.43-.175-.694-.175-.276 0-.52.064-.733.192-.211.125-.375.294-.495.507-.119.211-.18.445-.183.703v1.07c0 .324.06.604.179.84.122.235.294.417.516.545.221.128.484.192.788.192.202 0 .386-.029.554-.085.168-.057.311-.143.43-.256.12-.114.211-.253.273-.418l1.679.111c-.085.403-.26.756-.524 1.057-.261.298-.599.531-1.014.699-.412.164-.888.247-1.428.247zm4.189-.128v-6.545h1.76v1.142h.068c.12-.407.32-.713.601-.921.281-.21.605-.315.972-.315.091 0 .189.005.294.017.105.011.197.027.277.047v1.611c-.085-.026-.203-.049-.354-.069-.15-.02-.288-.029-.413-.029-.267 0-.506.058-.716.174-.208.114-.372.273-.494.477-.12.205-.179.441-.179.708v3.703zm4.91 0v-6.545h1.816v6.545zm.912-7.389c-.27 0-.501-.09-.694-.269-.191-.181-.286-.399-.286-.652 0-.25.095-.464.286-.643.193-.182.424-.273.694-.273s.5.091.691.273c.193.179.289.393.289.643 0 .253-.096.471-.289.652-.191.179-.421.269-.691.269zm2.324 7.389v-1.082l3.204-3.968v-.047h-3.093v-1.448h5.279v1.18l-3.008 3.869v.047h3.119v1.449zm9.685.128c-.673 0-1.253-.137-1.739-.409-.483-.276-.855-.665-1.116-1.168-.262-.506-.392-1.104-.392-1.794 0-.673.13-1.264.392-1.773.261-.508.629-.904 1.103-1.189.478-.284 1.037-.426 1.679-.426.432 0 .834.07 1.206.209.375.136.702.342.98.618.282.276.5.622.657 1.04.156.415.234.9.234 1.457v.499h-5.527v-1.125h3.818c0-.262-.057-.493-.17-.695-.114-.202-.271-.359-.473-.473-.199-.116-.431-.175-.695-.175-.275 0-.52.064-.733.192-.21.125-.375.294-.494.507-.119.211-.18.445-.183.703v1.07c0 .324.059.604.179.84.122.235.294.417.515.545.222.128.485.192.789.192.201 0 .386-.029.554-.085.167-.057.311-.143.43-.256.119-.114.21-.253.273-.418l1.679.111c-.085.403-.26.756-.524 1.057-.262.298-.6.531-1.015.699-.412.164-.887.247-1.427.247z" fill="#a6a6a6"/><path d="m522.466 97h-1.761c-.105-.5066-.287-.9517-.547-1.3352-.256-.3836-.569-.7055-.938-.9659-.364-.2652-.769-.4641-1.214-.5966-.445-.1326-.909-.1989-1.392-.1989-.881 0-1.679.2225-2.394.6676-.71.4451-1.276 1.1009-1.697 1.9674-.417.8664-.625 1.9294-.625 3.1889 0 1.2597.208 2.3227.625 3.1887.421.867.987 1.522 1.697 1.968.715.445 1.513.667 2.394.667.483 0 .947-.066 1.392-.199.445-.132.85-.329 1.214-.589.369-.265.682-.59.938-.973.26-.388.442-.834.547-1.335h1.761c-.133.743-.374 1.408-.725 1.995-.35.587-.786 1.087-1.306 1.499-.521.407-1.106.717-1.755.93-.644.213-1.332.32-2.066.32-1.241 0-2.344-.303-3.31-.909s-1.726-1.468-2.28-2.585c-.554-1.118-.831-2.444-.831-3.9777 0-1.5341.277-2.8599.831-3.9773s1.314-1.9792 2.28-2.5852c.966-.6061 2.069-.9091 3.31-.9091.734 0 1.422.1065 2.066.3196.649.2131 1.234.5256 1.755.9375.52.4072.956.9043 1.306 1.4915.351.5823.592 1.2476.725 1.9957zm4.295 3.438v6.562h-1.676v-14.5455h1.676v5.341h.142c.256-.5635.639-1.0109 1.151-1.3424.516-.3361 1.202-.5042 2.059-.5042.744 0 1.395.1491 1.953.4474.559.2936.992.7457 1.3 1.3565.313.6061.469 1.3779.469 2.3152v6.932h-1.676v-6.818c0-.8667-.225-1.5366-.675-2.0101-.445-.4782-1.063-.7174-1.854-.7174-.549 0-1.041.116-1.477.3481-.431.232-.772.5705-1.023 1.0156-.246.4451-.369.9848-.369 1.6198zm13.351 6.818c-.692 0-1.319-.131-1.883-.391-.563-.265-1.01-.646-1.342-1.143-.331-.502-.497-1.108-.497-1.819 0-.625.123-1.131.369-1.519.246-.393.576-.701.987-.924.412-.222.867-.388 1.364-.497.502-.114 1.006-.204 1.513-.27.663-.085 1.2-.149 1.612-.192.417-.047.72-.125.909-.234.194-.109.291-.2983.291-.5681v-.0569c0-.7007-.191-1.2452-.575-1.6335-.379-.3882-.954-.5824-1.726-.5824-.8 0-1.427.1752-1.882.5256-.454.3504-.774.7244-.959 1.1222l-1.591-.5682c.285-.6629.663-1.179 1.137-1.5483.478-.3741.999-.6345 1.562-.7813.568-.1515 1.127-.2272 1.676-.2272.351 0 .753.0426 1.208.1278.459.0805.902.2486 1.328.5043.431.2556.788.6415 1.072 1.1576s.427 1.2074.427 2.0739v7.1875h-1.677v-1.477h-.085c-.113.236-.303.49-.568.76s-.618.499-1.058.689c-.441.189-.978.284-1.612.284zm.255-1.506c.663 0 1.222-.13 1.676-.391.46-.26.805-.596 1.037-1.008.237-.412.355-.845.355-1.3v-1.534c-.071.085-.227.163-.468.234-.237.067-.512.126-.824.178-.308.047-.609.09-.902.128-.289.033-.523.061-.703.085-.436.057-.843.149-1.222.277-.374.123-.677.31-.909.561-.227.246-.341.582-.341 1.009 0 .582.215 1.022.646 1.321.436.293.988.44 1.655.44zm7.804 1.25v-10.9091h1.676v10.9091zm.852-12.7273c-.327 0-.608-.1112-.845-.3338-.232-.2225-.348-.49-.348-.8025s.116-.5801.348-.8026c.237-.2225.518-.3338.845-.3338s.606.1113.838.3338c.237.2225.355.4901.355.8026s-.118.58-.355.8025c-.232.2226-.511.3338-.838.3338zm5.57 6.1653v6.562h-1.676v-10.9091h1.619v1.7046h.142c.256-.554.644-.9991 1.165-1.3353.521-.3409 1.193-.5113 2.017-.5113.739 0 1.385.1515 1.939.4545.554.2983.985.7528 1.293 1.3636.307.6061.461 1.3732.461 2.301v6.932h-1.676v-6.818c0-.8572-.222-1.5248-.667-2.003-.446-.483-1.056-.7245-1.833-.7245-.535 0-1.013.116-1.435.3481-.416.232-.745.5705-.987 1.0156-.241.4451-.362.9848-.362 1.6198zm15.875 6.562v-14.5455h5.086c1.013 0 1.849.1752 2.507.5256.658.3457 1.148.812 1.47 1.3992.322.5823.483 1.2287.483 1.9389 0 .625-.111 1.1411-.334 1.5483-.218.4072-.507.7291-.866.9659-.356.2367-.741.4119-1.158.5256v.142c.445.0284.892.1847 1.342.4688.45.2842.826.6912 1.129 1.2212.304.531.455 1.179.455 1.946 0 .73-.166 1.385-.497 1.968-.332.582-.855 1.044-1.57 1.385s-1.645.511-2.791.511zm1.762-1.562h3.494c1.151 0 1.967-.223 2.45-.668.488-.45.732-.994.732-1.634 0-.492-.126-.947-.377-1.363-.25-.422-.608-.758-1.072-1.009-.464-.255-1.013-.383-1.648-.383h-3.579zm0-6.5914h3.267c.53 0 1.008-.1042 1.434-.3125.431-.2083.772-.5019 1.023-.8807.256-.3788.384-.8239.384-1.3352 0-.6392-.223-1.1814-.668-1.6264-.445-.4498-1.15-.6748-2.116-.6748h-3.324z" fill="#fff"/><path d="m522.526 119.864-2.813 10.448h-1.564l2.813-10.448zm4.675 0-2.812 10.448h-1.564l2.812-10.448zm3.686 9.136v-8.727h3.495c.642 0 1.177.095 1.606.285.429.191.752.455.968.793.216.335.323.721.323 1.159 0 .341-.068.641-.204.899-.136.256-.324.466-.563.631-.235.162-.505.277-.809.345v.085c.332.014.643.108.933.281.293.174.53.417.712.729.181.31.272.679.272 1.108 0 .463-.115.876-.345 1.24-.227.361-.564.646-1.01.857-.446.21-.995.315-1.649.315zm1.846-1.509h1.504c.514 0 .889-.098 1.125-.294.236-.198.354-.463.354-.792 0-.242-.059-.455-.175-.639-.117-.185-.283-.33-.499-.435-.213-.105-.467-.158-.763-.158h-1.546zm0-3.566h1.367c.253 0 .478-.044.674-.132.199-.091.355-.219.469-.384.116-.165.174-.362.174-.592 0-.316-.112-.57-.336-.763-.222-.193-.537-.29-.946-.29h-1.402zm9.011 5.203c-.662 0-1.234-.141-1.717-.422-.48-.284-.851-.679-1.112-1.185-.262-.508-.392-1.098-.392-1.768 0-.676.13-1.267.392-1.773.261-.508.632-.903 1.112-1.185.483-.284 1.055-.426 1.717-.426s1.233.142 1.713.426c.483.282.855.677 1.117 1.185.261.506.392 1.097.392 1.773 0 .67-.131 1.26-.392 1.768-.262.506-.634.901-1.117 1.185-.48.281-1.051.422-1.713.422zm.009-1.406c.301 0 .552-.086.754-.256.202-.173.354-.409.456-.707.105-.299.158-.638.158-1.019s-.053-.72-.158-1.018c-.102-.299-.254-.535-.456-.708s-.453-.26-.754-.26c-.304 0-.56.087-.767.26-.205.173-.36.409-.465.708-.102.298-.153.637-.153 1.018s.051.72.153 1.019c.105.298.26.534.465.707.207.17.463.256.767.256zm4.393 1.278v-6.545h1.76v1.142h.068c.12-.407.32-.713.601-.921.282-.21.605-.315.972-.315.091 0 .189.005.294.017.105.011.197.027.277.047v1.611c-.085-.026-.203-.049-.354-.069-.15-.02-.288-.029-.413-.029-.267 0-.506.058-.716.174-.207.114-.372.273-.494.477-.12.205-.179.441-.179.708v3.703zm4.91 0v-6.545h1.76v1.142h.069c.119-.407.319-.713.6-.921.282-.21.606-.315.972-.315.091 0 .189.005.294.017.105.011.198.027.277.047v1.611c-.085-.026-.203-.049-.354-.069-.15-.02-.288-.029-.413-.029-.267 0-.506.058-.716.174-.207.114-.372.273-.494.477-.12.205-.179.441-.179.708v3.703zm7.563.128c-.662 0-1.234-.141-1.717-.422-.48-.284-.851-.679-1.112-1.185-.262-.508-.392-1.098-.392-1.768 0-.676.13-1.267.392-1.773.261-.508.632-.903 1.112-1.185.483-.284 1.055-.426 1.717-.426s1.233.142 1.713.426c.483.282.856.677 1.117 1.185.261.506.392 1.097.392 1.773 0 .67-.131 1.26-.392 1.768-.261.506-.634.901-1.117 1.185-.48.281-1.051.422-1.713.422zm.009-1.406c.301 0 .552-.086.754-.256.202-.173.354-.409.456-.707.105-.299.158-.638.158-1.019s-.053-.72-.158-1.018c-.102-.299-.254-.535-.456-.708s-.453-.26-.754-.26c-.304 0-.56.087-.767.26-.205.173-.36.409-.465.708-.102.298-.153.637-.153 1.018s.051.72.153 1.019c.105.298.26.534.465.707.207.17.463.256.767.256zm5.52 1.278-1.781-6.545h1.837l1.014 4.397h.06l1.057-4.397h1.802l1.074 4.372h.055l.997-4.372h1.833l-1.777 6.545h-1.922l-1.125-4.116h-.081l-1.125 4.116z" fill="#a6a6a6"/><circle cx="293.5" cy="110.5" fill="#b617e6" r="3.5"/><path d="m184 241.796c0-4.858 3.938-8.796 8.796-8.796h272.408c4.858 0 8.796 3.938 8.796 8.796v218.408c0 4.858-3.938 8.796-8.796 8.796h-272.408c-4.858 0-8.796-3.938-8.796-8.796z" fill="#000"/><path d="m208.176 277.159c-.716 0-1.332-.169-1.849-.507s-.915-.804-1.193-1.397c-.279-.593-.418-1.271-.418-2.033 0-.776.142-1.46.427-2.054.289-.596.69-1.062 1.204-1.397.517-.338 1.12-.507 1.809-.507.537 0 1.021.1 1.452.298.431.199.784.478 1.059.836s.446.775.512 1.253h-1.173c-.09-.348-.289-.657-.597-.925-.305-.272-.716-.408-1.233-.408-.457 0-.858.119-1.203.358-.341.235-.608.569-.8.999-.189.428-.284.93-.284 1.507 0 .59.093 1.104.279 1.541.189.438.454.777.795 1.019.345.242.749.363 1.213.363.305 0 .582-.053.83-.159.249-.106.459-.258.632-.457.172-.199.295-.438.368-.716h1.173c-.066.45-.23.856-.492 1.218-.259.358-.602.643-1.029.855-.425.209-.918.313-1.482.313zm7.82 0c-.689 0-1.294-.164-1.814-.492-.517-.328-.922-.787-1.213-1.377-.289-.59-.433-1.28-.433-2.068 0-.796.144-1.49.433-2.084.291-.593.696-1.053 1.213-1.382.52-.328 1.125-.492 1.814-.492.69 0 1.293.164 1.81.492.52.329.925.789 1.213 1.382.292.594.438 1.288.438 2.084 0 .788-.146 1.478-.438 2.068-.288.59-.693 1.049-1.213 1.377-.517.328-1.12.492-1.81.492zm0-1.054c.524 0 .955-.134 1.293-.403.338-.268.588-.621.751-1.059.162-.437.243-.911.243-1.421 0-.511-.081-.986-.243-1.427-.163-.441-.413-.797-.751-1.069s-.769-.408-1.293-.408c-.523 0-.954.136-1.292.408s-.588.628-.751 1.069c-.162.441-.243.916-.243 1.427 0 .51.081.984.243 1.421.163.438.413.791.751 1.059.338.269.769.403 1.292.403zm6.425-3.699v4.594h-1.173v-7.636h1.133v1.193h.1c.179-.388.45-.7.815-.935.365-.238.835-.358 1.412-.358.517 0 .969.106 1.357.318.388.209.69.527.905.955.215.424.323.961.323 1.611v4.852h-1.173v-4.773c0-.6-.156-1.067-.467-1.402-.312-.338-.74-.507-1.283-.507-.375 0-.709.081-1.004.244-.292.162-.522.399-.691.711-.169.311-.254.689-.254 1.133zm8.189 0v4.594h-1.173v-7.636h1.134v1.193h.099c.179-.388.451-.7.815-.935.365-.238.836-.358 1.412-.358.517 0 .97.106 1.358.318.387.209.689.527.904.955.216.424.324.961.324 1.611v4.852h-1.174v-4.773c0-.6-.155-1.067-.467-1.402-.312-.338-.739-.507-1.283-.507-.374 0-.709.081-1.004.244-.292.162-.522.399-.691.711-.169.311-.254.689-.254 1.133zm10.218 4.753c-.735 0-1.37-.162-1.904-.487-.53-.328-.939-.786-1.228-1.372-.285-.59-.427-1.276-.427-2.059 0-.782.142-1.471.427-2.068.289-.6.69-1.067 1.203-1.402.517-.338 1.121-.507 1.81-.507.398 0 .79.066 1.178.199s.741.348 1.059.646c.318.295.572.686.761 1.174.189.487.283 1.087.283 1.799v.498h-5.886v-1.015h4.693c0-.431-.086-.815-.258-1.153-.17-.338-.411-.605-.726-.8-.312-.196-.68-.294-1.104-.294-.467 0-.872.116-1.213.348-.338.229-.598.527-.781.895-.182.368-.273.762-.273 1.183v.676c0 .577.099 1.066.298 1.467.202.398.482.701.84.91.358.205.774.308 1.248.308.309 0 .587-.043.836-.129.251-.09.469-.222.651-.398.182-.179.323-.401.422-.666l1.134.318c-.119.385-.32.723-.602 1.014-.281.289-.629.514-1.044.676-.414.16-.88.239-1.397.239zm5.617-7.795 1.83 3.122 1.829-3.122h1.352l-2.466 3.818 2.466 3.818h-1.352l-1.829-2.963-1.83 2.963h-1.352l2.426-3.818-2.426-3.818zm10.007 0v.994h-3.958v-.994zm-2.804-1.83h1.173v7.278c0 .332.048.581.144.746.099.163.225.272.378.328.156.053.32.08.492.08.129 0 .235-.007.318-.02.083-.017.149-.03.199-.04l.239 1.054c-.08.03-.191.06-.333.09-.143.033-.324.049-.542.049-.332 0-.657-.071-.975-.213-.315-.143-.576-.36-.785-.652-.206-.291-.308-.659-.308-1.103z" fill="#ad93e9"/><path d="m259.072 277.08c-.246 0-.456-.088-.632-.264-.175-.176-.263-.386-.263-.631 0-.246.088-.456.263-.632.176-.175.386-.263.632-.263.245 0 .455.088.631.263.176.176.263.386.263.632 0 .162-.041.311-.124.447-.079.136-.187.245-.323.328-.133.08-.282.12-.447.12zm35.98-4.356v-.616c.554 0 .94-.116 1.159-.348.222-.232.333-.62.333-1.163v-1.591c0-.458.043-.854.129-1.189.089-.334.234-.611.432-.83.199-.219.464-.381.796-.487.331-.106.741-.159 1.228-.159v.974c-.385 0-.688.06-.91.179-.219.12-.374.305-.467.557-.09.249-.134.567-.134.955v1.988c0 .259-.035.494-.105.706-.066.212-.19.395-.373.547-.182.153-.442.27-.78.353-.335.083-.771.124-1.308.124zm4.077 6.344c-.487 0-.897-.053-1.228-.159-.332-.106-.597-.268-.796-.487-.198-.219-.343-.496-.432-.83-.086-.335-.129-.731-.129-1.189v-1.591c0-.543-.111-.931-.333-1.163-.219-.232-.605-.348-1.159-.348v-.616c.537 0 .973.041 1.308.124.338.083.598.2.78.353.183.152.307.335.373.547.07.212.105.447.105.706v1.988c0 .388.044.706.134.955.093.249.248.432.467.552.222.122.525.184.91.184zm-4.077-5.767v-1.193h1.173v1.193zm41.539 3.779c-.245 0-.456-.088-.631-.264-.176-.176-.264-.386-.264-.631 0-.246.088-.456.264-.632.175-.175.386-.263.631-.263s.456.088.631.263c.176.176.264.386.264.632 0 .162-.041.311-.124.447-.08.136-.188.245-.323.328-.133.08-.282.12-.448.12zm0-5.668c-.245 0-.456-.088-.631-.264-.176-.175-.264-.386-.264-.631s.088-.456.264-.631c.175-.176.386-.264.631-.264s.456.088.631.264c.176.175.264.386.264.631 0 .162-.041.312-.124.447-.08.136-.188.246-.323.329-.133.079-.282.119-.448.119zm18.75 5.588v-7.636h1.134v1.153h.08c.139-.378.391-.684.755-.92.365-.235.776-.353 1.233-.353.086 0 .194.002.323.005.13.004.227.009.294.015v1.193c-.04-.01-.131-.024-.274-.044-.139-.024-.287-.035-.442-.035-.371 0-.703.078-.995.234-.288.152-.517.364-.686.636-.165.268-.248.575-.248.92v4.832zm8.179.159c-.736 0-1.371-.162-1.904-.487-.531-.328-.94-.786-1.228-1.372-.285-.59-.428-1.276-.428-2.059 0-.782.143-1.471.428-2.068.288-.6.689-1.067 1.203-1.402.517-.338 1.12-.507 1.809-.507.398 0 .791.066 1.179.199.387.133.74.348 1.059.646.318.295.571.686.76 1.174.189.487.284 1.087.284 1.799v.498h-5.887v-1.015h4.693c0-.431-.086-.815-.258-1.153-.169-.338-.411-.605-.726-.8-.311-.196-.679-.294-1.104-.294-.467 0-.871.116-1.213.348-.338.229-.598.527-.78.895-.183.368-.274.762-.274 1.183v.676c0 .577.1 1.066.299 1.467.202.398.482.701.84.91.358.205.774.308 1.248.308.308 0 .586-.043.835-.129.252-.09.469-.222.651-.398.183-.179.323-.401.423-.666l1.133.318c-.119.385-.32.723-.601 1.014-.282.289-.63.514-1.044.676-.415.16-.88.239-1.397.239zm6.12-10.341v10.182h-1.174v-10.182zm4.396 10.361c-.484 0-.923-.091-1.318-.273-.394-.186-.707-.453-.939-.801-.232-.351-.348-.775-.348-1.273 0-.437.086-.792.258-1.064.173-.275.403-.49.691-.646.289-.156.607-.272.955-.348.351-.079.704-.142 1.059-.189.464-.059.84-.104 1.128-.134.292-.033.504-.088.637-.164.136-.076.204-.209.204-.398v-.04c0-.49-.135-.871-.403-1.143-.265-.272-.668-.408-1.208-.408-.56 0-1 .123-1.318.368s-.542.507-.671.786l-1.113-.398c.198-.464.464-.825.795-1.084.335-.262.699-.444 1.094-.547.397-.106.789-.159 1.173-.159.245 0 .527.03.845.09.322.056.632.174.93.353.301.179.552.449.751.81.198.361.298.845.298 1.452v5.031h-1.173v-1.034h-.06c-.08.166-.212.343-.398.532-.185.189-.432.35-.741.482-.308.133-.684.199-1.128.199zm.179-1.054c.464 0 .855-.091 1.173-.273.322-.183.564-.418.726-.706.166-.289.249-.592.249-.91v-1.074c-.05.06-.16.114-.329.164-.165.046-.358.088-.576.124-.216.033-.426.063-.632.09-.202.023-.366.043-.492.059-.305.04-.59.105-.855.194-.262.086-.474.217-.636.393-.159.172-.239.408-.239.706 0 .408.151.716.452.925.305.205.692.308 1.159.308zm5.945 3.739c-.199 0-.377-.017-.532-.05-.156-.03-.264-.06-.323-.09l.298-1.034c.285.073.537.1.755.08.219-.02.413-.118.582-.293.173-.173.33-.453.472-.841l.219-.596-2.824-7.676h1.273l2.108 6.085h.08l2.108-6.085h1.272l-3.241 8.75c-.146.394-.327.721-.542.979-.216.262-.466.456-.751.582-.282.126-.6.189-.954.189zm9.965-2.705c-.736 0-1.37-.162-1.904-.487-.53-.328-.94-.786-1.228-1.372-.285-.59-.427-1.276-.427-2.059 0-.782.142-1.471.427-2.068.288-.6.689-1.067 1.203-1.402.517-.338 1.12-.507 1.81-.507.398 0 .79.066 1.178.199s.741.348 1.059.646c.318.295.572.686.761 1.174.189.487.283 1.087.283 1.799v.498h-5.886v-1.015h4.693c0-.431-.086-.815-.259-1.153-.169-.338-.411-.605-.725-.8-.312-.196-.68-.294-1.104-.294-.467 0-.872.116-1.213.348-.338.229-.598.527-.781.895-.182.368-.273.762-.273 1.183v.676c0 .577.099 1.066.298 1.467.202.398.482.701.84.91.358.205.774.308 1.248.308.308 0 .587-.043.835-.129.252-.09.469-.222.652-.398.182-.179.323-.401.422-.666l1.134.318c-.12.385-.32.723-.602 1.014-.281.289-.63.514-1.044.676-.414.16-.88.239-1.397.239zm4.947-.159v-7.636h1.133v1.153h.08c.139-.378.391-.684.756-.92.364-.235.775-.353 1.233-.353.086 0 .194.002.323.005.129.004.227.009.293.015v1.193c-.04-.01-.131-.024-.273-.044-.14-.024-.287-.035-.443-.035-.371 0-.702.078-.994.234-.288.152-.517.364-.686.636-.166.268-.249.575-.249.92v4.832zm5.368 0v-10.182h6.105v1.094h-4.872v3.44h4.415v1.094h-4.415v4.554zm10.699.159c-.736 0-1.371-.162-1.904-.487-.531-.328-.94-.786-1.228-1.372-.285-.59-.428-1.276-.428-2.059 0-.782.143-1.471.428-2.068.288-.6.689-1.067 1.203-1.402.517-.338 1.12-.507 1.81-.507.397 0 .79.066 1.178.199s.741.348 1.059.646c.318.295.571.686.76 1.174.189.487.284 1.087.284 1.799v.498h-5.887v-1.015h4.694c0-.431-.087-.815-.259-1.153-.169-.338-.411-.605-.726-.8-.311-.196-.679-.294-1.103-.294-.468 0-.872.116-1.214.348-.338.229-.598.527-.78.895s-.274.762-.274 1.183v.676c0 .577.1 1.066.299 1.467.202.398.482.701.84.91.358.205.774.308 1.248.308.308 0 .586-.043.835-.129.252-.09.469-.222.651-.398.183-.179.324-.401.423-.666l1.133.318c-.119.385-.319.723-.601 1.014-.282.289-.63.514-1.044.676-.414.16-.88.239-1.397.239zm8.148 0c-.736 0-1.37-.162-1.904-.487-.53-.328-.939-.786-1.228-1.372-.285-.59-.427-1.276-.427-2.059 0-.782.142-1.471.427-2.068.289-.6.69-1.067 1.203-1.402.517-.338 1.121-.507 1.81-.507.398 0 .79.066 1.178.199s.741.348 1.059.646c.318.295.572.686.761 1.174.189.487.283 1.087.283 1.799v.498h-5.886v-1.015h4.693c0-.431-.086-.815-.258-1.153-.17-.338-.411-.605-.726-.8-.312-.196-.68-.294-1.104-.294-.467 0-.872.116-1.213.348-.338.229-.598.527-.781.895-.182.368-.273.762-.273 1.183v.676c0 .577.099 1.066.298 1.467.202.398.482.701.84.91.358.205.774.308 1.248.308.309 0 .587-.043.836-.129.251-.09.469-.222.651-.398.182-.179.323-.401.422-.666l1.134.318c-.119.385-.32.723-.602 1.014-.281.289-.629.514-1.044.676-.414.16-.88.239-1.397.239zm8.427-4.474v.616c-.553 0-.941.116-1.163.348-.219.232-.328.62-.328 1.163v1.591c0 .458-.045.854-.135 1.189-.086.334-.228.611-.427.83s-.464.381-.796.487c-.331.106-.74.159-1.228.159v-.974c.385 0 .687-.062.905-.184.222-.12.378-.303.468-.552.092-.249.139-.567.139-.955v-1.988c0-.259.033-.494.099-.706.07-.212.196-.395.378-.547.182-.153.441-.27.776-.353.338-.083.775-.124 1.312-.124zm-4.077-6.344c.488 0 .897.053 1.228.159.332.106.597.268.796.487s.341.496.427.83c.09.335.135.731.135 1.189v1.591c0 .543.109.931.328 1.163.222.232.61.348 1.163.348v.616c-.537 0-.974-.041-1.312-.124-.335-.083-.594-.2-.776-.353-.182-.152-.308-.335-.378-.547-.066-.212-.099-.447-.099-.706v-1.988c0-.388-.047-.706-.139-.955-.09-.252-.246-.437-.468-.557-.218-.119-.52-.179-.905-.179zm4.077 5.767v1.193h-1.173v-1.193zm2.01.597c0-1.253.162-2.405.487-3.456.328-1.054.796-2.023 1.402-2.908h1.034c-.238.328-.462.732-.671 1.213-.205.477-.386 1.003-.542 1.576-.156.57-.278 1.16-.368 1.77-.086.61-.129 1.211-.129 1.805 0 .788.076 1.589.229 2.401.152.812.358 1.566.616 2.262.259.696.547 1.263.865 1.7h-1.034c-.606-.885-1.074-1.853-1.402-2.903-.325-1.054-.487-2.208-.487-3.46zm-206.017 26.454c-.636 0-1.198-.161-1.685-.482-.487-.325-.868-.782-1.143-1.372-.276-.594-.413-1.295-.413-2.103 0-.802.137-1.498.413-2.088.275-.59.657-1.046 1.148-1.368.491-.321 1.057-.482 1.7-.482.497 0 .89.083 1.179.249.291.162.513.348.666.557.156.205.276.374.363.507h.099v-3.759h1.173v10.182h-1.133v-1.173h-.139c-.087.139-.209.315-.368.527-.159.208-.386.396-.681.561-.295.163-.688.244-1.179.244zm.159-1.054c.471 0 .869-.123 1.194-.368.324-.248.571-.591.74-1.029.169-.441.254-.949.254-1.526 0-.57-.083-1.069-.249-1.497-.165-.431-.411-.765-.735-1.004-.325-.242-.726-.363-1.204-.363-.497 0-.911.128-1.242.383-.329.252-.575.595-.741 1.029-.163.431-.244.915-.244 1.452 0 .543.083 1.037.249 1.481.169.441.417.792.746 1.054.331.259.742.388 1.232.388zm8.855 1.054c-.736 0-1.371-.162-1.904-.487-.531-.328-.94-.786-1.228-1.372-.285-.59-.428-1.276-.428-2.059 0-.782.143-1.471.428-2.068.288-.6.689-1.067 1.203-1.402.517-.338 1.12-.507 1.81-.507.397 0 .79.066 1.178.199s.741.348 1.059.646c.318.295.572.686.76 1.174.189.487.284 1.087.284 1.799v.498h-5.887v-1.015h4.694c0-.431-.087-.815-.259-1.153-.169-.338-.411-.605-.726-.8-.311-.196-.679-.294-1.103-.294-.468 0-.872.116-1.214.348-.338.229-.598.527-.78.895s-.273.762-.273 1.183v.676c0 .577.099 1.066.298 1.467.202.398.482.701.84.91.358.205.774.308 1.248.308.308 0 .587-.043.835-.129.252-.09.469-.222.651-.398.183-.179.324-.401.423-.666l1.133.318c-.119.385-.319.723-.601 1.014-.282.289-.63.514-1.044.676-.414.16-.88.239-1.397.239zm10.356-6.085-1.054.298c-.067-.176-.164-.346-.294-.512-.126-.169-.298-.308-.517-.418-.218-.109-.498-.164-.84-.164-.467 0-.857.108-1.168.324-.308.212-.463.482-.463.81 0 .292.107.522.319.691s.543.31.994.423l1.134.278c.682.166 1.191.419 1.526.761.335.338.502.774.502 1.307 0 .438-.126.829-.378 1.173-.249.345-.597.617-1.044.816s-.968.298-1.561.298c-.779 0-1.424-.169-1.934-.507s-.834-.832-.969-1.482l1.113-.278c.106.411.307.719.602.925.298.205.687.308 1.168.308.547 0 .981-.116 1.303-.348.324-.235.487-.517.487-.845 0-.265-.093-.487-.279-.666-.185-.183-.47-.319-.855-.408l-1.272-.298c-.7-.166-1.213-.423-1.542-.771-.324-.351-.487-.79-.487-1.317 0-.431.121-.812.363-1.144.245-.331.578-.591.999-.78.425-.189.905-.284 1.442-.284.756 0 1.349.166 1.78.497.434.332.742.769.925 1.313zm5.226-1.71v.994h-3.957v-.994zm-2.804-1.83h1.173v7.278c0 .332.048.581.145.746.099.163.225.272.377.328.156.053.32.08.493.08.129 0 .235-.007.318-.02.083-.017.149-.03.199-.04l.238 1.054c-.079.03-.19.06-.333.09-.142.033-.323.049-.542.049-.331 0-.656-.071-.974-.213-.315-.143-.577-.36-.786-.652-.205-.291-.308-.659-.308-1.103zm4.569 9.466v-7.636h1.173v7.636zm.597-8.909c-.229 0-.426-.078-.592-.234-.162-.156-.244-.343-.244-.562 0-.218.082-.406.244-.561.166-.156.363-.234.592-.234.228 0 .424.078.586.234.166.155.249.343.249.561 0 .219-.083.406-.249.562-.162.156-.358.234-.586.234zm3.899 4.315v4.594h-1.174v-7.636h1.134v1.193h.099c.179-.388.451-.7.816-.935.364-.238.835-.358 1.411-.358.518 0 .97.106 1.358.318.388.209.689.527.905.955.215.424.323.961.323 1.611v4.852h-1.174v-4.773c0-.6-.155-1.067-.467-1.402-.311-.338-.739-.507-1.283-.507-.374 0-.709.081-1.004.244-.291.162-.522.399-.691.711-.169.311-.253.689-.253 1.133zm9.263 4.773c-.484 0-.923-.091-1.318-.273-.394-.186-.707-.453-.939-.801-.232-.351-.348-.775-.348-1.273 0-.437.086-.792.258-1.064.173-.275.403-.49.691-.646.289-.156.607-.272.955-.348.351-.079.704-.142 1.059-.189.464-.059.84-.104 1.128-.134.292-.033.504-.088.637-.164.136-.076.204-.209.204-.398v-.04c0-.49-.135-.871-.403-1.143-.265-.272-.668-.408-1.208-.408-.56 0-.999.123-1.318.368-.318.245-.542.507-.671.786l-1.113-.398c.198-.464.464-.825.795-1.084.335-.262.699-.444 1.094-.547.397-.106.789-.159 1.173-.159.245 0 .527.03.845.09.322.056.632.174.93.353.301.179.552.449.751.81.198.361.298.845.298 1.452v5.031h-1.173v-1.034h-.06c-.08.166-.212.343-.398.532-.185.189-.432.35-.741.482-.308.133-.684.199-1.128.199zm.179-1.054c.464 0 .855-.091 1.173-.273.322-.183.564-.418.726-.706.166-.289.249-.592.249-.91v-1.074c-.05.06-.16.114-.329.164-.165.046-.357.088-.576.124-.216.033-.426.063-.632.09-.202.023-.366.043-.492.059-.305.04-.59.105-.855.194-.262.086-.474.217-.636.393-.159.172-.239.408-.239.706 0 .408.151.716.452.925.305.205.692.308 1.159.308zm8.783-6.761v.994h-3.957v-.994zm-2.804-1.83h1.174v7.278c0 .332.048.581.144.746.099.163.225.272.378.328.156.053.32.08.492.08.129 0 .235-.007.318-.02.083-.017.149-.03.199-.04l.239 1.054c-.08.03-.191.06-.333.09-.143.033-.324.049-.542.049-.332 0-.657-.071-.975-.213-.315-.143-.577-.36-.785-.652-.206-.291-.309-.659-.309-1.103zm4.569 9.466v-7.636h1.174v7.636zm.597-8.909c-.229 0-.426-.078-.592-.234-.162-.156-.243-.343-.243-.562 0-.218.081-.406.243-.561.166-.156.363-.234.592-.234s.424.078.587.234c.165.155.248.343.248.561 0 .219-.083.406-.248.562-.163.156-.358.234-.587.234zm5.828 9.068c-.69 0-1.294-.164-1.815-.492-.517-.328-.921-.787-1.213-1.377-.288-.59-.432-1.28-.432-2.068 0-.796.144-1.49.432-2.084.292-.593.696-1.053 1.213-1.382.521-.328 1.125-.492 1.815-.492.689 0 1.292.164 1.81.492.52.329.924.789 1.213 1.382.291.594.437 1.288.437 2.084 0 .788-.146 1.478-.437 2.068-.289.59-.693 1.049-1.213 1.377-.518.328-1.121.492-1.81.492zm0-1.054c.524 0 .954-.134 1.292-.403.339-.268.589-.621.751-1.059.163-.437.244-.911.244-1.421 0-.511-.081-.986-.244-1.427-.162-.441-.412-.797-.751-1.069-.338-.272-.768-.408-1.292-.408s-.955.136-1.293.408-.588.628-.75 1.069c-.163.441-.244.916-.244 1.427 0 .51.081.984.244 1.421.162.438.412.791.75 1.059.338.269.769.403 1.293.403zm6.424-3.699v4.594h-1.173v-7.636h1.134v1.193h.099c.179-.388.451-.7.815-.935.365-.238.836-.358 1.412-.358.517 0 .97.106 1.358.318.387.209.689.527.904.955.216.424.324.961.324 1.611v4.852h-1.174v-4.773c0-.6-.156-1.067-.467-1.402-.312-.338-.739-.507-1.283-.507-.374 0-.709.081-1.004.244-.292.162-.522.399-.691.711-.169.311-.254.689-.254 1.133zm15.369-2.406h-1.233c-.073-.355-.201-.666-.383-.935-.179-.268-.398-.494-.656-.676-.255-.185-.539-.325-.85-.417-.312-.093-.637-.14-.975-.14-.616 0-1.175.156-1.675.468-.497.311-.893.77-1.188 1.377-.292.606-.438 1.35-.438 2.232s.146 1.626.438 2.232c.295.607.691 1.066 1.188 1.377.5.312 1.059.468 1.675.468.338 0 .663-.047.975-.139.311-.093.595-.231.85-.413.258-.186.477-.413.656-.681.182-.272.31-.583.383-.935h1.233c-.093.521-.262.986-.507 1.397-.246.411-.55.761-.915 1.049-.365.285-.774.502-1.228.651-.451.15-.933.224-1.447.224-.868 0-1.64-.212-2.317-.636-.676-.424-1.208-1.028-1.595-1.81-.388-.782-.582-1.71-.582-2.784s.194-2.002.582-2.784c.387-.782.919-1.385 1.595-1.81.677-.424 1.449-.636 2.317-.636.514 0 .996.075 1.447.224.454.149.863.368 1.228.656.365.285.669.633.915 1.044.245.408.414.873.507 1.397zm3.006 2.406v4.594h-1.173v-10.182h1.173v3.739h.1c.179-.395.447-.708.805-.94.362-.235.842-.353 1.442-.353.52 0 .976.105 1.367.313.391.206.695.522.91.95.219.424.328.964.328 1.621v4.852h-1.173v-4.773c0-.606-.158-1.075-.472-1.407-.312-.334-.745-.502-1.298-.502-.385 0-.729.081-1.034.244-.302.162-.54.399-.716.711-.172.311-.259.689-.259 1.133zm9.346 4.773c-.484 0-.923-.091-1.318-.273-.394-.186-.707-.453-.939-.801-.232-.351-.348-.775-.348-1.273 0-.437.086-.792.258-1.064.173-.275.403-.49.691-.646.289-.156.607-.272.955-.348.351-.079.704-.142 1.059-.189.464-.059.84-.104 1.128-.134.292-.033.504-.088.637-.164.136-.076.203-.209.203-.398v-.04c0-.49-.134-.871-.402-1.143-.265-.272-.668-.408-1.208-.408-.56 0-1 .123-1.318.368s-.542.507-.671.786l-1.114-.398c.199-.464.464-.825.796-1.084.335-.262.699-.444 1.094-.547.397-.106.788-.159 1.173-.159.245 0 .527.03.845.09.322.056.631.174.93.353.301.179.552.449.75.81.199.361.299.845.299 1.452v5.031h-1.174v-1.034h-.059c-.08.166-.212.343-.398.532s-.432.35-.741.482c-.308.133-.684.199-1.128.199zm.179-1.054c.464 0 .855-.091 1.173-.273.322-.183.563-.418.726-.706.166-.289.248-.592.248-.91v-1.074c-.049.06-.159.114-.328.164-.165.046-.358.088-.576.124-.216.033-.426.063-.632.09-.202.023-.366.043-.492.059-.305.04-.59.105-.855.194-.262.086-.474.217-.636.393-.16.172-.239.408-.239.706 0 .408.151.716.452.925.305.205.691.308 1.159.308zm5.462.875v-7.636h1.174v7.636zm.597-8.909c-.229 0-.426-.078-.592-.234-.162-.156-.243-.343-.243-.562 0-.218.081-.406.243-.561.166-.156.363-.234.592-.234s.424.078.587.234c.165.155.248.343.248.561 0 .219-.083.406-.248.562-.163.156-.358.234-.587.234zm3.899 4.315v4.594h-1.173v-7.636h1.133v1.193h.099c.179-.388.451-.7.816-.935.364-.238.835-.358 1.412-.358.517 0 .969.106 1.357.318.388.209.689.527.905.955.215.424.323.961.323 1.611v4.852h-1.173v-4.773c0-.6-.156-1.067-.468-1.402-.311-.338-.739-.507-1.282-.507-.375 0-.71.081-1.005.244-.291.162-.522.399-.691.711-.169.311-.253.689-.253 1.133zm8.766 3.202-.08.537c-.056.378-.142.782-.258 1.213-.113.431-.23.837-.353 1.218s-.224.684-.303.91h-.895c.043-.212.099-.492.169-.84.069-.348.139-.738.209-1.169.073-.427.132-.865.179-1.312l.059-.557zm-109.882 15.756v.994h-3.957v-.994zm-2.804-1.83h1.173v7.278c0 .332.048.581.144.746.1.163.226.272.378.328.156.053.32.08.492.08.13 0 .236-.007.319-.02.082-.017.149-.03.198-.04l.239 1.054c-.079.03-.19.06-.333.09-.143.033-.323.049-.542.049-.331 0-.656-.071-.974-.213-.315-.143-.577-.36-.786-.652-.205-.291-.308-.659-.308-1.103zm6.816 9.645c-.484 0-.923-.091-1.318-.273-.394-.186-.707-.453-.939-.801-.232-.351-.348-.775-.348-1.273 0-.437.086-.792.258-1.064.173-.275.403-.49.691-.646.289-.156.607-.272.955-.348.351-.079.704-.142 1.059-.189.464-.059.84-.104 1.128-.134.292-.033.504-.088.637-.164.136-.076.204-.209.204-.398v-.04c0-.49-.135-.871-.403-1.143-.265-.272-.668-.408-1.208-.408-.56 0-.999.123-1.318.368-.318.245-.542.507-.671.786l-1.113-.398c.198-.464.464-.825.795-1.084.335-.262.699-.444 1.094-.547.398-.106.789-.159 1.173-.159.245 0 .527.03.845.09.322.056.632.174.93.353.302.179.552.449.751.81s.298.845.298 1.452v5.031h-1.173v-1.034h-.06c-.08.166-.212.343-.398.532-.185.189-.432.35-.74.482-.309.133-.685.199-1.129.199zm.179-1.054c.464 0 .855-.091 1.173-.273.322-.183.564-.418.726-.706.166-.289.249-.592.249-.91v-1.074c-.05.06-.159.114-.328.164-.166.046-.358.088-.577.124-.216.033-.426.063-.632.09-.202.023-.366.043-.492.059-.305.04-.59.105-.855.194-.262.086-.474.217-.636.393-.159.172-.239.408-.239.706 0 .408.151.716.453.925.304.205.691.308 1.158.308zm5.462.875v-7.636h1.134v1.153h.08c.139-.378.391-.684.755-.92.365-.235.776-.353 1.233-.353.086 0 .194.002.323.005.13.004.227.009.294.015v1.193c-.04-.01-.131-.024-.274-.044-.139-.024-.286-.035-.442-.035-.371 0-.703.078-.995.234-.288.152-.517.364-.686.636-.165.268-.248.575-.248.92v4.832zm8.059 3.023c-.566 0-1.054-.073-1.461-.219-.408-.143-.748-.331-1.019-.567-.269-.232-.483-.48-.642-.746l.935-.656c.106.139.24.299.403.477.162.183.384.34.666.473.285.136.658.204 1.118.204.617 0 1.126-.15 1.527-.448s.601-.765.601-1.402v-1.551h-.099c-.086.139-.209.312-.368.517-.156.202-.381.383-.676.542-.292.156-.686.234-1.183.234-.617 0-1.17-.146-1.661-.438-.487-.291-.873-.716-1.158-1.273-.282-.556-.423-1.233-.423-2.028 0-.782.138-1.463.413-2.043.275-.584.658-1.034 1.148-1.353.491-.321 1.057-.482 1.7-.482.498 0 .892.083 1.184.249.295.162.52.348.676.557.159.205.282.374.368.507h.119v-1.213h1.134v7.855c0 .656-.15 1.19-.448 1.601-.295.414-.693.717-1.193.909-.497.196-1.051.294-1.661.294zm-.039-4.196c.47 0 .868-.108 1.193-.323.325-.216.572-.526.741-.93s.253-.888.253-1.452c0-.55-.083-1.036-.248-1.457-.166-.42-.411-.75-.736-.989s-.726-.358-1.203-.358c-.498 0-.912.126-1.243.378-.328.252-.575.59-.741 1.014-.162.424-.244.895-.244 1.412 0 .53.083.999.249 1.407.169.404.418.723.746.955.331.228.742.343 1.233.343zm8.69 1.332c-.736 0-1.371-.162-1.904-.487-.53-.328-.94-.786-1.228-1.372-.285-.59-.428-1.276-.428-2.059 0-.782.143-1.471.428-2.068.288-.6.689-1.067 1.203-1.402.517-.338 1.12-.507 1.81-.507.397 0 .79.066 1.178.199s.741.348 1.059.646c.318.295.572.686.761 1.174.188.487.283 1.087.283 1.799v.498h-5.886v-1.015h4.693c0-.431-.086-.815-.259-1.153-.169-.338-.411-.605-.726-.8-.311-.196-.679-.294-1.103-.294-.468 0-.872.116-1.213.348-.338.229-.599.527-.781.895s-.273.762-.273 1.183v.676c0 .577.099 1.066.298 1.467.202.398.482.701.84.91.358.205.774.308 1.248.308.308 0 .587-.043.835-.129.252-.09.469-.222.651-.398.183-.179.324-.401.423-.666l1.134.318c-.12.385-.32.723-.602 1.014-.282.289-.63.514-1.044.676-.414.16-.88.239-1.397.239zm8.268-7.795v.994h-3.958v-.994zm-2.804-1.83h1.173v7.278c0 .332.048.581.144.746.1.163.226.272.378.328.156.053.32.08.492.08.13 0 .236-.007.318-.02.083-.017.15-.03.199-.04l.239 1.054c-.08.03-.191.06-.333.09-.143.033-.323.049-.542.049-.331 0-.656-.071-.974-.213-.315-.143-.577-.36-.786-.652-.205-.291-.308-.659-.308-1.103zm5.145 9.466h-1.292l3.738-10.182h1.273l3.739 10.182h-1.293l-3.042-8.571h-.08zm.478-3.977h5.21v1.093h-5.21zm11.29 4.136c-.636 0-1.198-.161-1.685-.482-.487-.325-.869-.782-1.144-1.372-.275-.594-.412-1.295-.412-2.103 0-.802.137-1.498.412-2.088s.658-1.046 1.149-1.368c.49-.321 1.057-.482 1.7-.482.497 0 .89.083 1.178.249.292.162.514.348.666.557.156.205.277.374.363.507h.1v-3.759h1.173v10.182h-1.133v-1.173h-.14c-.086.139-.208.315-.368.527-.159.208-.386.396-.681.561-.295.163-.687.244-1.178.244zm.159-1.054c.471 0 .869-.123 1.193-.368.325-.248.572-.591.741-1.029.169-.441.254-.949.254-1.526 0-.57-.083-1.069-.249-1.497-.166-.431-.411-.765-.736-1.004-.324-.242-.726-.363-1.203-.363-.497 0-.911.128-1.243.383-.328.252-.575.595-.74 1.029-.163.431-.244.915-.244 1.452 0 .543.083 1.037.249 1.481.169.441.417.792.745 1.054.332.259.743.388 1.233.388zm8.536 1.054c-.636 0-1.198-.161-1.685-.482-.487-.325-.868-.782-1.143-1.372-.275-.594-.413-1.295-.413-2.103 0-.802.138-1.498.413-2.088s.658-1.046 1.148-1.368c.491-.321 1.057-.482 1.7-.482.497 0 .89.083 1.179.249.291.162.513.348.666.557.156.205.277.374.363.507h.099v-3.759h1.173v10.182h-1.133v-1.173h-.139c-.086.139-.209.315-.368.527-.159.208-.386.396-.681.561-.295.163-.688.244-1.179.244zm.16-1.054c.47 0 .868-.123 1.193-.368.325-.248.571-.591.74-1.029.17-.441.254-.949.254-1.526 0-.57-.083-1.069-.249-1.497-.165-.431-.411-.765-.735-1.004-.325-.242-.726-.363-1.203-.363-.498 0-.912.128-1.243.383-.328.252-.575.595-.741 1.029-.163.431-.244.915-.244 1.452 0 .543.083 1.037.249 1.481.169.441.417.792.746 1.054.331.259.742.388 1.233.388zm5.652.895v-7.636h1.134v1.153h.079c.139-.378.391-.684.756-.92.365-.235.776-.353 1.233-.353.086 0 .194.002.323.005.129.004.227.009.293.015v1.193c-.039-.01-.131-.024-.273-.044-.139-.024-.287-.035-.443-.035-.371 0-.702.078-.994.234-.288.152-.517.364-.686.636-.166.268-.248.575-.248.92v4.832zm8.178.159c-.735 0-1.37-.162-1.904-.487-.53-.328-.939-.786-1.228-1.372-.285-.59-.427-1.276-.427-2.059 0-.782.142-1.471.427-2.068.289-.6.69-1.067 1.204-1.402.517-.338 1.12-.507 1.809-.507.398 0 .791.066 1.178.199.388.133.741.348 1.059.646.319.295.572.686.761 1.174.189.487.283 1.087.283 1.799v.498h-5.886v-1.015h4.693c0-.431-.086-.815-.258-1.153-.169-.338-.411-.605-.726-.8-.312-.196-.68-.294-1.104-.294-.467 0-.872.116-1.213.348-.338.229-.598.527-.78.895-.183.368-.274.762-.274 1.183v.676c0 .577.1 1.066.298 1.467.203.398.483.701.841.91.358.205.774.308 1.247.308.309 0 .587-.043.836-.129.252-.09.469-.222.651-.398.182-.179.323-.401.423-.666l1.133.318c-.119.385-.32.723-.601 1.014-.282.289-.63.514-1.044.676-.415.16-.88.239-1.398.239zm10.356-6.085-1.054.298c-.066-.176-.164-.346-.293-.512-.126-.169-.298-.308-.517-.418-.219-.109-.499-.164-.84-.164-.468 0-.857.108-1.169.324-.308.212-.462.482-.462.81 0 .292.106.522.318.691s.544.31.995.423l1.133.278c.683.166 1.192.419 1.526.761.335.338.503.774.503 1.307 0 .438-.126.829-.378 1.173-.249.345-.597.617-1.044.816-.448.199-.968.298-1.561.298-.779 0-1.424-.169-1.934-.507-.511-.338-.834-.832-.97-1.482l1.114-.278c.106.411.306.719.601.925.299.205.688.308 1.169.308.547 0 .981-.116 1.302-.348.325-.235.487-.517.487-.845 0-.265-.092-.487-.278-.666-.186-.183-.471-.319-.855-.408l-1.273-.298c-.699-.166-1.213-.423-1.541-.771-.325-.351-.487-.79-.487-1.317 0-.431.121-.812.363-1.144.245-.331.578-.591.999-.78.424-.189.905-.284 1.442-.284.755 0 1.349.166 1.78.497.434.332.742.769.924 1.313zm7.315 0-1.054.298c-.066-.176-.164-.346-.294-.512-.125-.169-.298-.308-.517-.418-.218-.109-.498-.164-.84-.164-.467 0-.857.108-1.168.324-.308.212-.462.482-.462.81 0 .292.106.522.318.691s.543.31.994.423l1.134.278c.682.166 1.191.419 1.526.761.335.338.502.774.502 1.307 0 .438-.126.829-.378 1.173-.248.345-.596.617-1.044.816-.447.199-.968.298-1.561.298-.779 0-1.424-.169-1.934-.507s-.834-.832-.969-1.482l1.113-.278c.106.411.307.719.602.925.298.205.688.308 1.168.308.547 0 .981-.116 1.303-.348.324-.235.487-.517.487-.845 0-.265-.093-.487-.279-.666-.185-.183-.47-.319-.855-.408l-1.272-.298c-.7-.166-1.213-.423-1.542-.771-.324-.351-.487-.79-.487-1.317 0-.431.121-.812.363-1.144.245-.331.579-.591.999-.78.425-.189.905-.284 1.442-.284.756 0 1.349.166 1.78.497.434.332.742.769.925 1.313zm3.655 4.534-.079.537c-.057.378-.143.782-.259 1.213-.113.431-.23.837-.353 1.218s-.224.684-.303.91h-.895c.043-.212.099-.492.169-.84s.139-.738.209-1.169c.073-.427.132-.865.179-1.312l.059-.557zm-92.751 15.756v.994h-3.957v-.994zm-2.804-1.83h1.173v7.278c0 .332.048.581.144.746.1.163.226.272.378.328.156.053.32.08.492.08.13 0 .236-.007.319-.02.082-.017.149-.03.198-.04l.239 1.054c-.079.03-.19.06-.333.09-.143.033-.323.049-.542.049-.331 0-.656-.071-.974-.213-.315-.143-.577-.36-.786-.652-.205-.291-.308-.659-.308-1.103zm7.589 9.625c-.689 0-1.294-.164-1.815-.492-.517-.328-.921-.787-1.213-1.377-.288-.59-.432-1.28-.432-2.068 0-.796.144-1.49.432-2.084.292-.593.696-1.053 1.213-1.382.521-.328 1.126-.492 1.815-.492s1.293.164 1.81.492c.52.329.924.789 1.213 1.382.291.594.437 1.288.437 2.084 0 .788-.146 1.478-.437 2.068-.289.59-.693 1.049-1.213 1.377-.517.328-1.121.492-1.81.492zm0-1.054c.524 0 .955-.134 1.293-.403.338-.268.588-.621.75-1.059.163-.437.244-.911.244-1.421 0-.511-.081-.986-.244-1.427-.162-.441-.412-.797-.75-1.069s-.769-.408-1.293-.408-.955.136-1.293.408-.588.628-.75 1.069c-.163.441-.244.916-.244 1.427 0 .51.081.984.244 1.421.162.438.412.791.75 1.059.338.269.769.403 1.293.403zm6.345-1.889-.02-1.452h.239l3.341-3.4h1.451l-3.559 3.599h-.1zm-1.094 2.784v-10.182h1.174v10.182zm4.853 0-2.983-3.778.835-.816 3.639 4.594zm5.65.159c-.736 0-1.371-.162-1.904-.487-.531-.328-.94-.786-1.228-1.372-.285-.59-.428-1.276-.428-2.059 0-.782.143-1.471.428-2.068.288-.6.689-1.067 1.203-1.402.517-.338 1.12-.507 1.809-.507.398 0 .791.066 1.179.199s.74.348 1.059.646c.318.295.571.686.76 1.174.189.487.284 1.087.284 1.799v.498h-5.887v-1.015h4.694c0-.431-.087-.815-.259-1.153-.169-.338-.411-.605-.726-.8-.311-.196-.679-.294-1.104-.294-.467 0-.871.116-1.213.348-.338.229-.598.527-.78.895s-.274.762-.274 1.183v.676c0 .577.1 1.066.299 1.467.202.398.482.701.84.91.358.205.774.308 1.248.308.308 0 .586-.043.835-.129.252-.09.469-.222.651-.398.183-.179.323-.401.423-.666l1.133.318c-.119.385-.319.723-.601 1.014-.282.289-.63.514-1.044.676-.415.16-.88.239-1.397.239zm6.12-4.753v4.594h-1.173v-7.636h1.133v1.193h.099c.179-.388.451-.7.816-.935.364-.238.835-.358 1.412-.358.517 0 .969.106 1.357.318.388.209.689.527.905.955.215.424.323.961.323 1.611v4.852h-1.173v-4.773c0-.6-.156-1.067-.468-1.402-.311-.338-.739-.507-1.282-.507-.375 0-.71.081-1.005.244-.291.162-.522.399-.691.711-.169.311-.253.689-.253 1.133zm7.593 4.594h-1.293l3.739-10.182h1.272l3.739 10.182h-1.293l-3.042-8.571h-.08zm.477-3.977h5.21v1.093h-5.21zm11.29 4.136c-.636 0-1.198-.161-1.685-.482-.487-.325-.868-.782-1.143-1.372-.276-.594-.413-1.295-.413-2.103 0-.802.137-1.498.413-2.088.275-.59.657-1.046 1.148-1.368.491-.321 1.057-.482 1.7-.482.497 0 .89.083 1.179.249.291.162.513.348.666.557.156.205.277.374.363.507h.099v-3.759h1.173v10.182h-1.133v-1.173h-.139c-.086.139-.209.315-.368.527-.159.208-.386.396-.681.561-.295.163-.688.244-1.179.244zm.16-1.054c.47 0 .868-.123 1.193-.368.325-.248.571-.591.74-1.029.169-.441.254-.949.254-1.526 0-.57-.083-1.069-.249-1.497-.165-.431-.411-.765-.735-1.004-.325-.242-.726-.363-1.203-.363-.498 0-.912.128-1.243.383-.329.252-.575.595-.741 1.029-.163.431-.244.915-.244 1.452 0 .543.083 1.037.249 1.481.169.441.417.792.746 1.054.331.259.742.388 1.233.388zm8.536 1.054c-.637 0-1.198-.161-1.686-.482-.487-.325-.868-.782-1.143-1.372-.275-.594-.413-1.295-.413-2.103 0-.802.138-1.498.413-2.088s.658-1.046 1.148-1.368c.491-.321 1.058-.482 1.701-.482.497 0 .89.083 1.178.249.292.162.514.348.666.557.156.205.277.374.363.507h.099v-3.759h1.174v10.182h-1.134v-1.173h-.139c-.086.139-.209.315-.368.527-.159.208-.386.396-.681.561-.295.163-.688.244-1.178.244zm.159-1.054c.47 0 .868-.123 1.193-.368.325-.248.572-.591.741-1.029.169-.441.253-.949.253-1.526 0-.57-.083-1.069-.248-1.497-.166-.431-.411-.765-.736-1.004-.325-.242-.726-.363-1.203-.363-.497 0-.912.128-1.243.383-.328.252-.575.595-.741 1.029-.162.431-.243.915-.243 1.452 0 .543.082 1.037.248 1.481.169.441.418.792.746 1.054.331.259.742.388 1.233.388zm5.653.895v-7.636h1.133v1.153h.08c.139-.378.391-.684.755-.92.365-.235.776-.353 1.233-.353.086 0 .194.002.323.005.13.004.227.009.294.015v1.193c-.04-.01-.131-.024-.274-.044-.139-.024-.286-.035-.442-.035-.371 0-.703.078-.995.234-.288.152-.517.364-.686.636-.165.268-.248.575-.248.92v4.832zm8.178.159c-.736 0-1.371-.162-1.904-.487-.531-.328-.94-.786-1.228-1.372-.285-.59-.428-1.276-.428-2.059 0-.782.143-1.471.428-2.068.288-.6.689-1.067 1.203-1.402.517-.338 1.12-.507 1.809-.507.398 0 .791.066 1.179.199s.741.348 1.059.646c.318.295.571.686.76 1.174.189.487.284 1.087.284 1.799v.498h-5.887v-1.015h4.694c0-.431-.087-.815-.259-1.153-.169-.338-.411-.605-.726-.8-.311-.196-.679-.294-1.104-.294-.467 0-.871.116-1.213.348-.338.229-.598.527-.78.895s-.274.762-.274 1.183v.676c0 .577.1 1.066.299 1.467.202.398.482.701.84.91.358.205.774.308 1.248.308.308 0 .586-.043.835-.129.252-.09.469-.222.651-.398.183-.179.323-.401.423-.666l1.133.318c-.119.385-.319.723-.601 1.014-.282.289-.63.514-1.044.676-.414.16-.88.239-1.397.239zm10.356-6.085-1.054.298c-.067-.176-.164-.346-.294-.512-.126-.169-.298-.308-.517-.418-.218-.109-.499-.164-.84-.164-.467 0-.857.108-1.168.324-.308.212-.463.482-.463.81 0 .292.106.522.319.691.212.169.543.31.994.423l1.133.278c.683.166 1.192.419 1.527.761.334.338.502.774.502 1.307 0 .438-.126.829-.378 1.173-.249.345-.597.617-1.044.816-.448.199-.968.298-1.561.298-.779 0-1.424-.169-1.934-.507-.511-.338-.834-.832-.97-1.482l1.114-.278c.106.411.307.719.602.925.298.205.687.308 1.168.308.547 0 .981-.116 1.303-.348.324-.235.487-.517.487-.845 0-.265-.093-.487-.279-.666-.185-.183-.47-.319-.855-.408l-1.273-.298c-.699-.166-1.213-.423-1.541-.771-.325-.351-.487-.79-.487-1.317 0-.431.121-.812.363-1.144.245-.331.578-.591.999-.78.425-.189.905-.284 1.442-.284.756 0 1.349.166 1.78.497.434.332.742.769.925 1.313zm7.314 0-1.054.298c-.066-.176-.164-.346-.293-.512-.126-.169-.299-.308-.517-.418-.219-.109-.499-.164-.84-.164-.468 0-.857.108-1.169.324-.308.212-.462.482-.462.81 0 .292.106.522.318.691s.544.31.994.423l1.134.278c.683.166 1.191.419 1.526.761.335.338.502.774.502 1.307 0 .438-.126.829-.378 1.173-.248.345-.596.617-1.044.816-.447.199-.967.298-1.561.298-.779 0-1.423-.169-1.934-.507-.51-.338-.833-.832-.969-1.482l1.114-.278c.106.411.306.719.601.925.298.205.688.308 1.168.308.547 0 .981-.116 1.303-.348.325-.235.487-.517.487-.845 0-.265-.093-.487-.278-.666-.186-.183-.471-.319-.855-.408l-1.273-.298c-.699-.166-1.213-.423-1.541-.771-.325-.351-.487-.79-.487-1.317 0-.431.121-.812.362-1.144.246-.331.579-.591 1-.78.424-.189.905-.284 1.442-.284.755 0 1.348.166 1.779.497.435.332.743.769.925 1.313zm3.655 4.534-.079.537c-.056.378-.143.782-.259 1.213-.112.431-.23.837-.353 1.218-.122.381-.223.684-.303.91h-.895c.043-.212.1-.492.169-.84.07-.348.139-.738.209-1.169.073-.427.133-.865.179-1.312l.06-.557zm-90.468 23.551c-.636 0-1.198-.161-1.685-.482-.487-.325-.868-.782-1.143-1.372-.276-.594-.413-1.295-.413-2.103 0-.802.137-1.498.413-2.088.275-.59.657-1.046 1.148-1.368.491-.321 1.057-.482 1.7-.482.497 0 .89.083 1.179.249.291.162.513.348.666.557.156.205.276.374.363.507h.099v-3.759h1.173v10.182h-1.133v-1.173h-.139c-.087.139-.209.315-.368.527-.159.208-.386.396-.681.561-.295.163-.688.244-1.179.244zm.159-1.054c.471 0 .869-.123 1.194-.368.324-.248.571-.591.74-1.029.169-.441.254-.949.254-1.526 0-.57-.083-1.069-.249-1.497-.165-.431-.411-.765-.735-1.004-.325-.242-.726-.363-1.204-.363-.497 0-.911.128-1.242.383-.329.252-.575.595-.741 1.029-.163.431-.244.915-.244 1.452 0 .543.083 1.037.249 1.481.169.441.417.792.746 1.054.331.259.742.388 1.232.388zm8.855 1.054c-.736 0-1.371-.162-1.904-.487-.531-.328-.94-.786-1.228-1.372-.285-.59-.428-1.276-.428-2.059 0-.782.143-1.471.428-2.068.288-.6.689-1.067 1.203-1.402.517-.338 1.12-.507 1.81-.507.397 0 .79.066 1.178.199s.741.348 1.059.646c.318.295.572.686.76 1.174.189.487.284 1.087.284 1.799v.498h-5.887v-1.015h4.694c0-.431-.087-.815-.259-1.153-.169-.338-.411-.605-.726-.8-.311-.196-.679-.294-1.103-.294-.468 0-.872.116-1.214.348-.338.229-.598.527-.78.895s-.273.762-.273 1.183v.676c0 .577.099 1.066.298 1.467.202.398.482.701.84.91.358.205.774.308 1.248.308.308 0 .587-.043.835-.129.252-.09.469-.222.651-.398.183-.179.324-.401.423-.666l1.133.318c-.119.385-.319.723-.601 1.014-.282.289-.63.514-1.044.676-.414.16-.88.239-1.397.239zm6.12-10.341v10.182h-1.173v-10.182zm5.351 10.341c-.736 0-1.371-.162-1.905-.487-.53-.328-.939-.786-1.228-1.372-.285-.59-.427-1.276-.427-2.059 0-.782.142-1.471.427-2.068.289-.6.69-1.067 1.204-1.402.517-.338 1.12-.507 1.809-.507.398 0 .791.066 1.179.199.387.133.74.348 1.058.646.319.295.572.686.761 1.174.189.487.284 1.087.284 1.799v.498h-5.887v-1.015h4.693c0-.431-.086-.815-.258-1.153-.169-.338-.411-.605-.726-.8-.312-.196-.679-.294-1.104-.294-.467 0-.871.116-1.213.348-.338.229-.598.527-.78.895-.183.368-.274.762-.274 1.183v.676c0 .577.1 1.066.299 1.467.202.398.482.701.84.91.358.205.774.308 1.248.308.308 0 .586-.043.835-.129.252-.09.469-.222.651-.398.182-.179.323-.401.423-.666l1.133.318c-.119.385-.32.723-.601 1.014-.282.289-.63.514-1.044.676-.415.16-.88.239-1.397.239zm8.029 2.864c-.567 0-1.054-.073-1.462-.219-.408-.143-.747-.331-1.019-.567-.269-.232-.482-.48-.641-.746l.934-.656c.106.139.24.299.403.477.162.183.384.34.666.473.285.136.658.204 1.119.204.616 0 1.125-.15 1.526-.448s.602-.765.602-1.402v-1.551h-.1c-.086.139-.209.312-.368.517-.156.202-.381.383-.676.542-.292.156-.686.234-1.183.234-.617 0-1.17-.146-1.661-.438-.487-.291-.873-.716-1.158-1.273-.282-.556-.423-1.233-.423-2.028 0-.782.138-1.463.413-2.043.275-.584.658-1.034 1.148-1.353.491-.321 1.058-.482 1.701-.482.497 0 .891.083 1.183.249.295.162.52.348.676.557.159.205.282.374.368.507h.119v-1.213h1.134v7.855c0 .656-.149 1.19-.448 1.601-.295.414-.692.717-1.193.909-.497.196-1.05.294-1.66.294zm-.04-4.196c.471 0 .868-.108 1.193-.323.325-.216.572-.526.741-.93s.253-.888.253-1.452c0-.55-.082-1.036-.248-1.457-.166-.42-.411-.75-.736-.989s-.726-.358-1.203-.358c-.497 0-.912.126-1.243.378-.328.252-.575.59-.741 1.014-.162.424-.243.895-.243 1.412 0 .53.083.999.248 1.407.169.404.418.723.746.955.331.228.742.343 1.233.343zm7.736 1.352c-.484 0-.923-.091-1.318-.273-.394-.186-.707-.453-.939-.801-.232-.351-.348-.775-.348-1.273 0-.437.086-.792.258-1.064.172-.275.403-.49.691-.646.289-.156.607-.272.955-.348.351-.079.704-.142 1.059-.189.464-.059.84-.104 1.128-.134.292-.033.504-.088.637-.164.135-.076.203-.209.203-.398v-.04c0-.49-.134-.871-.402-1.143-.265-.272-.668-.408-1.208-.408-.56 0-1 .123-1.318.368s-.542.507-.671.786l-1.114-.398c.199-.464.464-.825.796-1.084.335-.262.699-.444 1.094-.547.397-.106.788-.159 1.173-.159.245 0 .527.03.845.09.322.056.631.174.93.353.301.179.552.449.75.81.199.361.299.845.299 1.452v5.031h-1.174v-1.034h-.059c-.08.166-.212.343-.398.532s-.432.35-.741.482c-.308.133-.684.199-1.128.199zm.179-1.054c.464 0 .855-.091 1.173-.273.321-.183.563-.418.726-.706.166-.289.248-.592.248-.91v-1.074c-.049.06-.159.114-.328.164-.165.046-.358.088-.576.124-.216.033-.426.063-.632.09-.202.023-.366.043-.492.059-.305.04-.59.105-.855.194-.262.086-.474.217-.636.393-.16.172-.239.408-.239.706 0 .408.151.716.452.925.305.205.691.308 1.159.308zm8.783-6.761v.994h-3.957v-.994zm-2.804-1.83h1.174v7.278c0 .332.048.581.144.746.099.163.225.272.378.328.155.053.319.08.492.08.129 0 .235-.007.318-.02.083-.017.149-.03.199-.04l.238 1.054c-.079.03-.19.06-.333.09-.142.033-.323.049-.542.049-.331 0-.656-.071-.974-.213-.315-.143-.577-.36-.785-.652-.206-.291-.309-.659-.309-1.103zm7.689 9.625c-.736 0-1.371-.162-1.904-.487-.531-.328-.94-.786-1.228-1.372-.285-.59-.428-1.276-.428-2.059 0-.782.143-1.471.428-2.068.288-.6.689-1.067 1.203-1.402.517-.338 1.12-.507 1.81-.507.397 0 .79.066 1.178.199s.741.348 1.059.646c.318.295.571.686.76 1.174.189.487.284 1.087.284 1.799v.498h-5.887v-1.015h4.694c0-.431-.087-.815-.259-1.153-.169-.338-.411-.605-.726-.8-.311-.196-.679-.294-1.103-.294-.468 0-.872.116-1.214.348-.338.229-.598.527-.78.895s-.274.762-.274 1.183v.676c0 .577.1 1.066.299 1.467.202.398.482.701.84.91.358.205.774.308 1.248.308.308 0 .586-.043.835-.129.252-.09.469-.222.651-.398.183-.179.324-.401.423-.666l1.133.318c-.119.385-.319.723-.601 1.014-.282.289-.63.514-1.044.676-.414.16-.88.239-1.397.239zm6.697-1.551-.08.537c-.056.378-.142.782-.258 1.213-.113.431-.231.837-.353 1.218-.123.381-.224.684-.304.91h-.895c.043-.212.1-.492.169-.84.07-.348.14-.738.209-1.169.073-.427.133-.865.179-1.312l.06-.557zm-57.39 23.571c-.484 0-.923-.091-1.317-.273-.395-.186-.708-.453-.94-.801-.232-.351-.348-.775-.348-1.273 0-.437.086-.792.258-1.064.173-.275.403-.49.691-.646.289-.156.607-.272.955-.348.351-.079.704-.142 1.059-.189.464-.059.84-.104 1.129-.134.291-.033.503-.088.636-.164.136-.076.204-.209.204-.398v-.04c0-.49-.135-.871-.403-1.143-.265-.272-.668-.408-1.208-.408-.56 0-.999.123-1.318.368-.318.245-.541.507-.671.786l-1.113-.398c.199-.464.464-.825.795-1.084.335-.262.699-.444 1.094-.547.398-.106.789-.159 1.173-.159.245 0 .527.03.845.09.322.056.632.174.93.353.302.179.552.449.751.81s.298.845.298 1.452v5.031h-1.173v-1.034h-.06c-.079.166-.212.343-.398.532-.185.189-.432.35-.74.482-.309.133-.685.199-1.129.199zm.179-1.054c.464 0 .855-.091 1.173-.273.322-.183.564-.418.726-.706.166-.289.249-.592.249-.91v-1.074c-.05.06-.159.114-.328.164-.166.046-.358.088-.577.124-.216.033-.426.063-.631.09-.203.023-.367.043-.493.059-.305.04-.59.105-.855.194-.262.086-.474.217-.636.393-.159.172-.239.408-.239.706 0 .408.151.716.453.925.305.205.691.308 1.158.308zm5.463.875v-7.636h1.133v1.193h.099c.16-.408.416-.724.771-.95.355-.228.781-.343 1.278-.343.504 0 .923.115 1.258.343.338.226.601.542.79.95h.08c.195-.395.488-.708.88-.94.391-.235.86-.353 1.407-.353.682 0 1.241.214 1.675.642.434.424.651 1.085.651 1.983v5.111h-1.173v-5.111c0-.563-.154-.966-.462-1.208-.309-.242-.672-.363-1.089-.363-.537 0-.953.163-1.248.487-.295.322-.443.73-.443 1.223v4.972h-1.193v-5.23c0-.434-.141-.784-.422-1.049-.282-.269-.645-.403-1.089-.403-.305 0-.59.081-.855.244-.262.162-.474.388-.637.676-.159.285-.238.615-.238.989v4.773zm15.27.159c-.69 0-1.294-.164-1.815-.492-.517-.328-.921-.787-1.213-1.377-.288-.59-.432-1.28-.432-2.068 0-.796.144-1.49.432-2.084.292-.593.696-1.053 1.213-1.382.521-.328 1.125-.492 1.815-.492.689 0 1.292.164 1.809.492.521.329.925.789 1.214 1.382.291.594.437 1.288.437 2.084 0 .788-.146 1.478-.437 2.068-.289.59-.693 1.049-1.214 1.377-.517.328-1.12.492-1.809.492zm0-1.054c.523 0 .954-.134 1.292-.403.338-.268.589-.621.751-1.059.163-.437.244-.911.244-1.421 0-.511-.081-.986-.244-1.427-.162-.441-.413-.797-.751-1.069s-.769-.408-1.292-.408c-.524 0-.955.136-1.293.408s-.588.628-.751 1.069c-.162.441-.243.916-.243 1.427 0 .51.081.984.243 1.421.163.438.413.791.751 1.059.338.269.769.403 1.293.403zm10.064-2.227v-4.514h1.173v7.636h-1.173v-1.293h-.08c-.179.388-.457.718-.835.99-.378.268-.855.402-1.432.402-.477 0-.902-.104-1.273-.313-.371-.212-.663-.53-.875-.954-.212-.428-.318-.966-.318-1.616v-4.852h1.173v4.772c0 .557.156 1.001.468 1.333.315.331.716.497 1.203.497.291 0 .588-.075.89-.224.305-.149.56-.378.765-.686.209-.308.314-.701.314-1.178zm4.495-1.472v4.594h-1.173v-7.636h1.133v1.193h.1c.179-.388.45-.7.815-.935.365-.238.835-.358 1.412-.358.517 0 .969.106 1.357.318.388.209.69.527.905.955.216.424.323.961.323 1.611v4.852h-1.173v-4.773c0-.6-.156-1.067-.467-1.402-.312-.338-.739-.507-1.283-.507-.375 0-.709.081-1.004.244-.292.162-.522.399-.691.711-.169.311-.254.689-.254 1.133zm10.337-3.042v.994h-3.957v-.994zm-2.804-1.83h1.174v7.278c0 .332.048.581.144.746.099.163.225.272.378.328.155.053.319.08.492.08.129 0 .235-.007.318-.02.083-.017.149-.03.199-.04l.238 1.054c-.079.03-.19.06-.333.09-.142.033-.323.049-.542.049-.331 0-.656-.071-.974-.213-.315-.143-.577-.36-.785-.652-.206-.291-.309-.659-.309-1.103zm6.319 8.074-.079.537c-.057.378-.143.782-.259 1.213-.113.431-.23.837-.353 1.218s-.224.684-.303.91h-.895c.043-.212.099-.492.169-.84s.139-.738.209-1.169c.073-.427.132-.865.179-1.312l.059-.557zm-46.161 17.466-1.054.298c-.066-.176-.164-.346-.293-.512-.126-.169-.299-.308-.517-.418-.219-.109-.499-.164-.841-.164-.467 0-.856.108-1.168.324-.308.212-.462.482-.462.81 0 .292.106.522.318.691s.543.31.994.423l1.134.278c.683.166 1.191.419 1.526.761.335.338.502.774.502 1.307 0 .438-.126.829-.378 1.173-.248.345-.596.617-1.044.816-.447.199-.968.298-1.561.298-.779 0-1.423-.169-1.934-.507-.51-.338-.833-.832-.969-1.482l1.113-.278c.106.411.307.719.602.925.298.205.688.308 1.168.308.547 0 .981-.116 1.303-.348.325-.235.487-.517.487-.845 0-.265-.093-.487-.278-.666-.186-.183-.471-.319-.855-.408l-1.273-.298c-.699-.166-1.213-.423-1.541-.771-.325-.351-.488-.79-.488-1.317 0-.431.121-.812.363-1.144.246-.331.579-.591 1-.78.424-.189.904-.284 1.441-.284.756 0 1.349.166 1.78.497.434.332.743.769.925 1.313zm3.079-4.256v10.182h-1.174v-10.182zm2.149 10.182v-7.636h1.173v7.636zm.596-8.909c-.229 0-.426-.078-.591-.234-.163-.156-.244-.343-.244-.562 0-.218.081-.406.244-.561.165-.156.362-.234.591-.234s.424.078.587.234c.166.155.248.343.248.561 0 .219-.082.406-.248.562-.163.156-.358.234-.587.234zm2.726 11.773v-10.5h1.133v1.213h.14c.086-.133.205-.302.358-.507.155-.209.377-.395.666-.557.291-.166.686-.249 1.183-.249.643 0 1.21.161 1.7.482.491.322.874.778 1.149 1.368s.412 1.286.412 2.088c0 .808-.137 1.509-.412 2.103-.275.59-.657 1.047-1.144 1.372-.487.321-1.049.482-1.685.482-.491 0-.883-.081-1.178-.244-.295-.165-.522-.353-.682-.561-.159-.212-.281-.388-.367-.527h-.1v4.037zm1.153-6.682c0 .577.085 1.085.254 1.526.169.438.416.781.741 1.029.324.245.722.368 1.193.368.49 0 .9-.129 1.228-.388.331-.262.58-.613.745-1.054.17-.444.254-.938.254-1.481 0-.537-.083-1.021-.249-1.452-.162-.434-.409-.777-.74-1.029-.328-.255-.741-.383-1.238-.383-.478 0-.879.121-1.203.363-.325.239-.57.573-.736 1.004-.166.428-.249.927-.249 1.497zm7.378 6.682v-10.5h1.134v1.213h.139c.086-.133.205-.302.358-.507.156-.209.378-.395.666-.557.292-.166.686-.249 1.183-.249.643 0 1.21.161 1.7.482.491.322.874.778 1.149 1.368s.413 1.286.413 2.088c0 .808-.138 1.509-.413 2.103-.275.59-.656 1.047-1.144 1.372-.487.321-1.049.482-1.685.482-.49 0-.883-.081-1.178-.244-.295-.165-.522-.353-.681-.561-.159-.212-.282-.388-.368-.527h-.1v4.037zm1.154-6.682c0 .577.084 1.085.253 1.526.169.438.416.781.741 1.029.325.245.722.368 1.193.368.491 0 .9-.129 1.228-.388.331-.262.58-.613.746-1.054.169-.444.253-.938.253-1.481 0-.537-.083-1.021-.248-1.452-.163-.434-.41-.777-.741-1.029-.328-.255-.741-.383-1.238-.383-.477 0-.878.121-1.203.363-.325.239-.57.573-.736 1.004-.166.428-.248.927-.248 1.497zm9.625 3.997c-.484 0-.924-.091-1.318-.273-.394-.186-.708-.453-.94-.801-.232-.351-.348-.775-.348-1.273 0-.437.087-.792.259-1.064.172-.275.403-.49.691-.646s.607-.272.955-.348c.351-.079.704-.142 1.058-.189.464-.059.841-.104 1.129-.134.292-.033.504-.088.636-.164.136-.076.204-.209.204-.398v-.04c0-.49-.134-.871-.402-1.143-.266-.272-.668-.408-1.209-.408-.56 0-.999.123-1.317.368s-.542.507-.671.786l-1.114-.398c.199-.464.464-.825.796-1.084.334-.262.699-.444 1.093-.547.398-.106.789-.159 1.174-.159.245 0 .527.03.845.09.321.056.631.174.93.353.301.179.551.449.75.81s.299.845.299 1.452v5.031h-1.174v-1.034h-.059c-.08.166-.213.343-.398.532-.186.189-.433.35-.741.482-.308.133-.684.199-1.128.199zm.178-1.054c.464 0 .856-.091 1.174-.273.321-.183.563-.418.726-.706.165-.289.248-.592.248-.91v-1.074c-.05.06-.159.114-.328.164-.166.046-.358.088-.577.124-.215.033-.426.063-.631.09-.202.023-.366.043-.492.059-.305.04-.59.105-.855.194-.262.086-.474.217-.637.393-.159.172-.238.408-.238.706 0 .408.15.716.452.925.305.205.691.308 1.158.308zm8.545 3.898c-.566 0-1.054-.073-1.461-.219-.408-.143-.748-.331-1.019-.567-.269-.232-.483-.48-.642-.746l.935-.656c.106.139.24.299.403.477.162.183.384.34.666.473.285.136.658.204 1.118.204.617 0 1.126-.15 1.527-.448s.601-.765.601-1.402v-1.551h-.099c-.086.139-.209.312-.368.517-.156.202-.381.383-.676.542-.292.156-.686.234-1.183.234-.617 0-1.17-.146-1.661-.438-.487-.291-.873-.716-1.158-1.273-.282-.556-.423-1.233-.423-2.028 0-.782.138-1.463.413-2.043.275-.584.658-1.034 1.148-1.353.491-.321 1.057-.482 1.7-.482.498 0 .892.083 1.184.249.295.162.52.348.676.557.159.205.282.374.368.507h.119v-1.213h1.134v7.855c0 .656-.15 1.19-.448 1.601-.295.414-.693.717-1.193.909-.497.196-1.051.294-1.661.294zm-.039-4.196c.47 0 .868-.108 1.193-.323.325-.216.572-.526.741-.93s.253-.888.253-1.452c0-.55-.083-1.036-.248-1.457-.166-.42-.411-.75-.736-.989s-.726-.358-1.203-.358c-.498 0-.912.126-1.243.378-.328.252-.575.59-.741 1.014-.162.424-.244.895-.244 1.412 0 .53.083.999.249 1.407.169.404.418.723.746.955.331.228.742.343 1.233.343zm8.69 1.332c-.736 0-1.371-.162-1.904-.487-.53-.328-.94-.786-1.228-1.372-.285-.59-.428-1.276-.428-2.059 0-.782.143-1.471.428-2.068.288-.6.689-1.067 1.203-1.402.517-.338 1.12-.507 1.81-.507.397 0 .79.066 1.178.199s.741.348 1.059.646c.318.295.572.686.761 1.174.188.487.283 1.087.283 1.799v.498h-5.886v-1.015h4.693c0-.431-.086-.815-.259-1.153-.169-.338-.411-.605-.726-.8-.311-.196-.679-.294-1.103-.294-.468 0-.872.116-1.213.348-.338.229-.599.527-.781.895s-.273.762-.273 1.183v.676c0 .577.099 1.066.298 1.467.202.398.482.701.84.91.358.205.774.308 1.248.308.308 0 .587-.043.835-.129.252-.09.469-.222.651-.398.183-.179.324-.401.423-.666l1.134.318c-.12.385-.32.723-.602 1.014-.282.289-.63.514-1.044.676-.414.16-.88.239-1.397.239zm6.697-1.551-.08.537c-.056.378-.142.782-.258 1.213-.113.431-.231.837-.353 1.218-.123.381-.224.684-.304.91h-.894c.043-.212.099-.492.169-.84.069-.348.139-.738.208-1.169.073-.427.133-.865.179-1.312l.06-.557zm-54.238 23.551c-.716 0-1.332-.169-1.849-.507s-.915-.804-1.193-1.397c-.279-.593-.418-1.271-.418-2.033 0-.776.142-1.46.427-2.054.289-.596.69-1.062 1.204-1.397.517-.338 1.12-.507 1.809-.507.537 0 1.021.1 1.452.298.431.199.784.478 1.059.836s.446.775.512 1.253h-1.173c-.09-.348-.289-.657-.597-.925-.305-.272-.716-.408-1.233-.408-.457 0-.858.119-1.203.358-.341.235-.608.569-.8.999-.189.428-.284.93-.284 1.507 0 .59.093 1.104.279 1.541.189.438.454.777.795 1.019.345.242.749.363 1.213.363.305 0 .582-.053.83-.159.249-.106.459-.258.632-.457.172-.199.295-.438.368-.716h1.173c-.066.45-.23.856-.492 1.218-.259.358-.602.643-1.029.855-.425.209-.918.313-1.482.313zm6.965.02c-.484 0-.923-.091-1.317-.273-.395-.186-.708-.453-.94-.801-.232-.351-.348-.775-.348-1.273 0-.437.086-.792.259-1.064.172-.275.402-.49.691-.646.288-.156.606-.272.954-.348.352-.079.705-.142 1.059-.189.464-.059.84-.104 1.129-.134.292-.033.504-.088.636-.164.136-.076.204-.209.204-.398v-.04c0-.49-.134-.871-.403-1.143-.265-.272-.668-.408-1.208-.408-.56 0-.999.123-1.317.368s-.542.507-.671.786l-1.114-.398c.199-.464.464-.825.795-1.084.335-.262.7-.444 1.094-.547.398-.106.789-.159 1.173-.159.246 0 .527.03.846.09.321.056.631.174.929.353.302.179.552.449.751.81s.298.845.298 1.452v5.031h-1.173v-1.034h-.06c-.079.166-.212.343-.397.532-.186.189-.433.35-.741.482-.308.133-.685.199-1.129.199zm.179-1.054c.464 0 .855-.091 1.174-.273.321-.183.563-.418.725-.706.166-.289.249-.592.249-.91v-1.074c-.05.06-.159.114-.328.164-.166.046-.358.088-.577.124-.215.033-.426.063-.631.09-.202.023-.366.043-.492.059-.305.04-.59.105-.855.194-.262.086-.474.217-.637.393-.159.172-.238.408-.238.706 0 .408.15.716.452.925.305.205.691.308 1.158.308zm6.636-9.307v10.182h-1.173v-10.182zm3.322 0v10.182h-1.173v-10.182zm5.451 10.182h-3.143v-10.182h3.282c.987 0 1.833.204 2.535.612.703.404 1.241.986 1.616 1.745.375.755.562 1.66.562 2.714 0 1.061-.189 1.974-.567 2.74-.378.762-.928 1.349-1.651 1.759-.722.408-1.6.612-2.634.612zm-1.91-1.094h1.83c.842 0 1.54-.162 2.093-.487.554-.325.966-.787 1.238-1.387s.408-1.314.408-2.143c0-.822-.135-1.529-.403-2.123-.269-.596-.67-1.054-1.203-1.372-.534-.321-1.198-.482-1.994-.482h-1.969zm10.918 1.273c-.484 0-.923-.091-1.317-.273-.395-.186-.708-.453-.94-.801-.232-.351-.348-.775-.348-1.273 0-.437.086-.792.258-1.064.173-.275.403-.49.691-.646.289-.156.607-.272.955-.348.351-.079.704-.142 1.059-.189.464-.059.84-.104 1.129-.134.291-.033.503-.088.636-.164.136-.076.204-.209.204-.398v-.04c0-.49-.134-.871-.403-1.143-.265-.272-.668-.408-1.208-.408-.56 0-.999.123-1.318.368-.318.245-.541.507-.671.786l-1.113-.398c.199-.464.464-.825.795-1.084.335-.262.699-.444 1.094-.547.398-.106.789-.159 1.173-.159.245 0 .527.03.845.09.322.056.632.174.93.353.302.179.552.449.751.81s.298.845.298 1.452v5.031h-1.173v-1.034h-.06c-.079.166-.212.343-.398.532-.185.189-.432.35-.74.482-.309.133-.685.199-1.129.199zm.179-1.054c.464 0 .855-.091 1.173-.273.322-.183.564-.418.726-.706.166-.289.249-.592.249-.91v-1.074c-.05.06-.159.114-.328.164-.166.046-.358.088-.577.124-.216.033-.426.063-.631.09-.203.023-.367.043-.493.059-.305.04-.59.105-.855.194-.262.086-.474.217-.636.393-.159.172-.239.408-.239.706 0 .408.151.716.453.925.305.205.691.308 1.158.308zm8.784-6.761v.994h-3.958v-.994zm-2.804-1.83h1.173v7.278c0 .332.048.581.144.746.1.163.225.272.378.328.156.053.32.08.492.08.129 0 .235-.007.318-.02.083-.017.149-.03.199-.04l.239 1.054c-.08.03-.191.06-.333.09-.143.033-.323.049-.542.049-.332 0-.656-.071-.975-.213-.315-.143-.576-.36-.785-.652-.206-.291-.308-.659-.308-1.103zm6.816 9.645c-.484 0-.923-.091-1.318-.273-.394-.186-.707-.453-.939-.801-.232-.351-.348-.775-.348-1.273 0-.437.086-.792.258-1.064.172-.275.403-.49.691-.646s.607-.272.955-.348c.351-.079.704-.142 1.059-.189.464-.059.84-.104 1.128-.134.292-.033.504-.088.637-.164.135-.076.203-.209.203-.398v-.04c0-.49-.134-.871-.402-1.143-.265-.272-.668-.408-1.208-.408-.561 0-1 .123-1.318.368s-.542.507-.671.786l-1.114-.398c.199-.464.464-.825.796-1.084.334-.262.699-.444 1.093-.547.398-.106.789-.159 1.174-.159.245 0 .527.03.845.09.321.056.631.174.93.353.301.179.551.449.75.81s.299.845.299 1.452v5.031h-1.174v-1.034h-.059c-.08.166-.212.343-.398.532s-.433.35-.741.482c-.308.133-.684.199-1.128.199zm.179-1.054c.464 0 .855-.091 1.173-.273.321-.183.563-.418.726-.706.165-.289.248-.592.248-.91v-1.074c-.049.06-.159.114-.328.164-.165.046-.358.088-.576.124-.216.033-.426.063-.632.09-.202.023-.366.043-.492.059-.305.04-.59.105-.855.194-.262.086-.474.217-.637.393-.159.172-.238.408-.238.706 0 .408.151.716.452.925.305.205.691.308 1.159.308zm7.212-.517-.079.537c-.057.378-.143.782-.259 1.213-.113.431-.23.837-.353 1.218s-.224.684-.303.91h-.895c.043-.212.099-.492.169-.84s.139-.738.209-1.169c.073-.427.132-.865.179-1.312l.059-.557zm-68.273 19.097c0 1.252-.165 2.406-.493 3.46-.324 1.05-.79 2.018-1.397 2.903h-1.034c.239-.328.461-.732.666-1.213.209-.477.392-1.001.547-1.571.156-.573.277-1.165.363-1.775.09-.613.134-1.214.134-1.804 0-.789-.076-1.59-.228-2.402-.153-.812-.358-1.566-.617-2.262-.258-.696-.547-1.263-.865-1.7h1.034c.607.885 1.073 1.854 1.397 2.908.328 1.051.493 2.203.493 3.456zm8.254 2.903-.08.537c-.056.378-.142.782-.258 1.213-.113.431-.231.837-.353 1.218-.123.381-.224.684-.304.91h-.895c.044-.212.1-.492.169-.84.07-.348.14-.738.209-1.169.073-.427.133-.865.179-1.312l.06-.557zm-.716-4.196c-.246 0-.456-.088-.632-.264-.175-.175-.263-.386-.263-.631s.088-.456.263-.631c.176-.176.386-.264.632-.264.245 0 .455.088.631.264.176.175.264.386.264.631 0 .162-.042.312-.125.447-.079.136-.187.246-.323.329-.132.079-.282.119-.447.119z" fill="#fff"/><path d="m262.947 269.364 1.829 3.122 1.83-3.122h1.352l-2.466 3.818 2.466 3.818h-1.352l-1.83-2.963-1.829 2.963h-1.352l2.426-3.818-2.426-3.818zm9.473 7.795c-.716 0-1.332-.169-1.849-.507s-.915-.804-1.193-1.397c-.279-.593-.418-1.271-.418-2.033 0-.776.143-1.46.428-2.054.288-.596.689-1.062 1.203-1.397.517-.338 1.12-.507 1.809-.507.537 0 1.021.1 1.452.298.431.199.784.478 1.059.836s.446.775.512 1.253h-1.173c-.09-.348-.289-.657-.597-.925-.305-.272-.716-.408-1.233-.408-.457 0-.858.119-1.203.358-.341.235-.608.569-.8.999-.189.428-.284.93-.284 1.507 0 .59.093 1.104.279 1.541.189.438.454.777.795 1.019.345.242.749.363 1.213.363.305 0 .582-.053.831-.159.248-.106.459-.258.631-.457s.295-.438.368-.716h1.173c-.066.45-.23.856-.492 1.218-.259.358-.602.643-1.029.855-.424.209-.918.313-1.482.313zm6.965.02c-.483 0-.923-.091-1.317-.273-.394-.186-.708-.453-.94-.801-.232-.351-.348-.775-.348-1.273 0-.437.087-.792.259-1.064.172-.275.403-.49.691-.646s.606-.272.954-.348c.352-.079.705-.142 1.059-.189.464-.059.841-.104 1.129-.134.292-.033.504-.088.636-.164.136-.076.204-.209.204-.398v-.04c0-.49-.134-.871-.403-1.143-.265-.272-.667-.408-1.208-.408-.56 0-.999.123-1.317.368s-.542.507-.671.786l-1.114-.398c.199-.464.464-.825.796-1.084.334-.262.699-.444 1.093-.547.398-.106.789-.159 1.174-.159.245 0 .527.03.845.09.321.056.631.174.929.353.302.179.552.449.751.81s.298.845.298 1.452v5.031h-1.173v-1.034h-.059c-.08.166-.213.343-.398.532-.186.189-.433.35-.741.482-.308.133-.684.199-1.129.199zm.179-1.054c.464 0 .856-.091 1.174-.273.321-.183.563-.418.726-.706.165-.289.248-.592.248-.91v-1.074c-.05.06-.159.114-.328.164-.166.046-.358.088-.577.124-.215.033-.426.063-.631.09-.202.023-.366.043-.492.059-.305.04-.59.105-.855.194-.262.086-.474.217-.637.393-.159.172-.238.408-.238.706 0 .408.15.716.452.925.305.205.691.308 1.158.308zm6.636-9.307v10.182h-1.173v-10.182zm3.323 0v10.182h-1.174v-10.182z" fill="#ffbd2e"/><path d="m306.926 269.364-2.824 7.636h-1.193l-2.824-7.636h1.272l2.108 6.085h.08l2.108-6.085zm3.563 7.815c-.484 0-.923-.091-1.317-.273-.395-.186-.708-.453-.94-.801-.232-.351-.348-.775-.348-1.273 0-.437.086-.792.258-1.064.173-.275.403-.49.691-.646.289-.156.607-.272.955-.348.351-.079.704-.142 1.059-.189.464-.059.84-.104 1.128-.134.292-.033.504-.088.637-.164.136-.076.204-.209.204-.398v-.04c0-.49-.135-.871-.403-1.143-.265-.272-.668-.408-1.208-.408-.56 0-.999.123-1.318.368-.318.245-.541.507-.671.786l-1.113-.398c.198-.464.464-.825.795-1.084.335-.262.699-.444 1.094-.547.398-.106.789-.159 1.173-.159.245 0 .527.03.845.09.322.056.632.174.93.353.302.179.552.449.751.81s.298.845.298 1.452v5.031h-1.173v-1.034h-.06c-.08.166-.212.343-.398.532-.185.189-.432.35-.74.482-.309.133-.685.199-1.129.199zm.179-1.054c.464 0 .855-.091 1.173-.273.322-.183.564-.418.726-.706.166-.289.249-.592.249-.91v-1.074c-.05.06-.159.114-.328.164-.166.046-.358.088-.577.124-.216.033-.426.063-.632.09-.202.023-.366.043-.492.059-.305.04-.59.105-.855.194-.262.086-.474.217-.636.393-.159.172-.239.408-.239.706 0 .408.151.716.453.925.305.205.691.308 1.158.308zm6.636-9.307v10.182h-1.173v-10.182zm6.961 7.06v-4.514h1.174v7.636h-1.174v-1.293h-.079c-.179.388-.458.718-.836.99-.377.268-.855.402-1.431.402-.478 0-.902-.104-1.273-.313-.371-.212-.663-.53-.875-.954-.212-.428-.318-.966-.318-1.616v-4.852h1.173v4.772c0 .557.156 1.001.467 1.333.315.331.716.497 1.204.497.291 0 .588-.075.889-.224.305-.149.561-.378.766-.686.209-.308.313-.701.313-1.178zm6.524 3.281c-.736 0-1.37-.162-1.904-.487-.53-.328-.94-.786-1.228-1.372-.285-.59-.427-1.276-.427-2.059 0-.782.142-1.471.427-2.068.288-.6.69-1.067 1.203-1.402.517-.338 1.121-.507 1.81-.507.398 0 .79.066 1.178.199s.741.348 1.059.646c.318.295.572.686.761 1.174.189.487.283 1.087.283 1.799v.498h-5.886v-1.015h4.693c0-.431-.086-.815-.259-1.153-.169-.338-.411-.605-.725-.8-.312-.196-.68-.294-1.104-.294-.467 0-.872.116-1.213.348-.338.229-.598.527-.781.895-.182.368-.273.762-.273 1.183v.676c0 .577.099 1.066.298 1.467.202.398.482.701.84.91.358.205.774.308 1.248.308.308 0 .587-.043.835-.129.252-.09.469-.222.652-.398.182-.179.323-.401.422-.666l1.134.318c-.119.385-.32.723-.602 1.014-.281.289-.629.514-1.044.676-.414.16-.88.239-1.397.239z" fill="#a6cafa"/><circle cx="197" cy="246" fill="#ff5f56" r="3"/><circle cx="207" cy="246" fill="#ffbd2e" r="3"/><circle cx="217" cy="246" fill="#27c93f" r="3"/><path d="m329.5 131v102" opacity=".4" stroke="#fff" stroke-dasharray="5.5 5.5"/></svg>