<svg width="56" height="74" viewBox="0 0 56 74" fill="none" xmlns="http://www.w3.org/2000/svg">
<path fill-rule="evenodd" clip-rule="evenodd" d="M19.0667 0.656836C19.9959 0.832967 21.5542 1.37157 22.53 1.85337C24.7734 2.96153 28.3636 6.48573 30.3332 9.51313C32.7984 13.3019 36.2897 20.2255 36.2897 21.3251C36.2897 23.7006 33.4024 24.944 31.6685 23.3151C31.2241 22.8975 30.1277 21.1821 29.2321 19.5028C26.0624 13.5591 22.7495 8.91582 20.5275 7.30257C18.4245 5.77579 15.7688 6.21356 14.2574 8.33638C13.3171 9.65672 13.0911 13.9554 13.0628 31.0837L13.0407 44.1222L12.3254 44.8838C11.3107 45.9639 9.12794 45.953 8.03735 44.8621L7.25403 44.0791L7.25754 26.5949C7.26105 7.95319 7.29646 7.47583 8.85673 4.95161C10.1697 2.82656 12.5953 1.1865 15.2309 0.640881C16.8658 0.30266 17.2059 0.303937 19.0667 0.656836ZM48.0217 1.54897L48.746 2.41048L48.6566 19.9597C48.5529 40.3631 48.6445 39.6889 45.5555 42.7974C41.7123 46.6646 36.1793 46.6738 31.092 42.8216C27.9012 40.4055 25.3735 36.9085 21.337 29.324C18.9158 24.7752 19.107 22.6157 21.9716 22.1508C23.5631 21.8927 24.4304 22.7606 26.7089 26.8923C31.7145 35.9688 35.172 39.9021 38.1441 39.9021C39.3534 39.9021 41.0362 38.7444 41.8562 37.3485C42.4912 36.2674 42.5148 35.7065 42.6172 19.3216C42.7305 1.15718 42.7136 1.33806 44.3648 0.648219C45.5007 0.173751 47.2224 0.597804 48.0217 1.54897Z" fill="#999999"/>
<path d="M8.76802 60.6611H6.4354L2.67007 54.1132H2.61679C2.63258 54.3856 2.64639 54.6599 2.65823 54.9362C2.67007 55.2125 2.68191 55.4887 2.69375 55.765C2.70559 56.0374 2.71743 56.3117 2.72927 56.5879V60.6611H1.08934V52.0056H3.40419L7.16361 58.4884H7.20505C7.19715 58.22 7.18729 57.9536 7.17545 57.6891C7.16361 57.4247 7.15176 57.1602 7.13992 56.8958C7.13203 56.6314 7.12414 56.3669 7.11624 56.1025V52.0056H8.76802V60.6611ZM18.6877 56.3215C18.6877 56.9886 18.6048 57.5964 18.439 58.145C18.2732 58.6897 18.0206 59.1593 17.6812 59.554C17.3457 59.9487 16.9194 60.2526 16.4024 60.4658C15.8854 60.6749 15.2736 60.7795 14.5671 60.7795C13.8606 60.7795 13.2488 60.6749 12.7318 60.4658C12.2148 60.2526 11.7865 59.9487 11.4471 59.554C11.1116 59.1593 10.861 58.6877 10.6952 58.1391C10.5294 57.5905 10.4466 56.9807 10.4466 56.3097C10.4466 55.4137 10.5926 54.6342 10.8847 53.9712C11.1807 53.3041 11.6346 52.7871 12.2463 52.42C12.8581 52.053 13.6356 51.8694 14.5789 51.8694C15.5183 51.8694 16.2899 52.053 16.8938 52.42C17.5016 52.7871 17.9516 53.3041 18.2436 53.9712C18.5396 54.6382 18.6877 55.4216 18.6877 56.3215ZM12.3707 56.3215C12.3707 56.9254 12.4456 57.4464 12.5956 57.8845C12.7496 58.3187 12.9883 58.6541 13.312 58.891C13.6356 59.1238 14.054 59.2403 14.5671 59.2403C15.0881 59.2403 15.5104 59.1238 15.8341 58.891C16.1577 58.6541 16.3925 58.3187 16.5386 57.8845C16.6886 57.4464 16.7635 56.9254 16.7635 56.3215C16.7635 55.4137 16.5938 54.6994 16.2544 54.1784C15.915 53.6574 15.3565 53.3969 14.5789 53.3969C14.0619 53.3969 13.6396 53.5153 13.312 53.7521C12.9883 53.985 12.7496 54.3205 12.5956 54.7586C12.4456 55.1927 12.3707 55.7137 12.3707 56.3215ZM23.3886 60.6611V52.0056H25.2239V59.1455H28.7347V60.6611H23.3886ZM30.1231 60.6611V52.0056H31.9584V60.6611H30.1231ZM37.6806 60.6611L35.5966 53.8705H35.5433C35.5512 54.0323 35.5631 54.277 35.5788 54.6046C35.5986 54.9283 35.6163 55.2736 35.6321 55.6407C35.6479 56.0077 35.6558 56.3393 35.6558 56.6353V60.6611H34.0159V52.0056H36.5143L38.5627 58.6245H38.5982L40.771 52.0056H43.2694V60.6611H41.5584V56.5643C41.5584 56.2919 41.5623 55.9781 41.5702 55.6229C41.5821 55.2677 41.5959 54.9302 41.6117 54.6106C41.6275 54.2869 41.6393 54.0442 41.6472 53.8823H41.5939L39.3619 60.6611H37.6806ZM45.3327 60.6611V52.0056H47.168V60.6611H45.3327ZM52.5645 60.6611H50.7292V53.533H48.3788V52.0056H54.9149V53.533H52.5645V60.6611Z" fill="#999999"/>
<path d="M7.10066 69.8721H6.52296V65.8338H1.7331V69.8721H1.1554V61.6721H1.7331V65.3066H6.52296V61.6721H7.10066V69.8721ZM16.0917 65.7609C16.0917 66.3853 16.015 66.9555 15.8617 67.4715C15.7084 67.9875 15.4785 68.4325 15.1719 68.8064C14.8653 69.1803 14.482 69.4701 14.0221 69.6758C13.5659 69.8814 13.0331 69.9842 12.4236 69.9842C11.8104 69.9842 11.2738 69.8814 10.8139 69.6758C10.354 69.4701 9.97069 69.1803 9.66408 68.8064C9.36121 68.4288 9.13312 67.9819 8.97982 67.4659C8.82651 66.9462 8.74986 66.3741 8.74986 65.7496C8.74986 64.9196 8.89008 64.1885 9.17051 63.5566C9.45469 62.9247 9.8716 62.4311 10.4213 62.0759C10.9747 61.7207 11.6571 61.5431 12.4685 61.5431C13.2462 61.5431 13.9043 61.7132 14.4427 62.0535C14.9849 62.39 15.3943 62.8742 15.671 63.5062C15.9515 64.1343 16.0917 64.8859 16.0917 65.7609ZM9.3556 65.7553C9.3556 66.4881 9.46591 67.135 9.68652 67.6959C9.90713 68.253 10.2455 68.6886 10.7017 69.0027C11.1579 69.3168 11.7337 69.4738 12.4292 69.4738C13.1322 69.4738 13.7099 69.3187 14.1623 69.0083C14.6147 68.698 14.9494 68.2642 15.1663 67.7071C15.3831 67.15 15.4916 66.5012 15.4916 65.7609C15.4916 64.5905 15.2354 63.6819 14.7232 63.035C14.2146 62.3881 13.4631 62.0647 12.4685 62.0647C11.7692 62.0647 11.1878 62.2199 10.7241 62.5302C10.2642 62.8406 9.92021 63.2725 9.69212 63.8259C9.46778 64.3792 9.3556 65.0224 9.3556 65.7553ZM17.7465 69.8721V61.6721H18.3242V69.3448H22.2279V69.8721H17.7465ZM29.6429 65.6936C29.6429 66.6097 29.4802 67.3781 29.1549 67.9988C28.8333 68.6195 28.3547 69.0868 27.7191 69.4009C27.0871 69.715 26.3038 69.8721 25.369 69.8721H23.4059V61.6721H25.627C26.502 61.6721 27.2367 61.8254 27.8312 62.132C28.4258 62.4386 28.8763 62.8911 29.1829 63.4893C29.4895 64.0839 29.6429 64.8186 29.6429 65.6936ZM29.0371 65.716C29.0371 64.9345 28.91 64.282 28.6557 63.7585C28.4015 63.2351 28.0126 62.8425 27.4891 62.5807C26.9656 62.3152 26.3019 62.1825 25.498 62.1825H23.9836V69.3617H25.341C26.5786 69.3617 27.5041 69.0588 28.1173 68.4531C28.7305 67.8436 29.0371 66.9312 29.0371 65.716ZM31.2864 69.8721V61.6721H31.8641V69.8721H31.2864ZM39.9185 69.8721H39.3296L34.4836 62.62H34.4556C34.4631 62.8219 34.4687 63.0275 34.4724 63.2369C34.4799 63.4426 34.4855 63.6557 34.4893 63.8763C34.4967 64.0932 34.5005 64.3175 34.5005 64.5494V69.8721H33.9508V61.6721H34.5453L39.3745 68.9018H39.4025C39.3988 68.7372 39.3932 68.5465 39.3857 68.3297C39.3819 68.1128 39.3763 67.8903 39.3689 67.6622C39.3651 67.4341 39.3632 67.2191 39.3632 67.0172V61.6721H39.9185V69.8721ZM45.247 65.7328H48.2589V69.4963C47.8663 69.6608 47.4475 69.7842 47.0026 69.8665C46.5576 69.945 46.0846 69.9842 45.5836 69.9842C44.7123 69.9842 43.9776 69.8197 43.3793 69.4907C42.7848 69.1579 42.3342 68.6774 42.0276 68.0492C41.721 67.4211 41.5677 66.6657 41.5677 65.7833C41.5677 64.9607 41.7341 64.2297 42.0669 63.5903C42.4034 62.9509 42.8839 62.4498 43.5083 62.0871C44.1328 61.7244 44.8806 61.5431 45.7518 61.5431C46.2005 61.5431 46.623 61.5842 47.0194 61.6665C47.4195 61.7487 47.799 61.8721 48.158 62.0367L47.928 62.5527C47.5728 62.3881 47.2101 62.2648 46.8399 62.1825C46.4735 62.1002 46.1014 62.0591 45.7238 62.0591C44.9834 62.0591 44.3459 62.218 43.8112 62.5358C43.2802 62.8499 42.8727 63.2874 42.5885 63.8483C42.3081 64.4054 42.1678 65.0486 42.1678 65.7777C42.1678 66.604 42.3043 67.2902 42.5773 67.8361C42.8502 68.382 43.2485 68.7915 43.7719 69.0644C44.2992 69.3374 44.9386 69.4738 45.6901 69.4738C46.1014 69.4738 46.4697 69.4439 46.7951 69.3841C47.1241 69.3243 47.4214 69.2458 47.6868 69.1485V66.26H45.247V65.7328ZM54.6082 67.7576C54.6082 68.2474 54.4849 68.6587 54.2381 68.9915C53.9913 69.3205 53.6566 69.5692 53.2341 69.7375C52.8116 69.902 52.333 69.9842 51.7983 69.9842C51.4655 69.9842 51.1626 69.9674 50.8897 69.9338C50.6204 69.9039 50.3755 69.8627 50.1549 69.8104C49.938 69.758 49.7399 69.6982 49.5604 69.6309V69.0532C49.852 69.1654 50.1886 69.2645 50.57 69.3505C50.9551 69.4327 51.3739 69.4738 51.8263 69.4738C52.2526 69.4738 52.6302 69.4122 52.9593 69.2888C53.2921 69.1654 53.5538 68.9784 53.7445 68.7279C53.9352 68.4774 54.0305 68.1614 54.0305 67.78C54.0305 67.4435 53.9502 67.1687 53.7894 66.9555C53.6323 66.7387 53.3949 66.5536 53.0771 66.4003C52.7592 66.2432 52.3591 66.0843 51.8768 65.9235C51.5403 65.8076 51.2337 65.6861 50.957 65.559C50.684 65.4281 50.4503 65.2785 50.2559 65.1103C50.0614 64.9383 49.9119 64.7326 49.8072 64.4933C49.7062 64.2502 49.6557 63.9642 49.6557 63.6352C49.6557 63.1827 49.7698 62.8032 49.9979 62.4966C50.2297 62.1862 50.5419 61.9525 50.9345 61.7955C51.3309 61.6347 51.7758 61.5543 52.2694 61.5543C52.662 61.5543 53.0341 61.5917 53.3855 61.6665C53.7408 61.7375 54.0829 61.846 54.4119 61.9918L54.21 62.491C53.881 62.3489 53.5519 62.2442 53.2229 62.1769C52.8938 62.1096 52.5685 62.0759 52.247 62.0759C51.8618 62.0759 51.5178 62.1339 51.215 62.2498C50.9158 62.362 50.6784 62.5321 50.5027 62.7602C50.3269 62.9883 50.239 63.2762 50.239 63.6239C50.239 63.9829 50.3194 64.2727 50.4802 64.4933C50.6447 64.7139 50.8766 64.8971 51.1757 65.0429C51.4786 65.1888 51.8357 65.3309 52.247 65.4692C52.7331 65.6337 53.1518 65.8076 53.5033 65.9908C53.8548 66.1703 54.1259 66.3984 54.3166 66.6751C54.511 66.9518 54.6082 67.3126 54.6082 67.7576Z" fill="#999999"/>
</svg>
