<svg width="211" height="59" viewBox="0 0 211 59" fill="none" xmlns="http://www.w3.org/2000/svg">
<path d="M24.32 10L10 19.49V47.01L17.16 42.27V28.51L24.32 23.76V10Z" fill="#999999"/>
<path d="M27.13 23.76L51.62 28.51L27.13 10V23.76Z" fill="#999999"/>
<path d="M19.97 42.2698L44.46 47.0098L19.97 28.5098V42.2698Z" fill="#999999"/>
<path d="M27.13 10L51.62 28.51V14.74L27.13 10Z" fill="#999999"/>
<path d="M19.97 28.5098L44.46 33.2498V47.0098L19.97 28.5098Z" fill="#999999"/>
<path d="M61.43 12.6296H72.03V16.0996H64.13V19.6197H71.26V22.9096H64.13V30.1296H60.52V12.6296H61.43ZM76.85 12.6296H88.18V16.0996H80.32V19.6197H87.45V22.8597H80.32V26.5097C80.38 26.6397 80.49 26.6897 80.64 26.6497H88.86V30.1197H76.71V12.6197H76.85V12.6296ZM94.97 12.5797H98.85L99.03 12.8997L99.21 13.1697L99.39 13.4396L99.57 13.7097L99.75 13.9797L99.89 14.1197L99.94 14.2597C99.94 14.2597 99.99 14.3196 99.99 14.3496C100.21 14.5896 100.36 14.8096 100.45 15.0396C100.67 15.2796 100.82 15.4997 100.91 15.7297L101.09 15.9597L101.27 16.2297C101.35 16.3697 101.43 16.4697 101.5 16.5497L101.55 16.6896C101.66 16.8096 101.74 16.9297 101.78 17.0597C102.08 17.3997 102.3 17.7197 102.42 18.0197L102.6 18.2896C102.6 18.2896 102.65 18.3496 102.65 18.3796C102.88 18.6396 103.05 18.8696 103.15 19.0696L103.33 19.3397L103.47 19.6097L103.65 19.8796L103.83 20.0597L103.97 20.2896L104.06 20.5197C104.26 20.7197 104.4 20.9197 104.47 21.1097L104.61 21.2896L104.7 21.4696L104.84 21.6097C104.98 21.8197 105.09 22.0096 105.16 22.1596L105.3 22.2997L105.39 22.4396L105.44 22.5797L105.53 22.6296C105.63 22.8496 105.74 23.0196 105.85 23.1296L105.9 23.2697C105.9 23.2697 105.95 23.3297 105.95 23.3597C106.23 23.6697 106.43 23.9597 106.54 24.2297L106.59 23.9096V12.5797H110.2V30.0297H106.09L106.04 29.9396C105.93 29.7996 105.86 29.6796 105.81 29.5696C105.77 29.5396 105.76 29.5097 105.76 29.4797C105.48 29.1697 105.28 28.8797 105.17 28.6097C105.13 28.5797 105.12 28.5497 105.12 28.5197L104.94 28.2496C104.78 28.0696 104.66 27.8797 104.57 27.6997L104.34 27.4297L104.16 27.1097L103.98 26.7896C103.77 26.5596 103.62 26.3497 103.52 26.1497L103.43 26.0597C103.31 25.7897 103.17 25.5797 103.02 25.4197L102.97 25.3297L102.88 25.1896L102.47 24.5497C102.36 24.4097 102.29 24.2897 102.24 24.1797C102.2 24.1497 102.19 24.1197 102.19 24.0897L102.1 24.0396L101.92 23.7196L101.87 23.6296C101.76 23.4896 101.69 23.3697 101.64 23.2597C101.57 23.1797 101.53 23.1097 101.5 23.0297L101.32 22.8496L101.14 22.5797L101.05 22.3496L100.96 22.2997L100.78 21.9797L100.37 21.3897L100.28 21.2097L100.19 21.0297L100.05 20.8897L99.96 20.7496L99.91 20.6097C99.76 20.4397 99.64 20.2897 99.54 20.1497L99.45 19.9696C99.32 19.7896 99.23 19.6397 99.18 19.5097C99.13 19.4797 99.1 19.4497 99.09 19.4197L99 19.3297L98.95 19.2397L98.77 18.9197L98.36 18.3297V30.0197H94.75V12.5696H94.98L94.97 12.5797ZM117.44 12.6296H125.21L125.35 12.6797H125.49L125.86 12.7297L126.59 12.9096C127.89 13.4796 128.82 14.3296 129.38 15.4696C130.29 17.6296 129.85 19.3496 128.06 20.6296C129.35 21.2396 130.15 22.1697 130.44 23.4197C130.96 26.4797 129.91 28.5796 127.29 29.7196H127.15C126.79 29.8896 126.46 29.9797 126.15 29.9897L125.83 30.0797H125.69L124.55 30.1296H116.83V12.6296H117.47H117.44ZM120.36 19.6596H124.56L124.83 19.6097C125.83 19.0997 126.23 18.3397 126.02 17.3297C125.84 16.8897 125.59 16.5397 125.24 16.2797C125.08 16.2297 124.94 16.1696 124.83 16.0996L124.65 16.0497H124.38C124.23 16.0197 124.11 15.9996 124.01 15.9996H120.36V19.6497V19.6596ZM120.36 26.6896H124.2C124.6 26.6896 124.94 26.6596 125.2 26.5996C126.26 26.0396 126.71 25.2196 126.57 24.1296C126.34 23.3796 125.91 22.8497 125.29 22.5297C125.05 22.4897 124.86 22.4497 124.7 22.3897H120.36V26.6797V26.6896ZM136 12.7097H139.33L139.38 23.7196L139.65 24.7196C140.42 26.0696 141.5 26.7797 142.89 26.8697C144.39 26.7597 145.49 26.0996 146.18 24.9096V24.7697C146.41 24.3097 146.53 23.8497 146.55 23.3997C146.6 23.0497 146.61 22.7497 146.6 22.4897V12.7097H150.16V23.9497C150.13 24.0897 150.11 24.2196 150.11 24.3196L150.06 24.4096C150.02 24.8096 149.96 25.1496 149.88 25.4096C149.18 27.3196 148.04 28.7096 146.45 29.5696C144.5 30.5896 142.58 30.7697 140.69 30.1197C136.89 28.6697 135.23 25.6297 135.71 20.9797V12.6697L135.98 12.7196L136 12.7097ZM170.44 15.0396L170.35 15.1296L169.89 15.4996L169.8 15.6397L169.66 15.7797L169.48 15.8697L169.34 16.0097L169.2 16.1497L169.11 16.2896L168.93 16.3796C168.82 16.5196 168.73 16.6297 168.66 16.6997L168.39 16.8796L168.34 16.9696L168.25 17.0197C168.09 17.2197 167.94 17.3697 167.79 17.4797C165.87 15.9097 163.89 15.4096 161.85 15.9696C161.74 16.0796 161.61 16.1497 161.48 16.1997C161.31 16.3797 161.16 16.5097 161.02 16.6097L160.97 16.6997L160.74 17.2496C160.76 17.8596 160.95 18.3497 161.33 18.7097L162.11 18.9797L162.84 19.1197C163.07 19.1997 163.27 19.2397 163.43 19.2597L163.61 19.3097L163.79 19.3597L163.97 19.4096L164.15 19.4597L164.38 19.5497H164.52L164.7 19.5996L164.93 19.6896L165.11 19.7397H165.25C165.43 19.8097 165.58 19.8496 165.71 19.8796L166.08 19.9696C166.22 20.0396 166.35 20.0797 166.45 20.1097L166.59 20.1596L167.18 20.3897L167.27 20.4797C167.57 20.6197 167.81 20.7696 168 20.9396C168.05 20.9696 168.08 20.9997 168.09 21.0297L168.18 21.0797C168.32 21.1797 168.42 21.2696 168.5 21.3496C168.69 21.4896 168.84 21.6297 168.96 21.7597C170.07 23.3097 170.35 24.8997 169.78 26.5597C169.18 28.2497 168.11 29.3597 166.58 29.8897C161.82 31.3497 157.94 30.4196 154.93 27.0996L155.07 26.9197L155.25 26.8297C155.3 26.7597 155.36 26.7196 155.43 26.6896C155.55 26.5296 155.69 26.4197 155.84 26.3697C155.89 26.2997 155.95 26.2597 156.02 26.2297C156.07 26.1597 156.13 26.1197 156.2 26.0897L156.29 25.9497L156.43 25.8597L156.52 25.7697L156.66 25.6797L156.8 25.6296L156.89 25.4897L156.98 25.4396L157.07 25.3496L157.16 25.2997L157.25 25.2496L157.89 24.6997C159.91 26.6797 162.16 27.3996 164.65 26.8496L164.79 26.7597L164.93 26.7097L164.98 26.6197L165.67 26.1596C165.78 25.8996 165.88 25.6897 165.99 25.5197C166.08 24.6897 165.82 24.0397 165.21 23.5597L165.03 23.5097L164.89 23.4197L164.71 23.3697L164.34 23.2797H164.2L164.02 23.2297L163.93 23.1797C163.65 23.1297 163.41 23.0696 163.2 22.9996H163.06L162.92 22.9497L162.55 22.8597C162.17 22.8097 161.85 22.7396 161.59 22.6296C158.61 22.2396 156.97 20.6896 156.66 17.9696C156.73 14.5396 158.75 12.5997 162.74 12.1697C165.88 12.0897 168.44 13.0497 170.41 15.0497L170.44 15.0396ZM176.62 12.6596H179.63V19.2797H186.62V12.6596H190.23V30.1097H186.62V22.7097H179.63V30.1097H176.02V12.6596H176.61H176.62ZM197.39 12.6596H200.4V30.1097H196.79V12.6596H197.38H197.39Z" fill="#999999"/>
<path d="M71.78 39.9901L71.65 40.0901L71.11 40.2802L70.98 40.3401L70.85 40.3701C70.69 40.4601 70.56 40.5201 70.43 40.5601L70.27 40.5901L70.21 40.6501H70.11L70.05 40.7101H69.95L69.89 40.7701H69.79L69.73 40.8301L69.6 40.8601L69.25 40.9901C68.72 39.0501 67.48 38.2701 65.53 38.6501C64.02 39.2301 63.29 40.3501 63.32 42.0201C63.12 43.7501 63.54 45.0501 64.57 45.9301C65.42 46.5101 66.31 46.6601 67.23 46.3801C68.39 46.0001 69.06 45.2401 69.22 44.1001C69.42 44.1401 69.59 44.2001 69.73 44.2901C69.95 44.3501 70.13 44.4101 70.27 44.4801L70.4 44.5401L70.59 44.6001L70.69 44.6301L70.91 44.7301L71.04 44.7601L71.14 44.8201C71.25 44.8501 71.33 44.8801 71.4 44.9201L71.78 45.0501C70.93 47.4201 69.33 48.7001 67 48.9001C64.64 49.0701 62.86 48.2701 61.65 46.5001C60.36 44.2201 60.16 41.9601 61.07 39.7401C61.99 37.6201 63.51 36.4201 65.62 36.1501C68.73 35.9901 70.79 37.2601 71.77 39.9601L71.78 39.9901ZM88.25 36.4301H91.33V36.5302C91.42 36.7202 91.48 36.8901 91.52 37.0401L91.58 37.2601L91.61 37.3901C91.61 37.3901 91.64 37.4501 91.64 37.4901C91.66 37.5201 91.67 37.5501 91.67 37.5901C91.69 37.6201 91.7 37.6501 91.7 37.6901C91.75 37.7801 91.79 37.8601 91.8 37.9501L91.99 38.4601V38.5601C92.09 38.7601 92.16 38.9401 92.18 39.1001C92.28 39.3401 92.35 39.5401 92.37 39.7101C92.4 39.7701 92.42 39.8401 92.43 39.9001L92.49 40.0302C92.52 40.1402 92.55 40.2201 92.59 40.2901V40.3901C92.59 40.3901 92.62 40.4501 92.62 40.4901C92.67 40.5801 92.71 40.6601 92.72 40.7501L92.91 41.2601L92.94 41.3901L92.97 41.4501L93.03 41.7401L93.09 41.8701L93.15 42.0302L93.18 42.1301L93.21 42.2601L93.27 42.4501C93.3 42.5601 93.33 42.6401 93.37 42.7101V42.8101C93.37 42.8101 93.4 42.8701 93.4 42.9101C93.45 43.0001 93.49 43.0801 93.5 43.1701L93.69 43.6801L93.72 43.8701L93.82 44.0601L93.88 44.2501V44.3501L93.94 44.4501L93.97 44.5801L94 44.7401C94.17 45.1201 94.27 45.4401 94.32 45.7001C94.34 45.7301 94.35 45.7601 94.35 45.8001C94.52 46.1801 94.62 46.5001 94.67 46.7601L94.73 46.8601L94.76 46.9901L94.79 47.1201L94.82 47.2201L94.85 47.3501C94.85 47.3501 94.88 47.4101 94.88 47.4501C94.9 47.4801 94.91 47.5101 94.91 47.5501C94.93 47.5801 94.94 47.6101 94.94 47.6501L95 47.7501V47.8501C95 47.8501 95.03 47.9101 95.03 47.9501C95.08 48.0401 95.12 48.1201 95.13 48.2101C95.2 48.3701 95.24 48.5001 95.26 48.5901L95.32 48.7802H92.53L92.47 48.5901V48.4601L92.41 48.3601V48.2601C92.35 48.1401 92.31 48.0401 92.31 47.9401L92.25 47.8401V47.7401L92.22 47.6101L92.12 47.3901L91.9 46.5901H87.32L87.29 46.7501L87.26 46.9101L87.2 47.0401C87.17 47.1601 87.14 47.2601 87.1 47.3601L87.07 47.5201L87.04 47.5801L86.94 47.9001L86.91 48.0302L86.88 48.1301C86.84 48.2401 86.81 48.3301 86.78 48.3901L86.68 48.7701H83.92L83.98 48.5101L84.08 48.1901L84.11 48.0901L84.14 47.9901L84.17 47.8901L84.2 47.8301L84.36 47.3201L84.39 47.2201L84.42 47.1201L84.45 46.9901L84.51 46.8601L84.61 46.5101L84.64 46.4101L84.67 46.3101L84.7 46.2101L84.73 46.1501C84.79 45.9001 84.86 45.7101 84.92 45.5701L84.98 45.3501L85.01 45.2901C85.07 45.0401 85.14 44.8501 85.2 44.7101C85.23 44.6001 85.26 44.5201 85.3 44.4501L85.36 44.1901L85.46 43.9701L85.52 43.7101L85.55 43.6501C85.61 43.4001 85.68 43.2101 85.74 43.0701L85.8 42.8101L86.06 42.1001L86.12 41.8801L86.15 41.7802L86.18 41.6801C86.24 41.4801 86.31 41.3101 86.37 41.1701L86.43 40.9801L86.46 40.8801V40.7802L86.49 40.6801L86.71 40.1001L86.74 39.9101L86.8 39.7501L86.86 39.6201C86.9 39.4201 86.96 39.2501 87.02 39.1101L87.05 38.9501L87.08 38.8501L87.11 38.7901C87.17 38.5401 87.24 38.3501 87.3 38.2101L87.33 38.0801L87.36 37.9501C87.42 37.8301 87.46 37.7101 87.49 37.6001L87.59 37.2802L87.62 37.1801L87.88 36.4401H88.1L88.25 36.4301ZM89.63 39.2501L89.53 39.6001L89.5 39.6601L89.34 40.2401L89.15 40.7802L89.12 40.8401L88.93 41.5501L88.9 41.6801L88.71 42.2201L88.65 42.3801C88.63 42.5501 88.59 42.7001 88.52 42.8301C88.5 42.9501 88.47 43.0701 88.42 43.1801L88.39 43.3101C88.35 43.4401 88.3 43.5501 88.26 43.6301L88.07 44.3401H91.31L91.25 44.0801L91.06 43.4701L90.9 42.9301C90.82 42.7301 90.77 42.5601 90.74 42.4201L90.71 42.3601C90.67 42.2101 90.62 42.0801 90.58 41.9801L90.55 41.8501L90.52 41.7201L90.46 41.5601L90.43 41.3701L90.4 41.2401L90.34 41.1401L90.31 40.9501L90.28 40.8201C90.25 40.7601 90.23 40.6901 90.22 40.6301L90.19 40.5001C90.11 40.3401 90.06 40.1901 90.03 40.0501L90 39.9501L89.97 39.8901L89.91 39.6001L89.88 39.5001L89.72 39.0801L89.69 39.2401L89.63 39.2501ZM108.89 36.4001H114.21L114.27 36.4301H114.37L114.59 36.4601L114.69 36.4901L115.14 36.5901C117.14 37.5501 117.99 39.0701 117.67 41.1401C116.95 43.5901 115.32 44.6601 112.77 44.3501H111.17V48.6501H108.64V36.4101H108.9L108.89 36.4001ZM111.17 42.0401H113.86C113.99 41.9901 114.11 41.9501 114.21 41.9401C115.1 41.4101 115.4 40.6801 115.11 39.7601C114.91 39.3001 114.6 38.9801 114.18 38.8001H114.08C113.75 38.7001 113.45 38.6701 113.18 38.7001H111.16V42.0302L111.17 42.0401ZM131.49 36.4601H133.61V48.7001H131.08V36.4601H131.5H131.49ZM146.81 36.4001H156.14V38.8401H152.68V48.6801H150.15V38.8401H146.69V36.4001H146.82H146.81ZM172.13 36.4301H175.21V36.5302C175.3 36.7202 175.36 36.8901 175.4 37.0401L175.46 37.2601L175.49 37.3901C175.49 37.3901 175.52 37.4501 175.52 37.4901C175.54 37.5201 175.55 37.5501 175.55 37.5901C175.57 37.6201 175.58 37.6501 175.58 37.6901C175.63 37.7801 175.67 37.8601 175.68 37.9501L175.87 38.4601V38.5601C175.97 38.7601 176.04 38.9401 176.06 39.1001C176.16 39.3401 176.23 39.5401 176.25 39.7101C176.28 39.7701 176.3 39.8401 176.31 39.9001L176.37 40.0302C176.4 40.1402 176.43 40.2201 176.47 40.2901V40.3901C176.47 40.3901 176.5 40.4501 176.5 40.4901C176.55 40.5801 176.59 40.6601 176.6 40.7501L176.79 41.2601L176.82 41.3901L176.85 41.4501L176.91 41.7401L176.97 41.8701L177.03 42.0302L177.06 42.1301L177.09 42.2601L177.15 42.4501C177.18 42.5601 177.21 42.6401 177.25 42.7101V42.8101C177.25 42.8101 177.28 42.8701 177.28 42.9101C177.33 43.0001 177.37 43.0801 177.38 43.1701L177.57 43.6801L177.6 43.8701L177.7 44.0601L177.76 44.2501V44.3501L177.82 44.4501L177.85 44.5801L177.88 44.7401C178.05 45.1201 178.15 45.4401 178.2 45.7001C178.22 45.7301 178.23 45.7601 178.23 45.8001C178.4 46.1801 178.5 46.5001 178.55 46.7601L178.61 46.8601L178.64 46.9901L178.67 47.1201L178.7 47.2201L178.73 47.3501C178.73 47.3501 178.76 47.4101 178.76 47.4501C178.78 47.4801 178.79 47.5101 178.79 47.5501C178.81 47.5801 178.82 47.6101 178.82 47.6501L178.88 47.7501V47.8501C178.88 47.8501 178.91 47.9101 178.91 47.9501C178.96 48.0401 179 48.1201 179.01 48.2101C179.08 48.3701 179.12 48.5001 179.14 48.5901L179.2 48.7802H176.41L176.35 48.5901V48.4601L176.29 48.3601V48.2601C176.23 48.1401 176.19 48.0401 176.19 47.9401L176.13 47.8401V47.7401L176.1 47.6101L176 47.3901L175.78 46.5901H171.2L171.17 46.7501L171.14 46.9101L171.08 47.0401C171.05 47.1601 171.02 47.2601 170.98 47.3601L170.95 47.5201L170.92 47.5801L170.82 47.9001L170.79 48.0302L170.76 48.1301C170.72 48.2401 170.69 48.3301 170.66 48.3901L170.56 48.7701H167.8L167.86 48.5101L167.96 48.1901L167.99 48.0901L168.02 47.9901L168.05 47.8901L168.08 47.8301L168.24 47.3201L168.27 47.2201L168.3 47.1201L168.33 46.9901L168.39 46.8601L168.49 46.5101L168.52 46.4101L168.55 46.3101L168.58 46.2101L168.61 46.1501C168.67 45.9001 168.74 45.7101 168.8 45.5701L168.86 45.3501L168.89 45.2901C168.95 45.0401 169.02 44.8501 169.08 44.7101C169.11 44.6001 169.14 44.5201 169.18 44.4501L169.24 44.1901L169.34 43.9701L169.4 43.7101L169.43 43.6501C169.49 43.4001 169.56 43.2101 169.62 43.0701L169.68 42.8101L169.94 42.1001L170 41.8801L170.03 41.7802L170.06 41.6801C170.12 41.4801 170.19 41.3101 170.25 41.1701L170.31 40.9801L170.34 40.8801V40.7802L170.37 40.6801L170.59 40.1001L170.62 39.9101L170.68 39.7501L170.74 39.6201C170.78 39.4201 170.84 39.2501 170.9 39.1101L170.93 38.9501L170.96 38.8501L170.99 38.7901C171.05 38.5401 171.12 38.3501 171.18 38.2101L171.21 38.0801L171.24 37.9501C171.3 37.8301 171.34 37.7101 171.37 37.6001L171.47 37.2802L171.5 37.1801L171.76 36.4401H171.98L172.13 36.4301ZM173.51 39.2501L173.41 39.6001L173.38 39.6601L173.22 40.2401L173.03 40.7802L173 40.8401L172.81 41.5501L172.78 41.6801L172.59 42.2201L172.53 42.3801C172.51 42.5501 172.47 42.7001 172.4 42.8301C172.38 42.9501 172.35 43.0701 172.3 43.1801L172.27 43.3101C172.23 43.4401 172.18 43.5501 172.14 43.6301L171.95 44.3401H175.19L175.13 44.0801L174.94 43.4701L174.78 42.9301C174.7 42.7301 174.65 42.5601 174.62 42.4201L174.59 42.3601C174.55 42.2101 174.5 42.0801 174.46 41.9801L174.43 41.8501L174.4 41.7201L174.34 41.5601L174.31 41.3701L174.28 41.2401L174.22 41.1401L174.19 40.9501L174.16 40.8201C174.13 40.7601 174.11 40.6901 174.1 40.6301L174.07 40.5001C173.99 40.3401 173.94 40.1901 173.91 40.0501L173.88 39.9501L173.85 39.8901L173.79 39.6001L173.76 39.5001L173.6 39.0801L173.57 39.2401L173.51 39.2501ZM192.9 36.4301H195.02V46.2401H200.41V48.6801H192.49V36.4401H192.91L192.9 36.4301Z" fill="#999999"/>
</svg>
