<svg width="189" height="60" viewBox="0 0 189 60" fill="none" xmlns="http://www.w3.org/2000/svg">
<path fill-rule="evenodd" clip-rule="evenodd" d="M17.523 14.8783C14.8354 16.4409 12.491 17.9482 12.3135 18.2279C12.1359 18.5076 11.9883 21.446 11.9846 24.757L11.9785 30.7775L13.3079 31.7646C14.0393 32.3077 16.5465 33.8235 18.8798 35.1334C22.6752 37.264 23.2426 37.4692 24.2677 37.0817C24.8976 36.8438 29.0022 34.6001 33.3891 32.0959C37.7759 29.5913 41.7639 27.5426 42.2519 27.5426C43.1834 27.5426 47.9834 30.0656 49.0126 31.0961C49.7236 31.808 49.8622 37.7784 49.1967 39.0236C48.6489 40.0491 43.4816 43.1067 42.2969 43.1067C41.1004 43.1067 35.8451 40.0389 35.3023 39.0236C35.0736 38.5955 34.8863 37.4094 34.8863 36.3875V34.5292L32.9432 35.6703C31.0369 36.7897 30.9977 36.8536 30.8803 39.0518C30.778 40.9539 30.9015 41.4212 31.6984 42.147C33.0422 43.3717 41.5168 48.0216 42.4045 48.0216C43.3994 48.0216 52.4876 42.8896 53.3966 41.8149C53.9971 41.1042 54.1125 40.1225 54.1125 35.7154C54.1125 32.8266 53.9452 30.0218 53.7402 29.4828C53.1974 28.0529 43.3319 22.4699 41.8776 22.7697C41.2947 22.8898 37.1361 25.115 32.6364 27.7146C28.1366 30.3142 24.0276 32.4449 23.5052 32.4494C22.5271 32.458 19.7389 31.0187 17.3986 29.2976C16.074 28.3237 16.0691 28.3073 16.0691 24.7259C16.0691 21.5177 16.1677 21.0434 16.9895 20.3037C18.398 19.036 22.4044 16.8935 23.3657 16.8935C24.3687 16.8935 29.2501 19.4972 30.0449 20.4564C30.3452 20.8185 30.6831 22.0935 30.7956 23.2895L31.0001 25.464L32.9432 24.2496C34.865 23.0491 34.8863 23.0118 34.8863 20.8619C34.8863 19.6664 34.6564 18.404 34.3749 18.0567C33.5269 17.0094 24.3483 11.9765 23.344 12.008C22.8302 12.0244 20.2105 13.3158 17.523 14.8783ZM99.9281 24.4707V36.963H102.178H104.428V24.4707V11.9785H102.178H99.9281V24.4707ZM70.348 22.8193C69.2656 23.1015 68.1705 23.5426 67.914 23.7994C67.2435 24.4707 66.9183 24.3782 66.6749 23.4468C66.5003 22.7775 66.117 22.6276 64.5821 22.6276H62.7029V33.2767V43.9258H64.9528H67.2026V40.0348C67.2026 37.8948 67.2738 36.1438 67.3605 36.1438C67.4473 36.1438 68.0453 36.419 68.69 36.7557C69.3343 37.092 70.7992 37.3684 71.945 37.3701C77.5042 37.3766 80.8148 32.4297 78.8819 27.0036C77.5823 23.3546 74.3564 21.7728 70.348 22.8193ZM148.631 22.6862C141.085 24.0775 140.38 34.5821 147.67 36.9912C149.797 37.6941 153.671 37.2427 155.341 36.0967C159.836 33.0134 159.535 25.8633 154.811 23.4959C152.877 22.5265 150.902 22.2676 148.631 22.6862ZM84.8838 23.4955C81.3417 25.251 79.9746 30.2299 82.0379 33.8604C84.4011 38.018 91.6575 38.6795 95.0954 35.051C97.679 32.324 97.7719 27.8096 95.2987 25.1478C92.8974 22.5625 88.2525 21.8257 84.8838 23.4955ZM126.667 23.4136C121.504 26.5653 121.672 34.0377 126.967 36.7791C128.619 37.6347 131.765 37.5269 133.58 36.5526L135.108 35.7326V36.7844C135.108 38.4485 134.399 39.3549 132.699 39.8648C130.946 40.3903 128.637 39.8824 127.713 38.7676C127.275 38.2392 127.021 38.3363 125.839 39.4831C125.087 40.213 124.472 41.0162 124.472 41.2685C124.472 41.5208 125.242 42.1605 126.184 42.6905C131.016 45.4093 137.343 43.9201 139.244 39.617C139.947 38.0275 140.023 37.0051 139.924 30.5338L139.812 23.242L137.807 23.1146C136.669 23.0421 135.682 23.1793 135.527 23.4312C135.336 23.74 134.799 23.6852 133.762 23.2514C131.657 22.3708 128.247 22.4486 126.667 23.4136ZM167.241 23.663C165.752 24.6751 165.712 24.6796 165.5 23.8678C165.32 23.1765 164.949 23.0372 163.286 23.0372H161.288V30.0001V36.963H163.538H165.788V33.4684C165.788 31.3443 166.02 29.4172 166.38 28.5543C167.124 26.7734 168.643 25.9915 170.083 26.6489C171.092 27.1088 171.106 27.1846 171.106 32.0394V36.963H173.591H176.075L175.943 30.9892L175.81 25.0159L174.474 23.8215C172.654 22.1947 169.505 22.1255 167.241 23.663ZM106.473 23.4959C106.473 23.9215 108.698 28.7156 111.417 34.1479L112.57 36.453L111.208 39.2984C108.932 44.0544 108.925 43.9279 111.457 43.914L113.632 43.9021L118.029 33.9587C120.448 28.49 122.427 23.7953 122.427 23.5262C122.427 23.2191 121.737 23.0372 120.573 23.0372H118.718L116.836 27.0306L114.954 31.024L113.085 27.0306L111.215 23.0372H108.844C107.367 23.0372 106.473 23.21 106.473 23.4959ZM72.6498 26.7902C74.0247 27.5238 74.5385 28.4232 74.5528 30.1209C74.5679 31.9145 73.1529 33.6564 71.6185 33.7334C68.4458 33.8927 67.6117 33.1051 67.6117 29.9497C67.6117 27.7736 67.7082 27.5164 68.7366 26.9577C70.1066 26.2135 71.4594 26.1558 72.6498 26.7902ZM91.3184 27.3169C92.7481 28.841 92.6949 31.4213 91.2067 32.7029C89.15 34.4743 86.4342 33.6392 85.7813 31.0343C84.8732 27.4115 88.8816 24.7202 91.3184 27.3169ZM133.601 26.7849C134.878 27.4578 135.095 27.9256 135.095 30.0001C135.095 32.0746 134.878 32.5423 133.601 33.2153C130.799 34.6918 127.745 33.015 127.745 30.0001C127.745 26.9852 130.799 25.3083 133.601 26.7849ZM152.688 27.1228C155.048 29.4856 153.66 33.6863 150.519 33.6863C147.452 33.6863 145.961 29.337 148.329 27.2973C149.72 26.0992 151.591 26.0243 152.688 27.1228Z" fill="#999999"/>
</svg>
