<svg width="127" height="54" viewBox="0 0 127 54" fill="none" xmlns="http://www.w3.org/2000/svg">
<g clip-path="url(#clip0_1686_2108)">
<path d="M29.915 19.9012C29.9122 20.3738 29.4783 20.7081 29.0092 20.6587C27.8465 20.5361 26.7811 20.5463 25.7852 20.6502C23.6173 20.8764 21.8157 21.546 20.1548 22.1634L20.1512 22.1647C20.0507 22.2021 19.9507 22.2393 19.8512 22.2761C18.0875 22.9292 16.4624 23.4912 14.5343 23.5357C13.7652 23.5536 12.9366 23.4888 12.0241 23.3049C11.2415 23.1473 10.6163 22.5491 10.4612 21.7643C10.3384 21.1425 10.2739 20.4996 10.2739 19.8417C10.2739 14.4063 14.6708 10 20.0945 10C25.5183 10 29.9152 14.4063 29.9152 19.8417C29.9152 19.8615 29.9151 19.8814 29.915 19.9012Z" fill="#999999"/>
<path d="M11.1488 24.792C10.4113 24.6145 9.7383 25.4086 10.1015 26.0759L19.7412 43.7866C19.8963 44.0715 20.3045 44.0715 20.4596 43.7866L31.0993 24.2387C31.4766 23.5453 31.1136 22.6768 30.3408 22.5221C28.6595 22.1855 27.2271 22.1493 25.9521 22.2823C23.9959 22.4864 22.3712 23.0896 20.6846 23.7156C20.5953 23.7489 20.5057 23.782 20.416 23.8153C18.6503 24.4693 16.7973 25.1247 14.5695 25.1762C13.5107 25.2008 12.3828 25.0891 11.1488 24.792Z" fill="#999999"/>
<path d="M20.0979 24.2755C20.0979 24.0701 20.2259 23.8865 20.4182 23.8153C20.5079 23.782 20.5975 23.7489 20.6868 23.7156C22.3734 23.0896 23.9981 22.4864 25.9543 22.2823C27.2293 22.1493 28.6617 22.1855 30.3429 22.5221C31.1158 22.6768 31.4789 23.5453 31.1015 24.2387L20.4618 43.7866C20.3834 43.9306 20.2403 44.0018 20.0979 44.0002V24.2755Z" fill="#999999"/>
<path fill-rule="evenodd" clip-rule="evenodd" d="M51.0761 18.5725C50.1323 18.3028 49.2561 18.168 48.3794 18.168C46.7614 18.168 45.2784 18.5725 43.9301 19.2467C42.5817 19.9883 41.5704 20.9995 40.8288 22.348C40.0871 23.6963 39.75 25.1795 39.75 26.9323C39.75 28.6852 40.1546 30.1684 40.8962 31.5168C41.6375 32.8651 42.7163 33.8764 43.9972 34.618C45.2784 35.3596 46.694 35.7641 48.3123 35.7641C49.7952 35.7641 51.1436 35.4945 52.3573 34.8203C53.5707 34.2135 54.5145 33.2697 55.2562 31.9886C55.9979 30.7077 56.335 29.2246 56.335 27.4716V26.7301C56.335 26.636 56.335 26.5272 56.3351 26.4106L56.3352 26.2708C56.3353 26.1149 56.2089 25.9885 56.0529 25.9885H49.0652C48.9092 25.9885 48.7828 26.1149 48.7828 26.2708V28.7399C48.7828 28.8959 48.9092 29.0224 49.0652 29.0224H52.2545C52.3695 29.0224 52.4578 29.1247 52.4371 29.2377C52.3703 29.6019 52.2762 29.9325 52.1549 30.2358C51.8852 30.9775 51.4132 31.4493 50.739 31.8538C50.1323 32.191 49.3236 32.3933 48.3123 32.3933C47.5031 32.3933 46.694 32.1236 46.0197 31.7191C45.2784 31.2471 44.7389 30.6403 44.3343 29.8314C43.9301 29.0224 43.7276 28.0784 43.7276 26.9998C43.7276 25.921 43.9301 24.9772 44.3343 24.1682C44.7389 23.3591 45.2784 22.685 46.0197 22.2805C46.7614 21.8085 47.5705 21.6063 48.4469 21.6063C49.2561 21.6063 50.0649 21.8085 50.739 22.1457C51.3383 22.4453 51.8844 22.9579 52.3297 23.589C52.4217 23.7192 52.601 23.7567 52.7328 23.6669L55.2409 21.9567C55.3634 21.8733 55.401 21.7089 55.3204 21.5845C54.8596 20.8743 54.2428 20.2748 53.5707 19.786C52.7616 19.2467 52.0203 18.8421 51.0761 18.5725ZM72.6697 19.1183L75.6782 18.3259C75.8573 18.2788 76.0325 18.4138 76.0325 18.599V35.2121C76.0325 35.368 75.906 35.4944 75.7501 35.4944H72.7416C72.5857 35.4944 72.4593 35.368 72.4593 35.2121V19.3913C72.4593 19.2631 72.5457 19.151 72.6697 19.1183ZM108.16 26.1232C108.632 25.8536 109.104 25.7187 109.643 25.7187C110.25 25.7187 110.722 25.921 111.126 26.1232C111.531 26.3255 111.868 26.73 112.137 27.2693C112.407 27.8087 112.542 28.4155 112.542 29.1571C112.542 29.8987 112.407 30.5054 112.137 31.0448C111.935 31.5842 111.598 31.9886 111.126 32.2583C110.722 32.528 110.182 32.6628 109.643 32.6628C109.104 32.6628 108.564 32.528 108.16 32.2583C107.755 31.9886 107.418 31.5842 107.149 31.0448C106.879 30.5054 106.744 29.8987 106.744 29.1571C106.744 28.4155 106.879 27.8087 107.149 27.2693C107.351 26.7975 107.688 26.3929 108.16 26.1232ZM113.014 23.3591C112.07 22.8198 110.924 22.5501 109.643 22.5501C108.429 22.5501 107.283 22.8198 106.272 23.3591C105.261 23.8985 104.519 24.7074 103.912 25.7187C103.306 26.73 103.036 27.8761 103.036 29.1571C103.036 30.438 103.373 31.5842 103.912 32.5954C104.452 33.6067 105.261 34.4157 106.272 34.955C107.283 35.4944 108.429 35.764 109.643 35.764C110.857 35.764 112.003 35.4944 113.014 34.955C114.025 34.4157 114.767 33.6067 115.374 32.5954C115.98 31.5842 116.25 30.438 116.25 29.1571C116.25 27.8761 115.913 26.73 115.374 25.7187C114.834 24.7074 114.025 23.8985 113.014 23.3591ZM87.4961 34.2093C87.5228 34.1666 87.6002 34.1862 87.6002 34.2366V35.2122C87.6002 35.3681 87.7267 35.4945 87.8825 35.4945H90.8909C91.0469 35.4945 91.1733 35.3681 91.1733 35.2122V23.237C91.1733 23.0812 91.0469 22.9547 90.8909 22.9547H87.8825C87.7267 22.9547 87.6002 23.0812 87.6002 23.237V24.3222C87.6002 24.4149 87.4775 24.4537 87.421 24.3803C87.2318 24.1341 87.0212 23.9055 86.7911 23.6964C86.0496 22.9547 85.0383 22.6176 83.8247 22.6176C82.7462 22.6176 81.8022 22.8874 80.9257 23.4942C80.1167 24.0335 79.4426 24.8425 78.9707 25.8538C78.4987 26.8651 78.2965 28.0111 78.2965 29.2247C78.2965 30.4381 78.4987 31.5843 78.9707 32.5955C79.4426 33.6068 80.0495 34.3485 80.9257 34.9553C81.7349 35.5619 82.7462 35.8316 83.8247 35.8316C85.1058 35.8316 86.0496 35.4271 86.8586 34.8878C87.1674 34.682 87.3801 34.3951 87.4961 34.2093ZM86.2519 32.1911C85.7799 32.4607 85.3079 32.5955 84.7685 32.5955C84.2293 32.5955 83.7575 32.4607 83.2854 32.1911C82.8809 31.9214 82.5439 31.5169 82.2741 30.9776C82.072 30.4381 81.937 29.8315 81.937 29.1572C81.937 28.483 82.0045 27.9437 82.2741 27.4043C82.5439 26.9324 82.8809 26.5279 83.2854 26.2583C83.7575 25.9886 84.2293 25.8538 84.7685 25.8538C85.3079 25.8538 85.8473 25.9886 86.2519 26.2583C86.6563 26.5279 86.9934 26.865 87.2632 27.4043C87.4654 27.8762 87.6002 28.483 87.6002 29.1572C87.6002 29.8315 87.5327 30.4381 87.2632 30.9776C86.9934 31.5169 86.6563 31.9214 86.2519 32.1911ZM99.0189 25.7188C98.9668 25.7188 98.9248 25.7609 98.9248 25.813V30.6403C98.9248 31.7865 99.3966 32.3931 100.341 32.3931H101.407C101.563 32.3931 101.689 32.5196 101.689 32.6756V35.2121C101.689 35.368 101.563 35.4945 101.407 35.4945H99.8687C98.4528 35.4945 97.3068 35.0899 96.5652 34.2809C95.7562 33.4719 95.3516 32.3258 95.3516 30.8425V25.813C95.3516 25.7609 95.3094 25.7188 95.2574 25.7188H93.1714C92.978 25.7188 92.8418 25.5286 92.9042 25.3455L93.6531 23.146C93.692 23.0316 93.7995 22.9546 93.9203 22.9546H95.2574C95.3094 22.9546 95.3516 22.9125 95.3516 22.8605V19.4855C95.3516 19.3573 95.438 19.2451 95.562 19.2125L98.6886 18.389C98.808 18.3575 98.9248 18.4476 98.9248 18.571V22.8605C98.9248 22.9125 98.9668 22.9546 99.0189 22.9546H101.483C101.676 22.9546 101.812 23.1448 101.75 23.328L101.001 25.5275C100.962 25.6419 100.855 25.7188 100.734 25.7188H99.0189ZM64.2618 22.5501C65.4751 22.5501 66.4864 22.8198 67.3629 23.3591C68.2393 23.8985 68.9809 24.7074 69.4527 25.7187C69.9922 26.73 70.1943 27.8761 70.1943 29.1571V29.7512C70.1943 29.9071 70.068 30.0335 69.912 30.0335H61.9109C61.7968 30.0335 61.7086 30.1344 61.7282 30.2469C61.7871 30.5843 61.8702 30.8807 61.9692 31.1122C62.2392 31.6515 62.5762 32.0561 62.9805 32.2583C63.3851 32.4606 63.9246 32.6628 64.5988 32.6628C65.2055 32.6628 65.8122 32.528 66.2168 32.3258C66.6068 32.1585 66.9506 31.8533 67.2486 31.486C67.3511 31.3596 67.5369 31.3336 67.6633 31.436L69.7136 33.0983C69.8315 33.1939 69.8533 33.3662 69.7571 33.4837C69.1824 34.1864 68.4913 34.7218 67.6324 35.0899C66.6887 35.4944 65.6772 35.6967 64.5988 35.6967C63.3176 35.6967 62.1717 35.427 61.1604 34.8876C60.1492 34.3482 59.4075 33.5393 58.8683 32.528C58.3288 31.5167 58.0591 30.3707 58.0591 29.0896C58.0591 27.8087 58.3288 26.6627 58.8683 25.6514C59.4075 24.6401 60.1492 23.8985 61.093 23.2918C62.0367 22.8198 63.048 22.5501 64.2618 22.5501ZM61.9904 27.6739C61.8716 27.6739 61.7823 27.5651 61.8104 27.4499C61.9287 26.9648 62.1002 26.5677 62.3063 26.2581C62.7109 25.6513 63.3851 25.3142 64.2618 25.3142C65.0705 25.3142 65.7447 25.6513 66.1493 26.2581C66.3509 26.5604 66.5187 26.9631 66.6368 27.4495C66.6647 27.565 66.5755 27.6739 66.4566 27.6739H61.9904Z" fill="#999999"/>
</g>
<defs>
<clipPath id="clip0_1686_2108">
<rect width="106.25" height="34" fill="white" transform="translate(10 10)"/>
</clipPath>
</defs>
</svg>
