<svg width="168" height="54" viewBox="0 0 168 54" fill="none" xmlns="http://www.w3.org/2000/svg">
<path fill-rule="evenodd" clip-rule="evenodd" d="M32.4616 10.0587C31.3753 10.4467 30.2487 12.4711 30.2487 14.035C30.2487 14.6721 30.2287 14.6714 29.2318 13.9947C28.2422 13.3231 28.0372 13.3131 27.291 13.9002C26.7774 14.3041 26.7079 14.5163 26.7079 15.6792C26.7079 16.5779 26.8542 17.2867 27.166 17.8977C27.4178 18.3914 27.5922 18.8163 27.5533 18.8415C27.5143 18.867 26.7356 19.0586 25.8227 19.2675C23.1019 19.8901 19.926 21.6033 17.8195 23.585C13.9718 27.2046 11.9726 31.0868 10.6776 37.4522C10.3806 38.9127 10.1067 40.9542 10.0688 41.9887L10 43.8698L13.1535 43.9311L16.307 43.9926L16.3078 43.2672C16.3094 42.062 16.9498 38.4356 17.4502 36.7987C18.8678 32.1625 21.3224 28.9732 24.7707 27.2873C27.1534 26.1224 28.8222 25.7675 31.9084 25.7692C35.3077 25.7715 37.3138 26.2065 39.9709 27.5184C44.9467 29.9752 47.7977 34.7955 48.333 41.6568L48.5056 43.8698L51.6591 43.9311L54.8126 43.9926L54.8108 42.4926C54.8062 38.7268 53.8836 34.2546 52.433 30.9673C49.9206 25.274 45.2747 21.1267 39.4699 19.3952C38.2171 19.0217 37.9856 18.8805 38.1186 18.5718C39.0359 16.4434 38.9704 14.5796 37.9518 13.819C37.3633 13.3799 37.3611 13.3799 36.4611 13.8252L35.5598 14.2711V13.7851C35.5598 11.8231 33.7192 9.60949 32.4616 10.0587ZM59.9557 20.4853C59.7364 20.6245 59.6893 23.1296 59.7344 32.2661L59.7918 43.8698L65.8186 43.9286C71.441 43.9835 71.9383 43.9563 73.232 43.523C76.9237 42.2864 79.6684 39.5299 80.9294 35.7924C81.3474 34.5532 81.4018 34.0015 81.3222 31.8091C81.2336 29.3748 81.1896 29.1796 80.3119 27.3163C78.6794 23.8506 75.5908 21.4307 71.8064 20.6524C70.5446 20.3931 68.8169 20.3025 65.1675 20.305C62.4542 20.307 60.1089 20.388 59.9557 20.4853ZM93.6285 20.5161C89.6881 21.1158 86.3184 23.5007 84.6332 26.8824C83.5829 28.9898 83.2758 30.5568 83.4287 33.0262C83.7385 38.0293 86.6784 41.8186 91.535 43.4743C93.549 44.1608 96.8543 44.1772 98.8292 43.5104C101.652 42.5568 103.887 40.8311 105.265 38.5403C108.199 33.6642 107.498 27.8129 103.506 23.8424C100.926 21.2769 97.0984 19.9879 93.6285 20.5161ZM109.796 20.5783C109.737 20.7305 109.716 26.0333 109.747 32.3623L109.805 43.8698L115.815 43.9286C121.673 43.986 121.863 43.974 123.282 43.4588C126.255 42.38 128.24 40.8002 129.714 38.3398C133.935 31.2977 129.912 22.3471 121.755 20.6345C119.695 20.2021 109.957 20.1563 109.796 20.5783ZM144.216 20.4364C140.642 20.999 138.887 21.8273 136.803 23.9354C134.423 26.3435 133.373 28.888 133.373 32.2517C133.373 35.5541 134.429 38.1621 136.692 40.4518C139.15 42.9377 141.636 43.9804 145.105 43.9804C148.611 43.9804 151.261 42.908 153.657 40.5189C159.173 35.0199 157.676 25.4099 150.745 21.8215C148.746 20.7865 145.869 20.1764 144.216 20.4364ZM70.8765 25.8622C72.2264 26.2021 73.8636 27.7049 74.5029 29.1907C75.4844 31.4723 75.3053 34.2418 74.0468 36.2437C72.7856 38.2497 71.3636 38.8906 68.174 38.8906H65.8774V32.2517V25.6128H67.8817C68.9842 25.6128 70.3319 25.725 70.8765 25.8622ZM96.3942 25.85C99.5486 26.5265 101.538 30.0055 100.851 33.6454C100.003 38.1384 95.4431 40.2598 91.998 37.7642C90.4783 36.6632 89.3349 34.2943 89.3349 32.2468C89.3349 31.0574 89.9895 28.9924 90.6691 28.038C91.3644 27.0614 92.5559 26.2353 93.7212 25.9215C95.0368 25.5672 95.0716 25.5663 96.3942 25.85ZM120.881 25.86C122.213 26.1952 123.69 27.5432 124.438 29.1062C124.948 30.1724 125.044 30.6659 125.05 32.2517C125.057 34.6326 124.486 36.0494 122.964 37.417C121.638 38.6095 120.696 38.8906 118.022 38.8906H115.89V32.2517V25.6128H117.895C118.997 25.6128 120.341 25.7239 120.881 25.86ZM147.697 26.3174C148.807 26.8357 149.629 27.7527 150.334 29.2642C150.749 30.152 150.851 30.7462 150.853 32.2716C150.855 33.9517 150.777 34.3301 150.178 35.5278C149.33 37.2264 148.234 38.1147 146.398 38.5929C145.083 38.9353 144.907 38.9346 143.709 38.5841C142.155 38.1293 140.872 37.0368 140.056 35.4744C139.544 34.4925 139.471 34.094 139.471 32.2517C139.471 29.9141 139.851 28.8486 141.198 27.4197C142.842 25.6736 145.391 25.2415 147.697 26.3174ZM26.8312 34.0714C26.5862 34.4208 26.4866 35.0962 26.4866 36.405C26.4866 38.0778 26.5377 38.298 27.0436 38.8038C27.6743 39.4345 28.3289 39.3741 28.9762 38.6255C29.7058 37.7817 29.4456 34.306 28.6111 33.7488C28.1072 33.4124 27.1744 33.5812 26.8312 34.0714ZM36.5815 33.9933C36.2723 34.335 36.2181 34.7891 36.2706 36.5913C36.3336 38.7514 36.3412 38.7784 36.9683 39.0785C37.5348 39.3493 37.6643 39.3354 38.1855 38.947C38.7323 38.5394 38.7726 38.3847 38.8325 36.4603C38.885 34.7804 38.8285 34.3328 38.5216 33.9937C38.0405 33.4622 37.0626 33.462 36.5815 33.9933Z" fill="#999999"/>
</svg>
