<svg width="289" height="40" viewBox="0 0 289 40" fill="none" xmlns="http://www.w3.org/2000/svg">
<path fill-rule="evenodd" clip-rule="evenodd" d="M20.4704 11.4153C19.7913 10.8198 19.0304 10.411 18.1976 10.1941C17.3881 9.98337 15.6171 9.95435 14.8303 10.1391C13.52 10.4468 12.2206 11.4889 11.6068 12.7247C11.3497 13.2419 11.3141 13.4918 11.3168 14.753C11.3205 16.4493 11.5136 17.0026 12.4513 18.0051C13.2188 18.8257 14.1632 19.4065 16.4617 20.4717C19.9839 22.1041 20.8628 23.0502 20.7342 25.0711C20.6457 26.4613 19.7764 27.4803 18.2732 27.956C17.2593 28.2768 15.2978 28.1645 14.3521 27.7315C13.3476 27.2717 12.6173 26.568 11.6913 25.168C11.6465 25.1002 10 26.0361 10 26.1292C10 26.3644 11.0577 27.7908 11.5412 28.2074C12.8786 29.3603 14.2747 29.8897 16.2178 29.981C17.9173 30.0609 18.8696 29.8976 20.0853 29.3174C21.1849 28.7925 22.1128 27.8316 22.5243 26.7914C22.7579 26.2012 22.808 25.8376 22.8045 24.7593C22.7991 23.017 22.5282 22.2985 21.4442 21.1514C20.5137 20.1666 19.6345 19.6244 16.9418 18.3748C15.2718 17.5996 14.8235 17.3317 14.2332 16.7561C13.2974 15.8439 13.0612 15.0193 13.3901 13.8149C13.7312 12.5661 14.7993 11.8757 16.379 11.8829C17.8139 11.8894 18.9032 12.4003 19.608 13.3971C19.7926 13.6584 19.9915 13.8733 20.0499 13.8748C20.2074 13.8787 21.6323 12.981 21.6323 12.8778C21.6323 12.7063 20.9195 11.809 20.4704 11.4153ZM44.9728 11.526C43.9021 10.8099 43.0924 10.4777 41.7324 10.1967C40.5808 9.95885 38.2596 9.95285 37.2045 10.185C32.4562 11.2298 29.3871 15.0856 29.3871 20.0063C29.3871 24.5389 31.8913 28.071 36.1414 29.533C37.2867 29.927 37.4018 29.9419 39.3309 29.9459C41.6829 29.9508 42.352 29.8097 44.137 28.9329C45.0904 28.4647 45.5151 28.1573 46.3572 27.3266C46.9299 26.7616 47.3984 26.2143 47.3984 26.1102C47.3984 26.0063 47.0587 25.6828 46.6435 25.3916L45.8885 24.8621L45.6183 25.2172C44.2648 26.9964 42.2839 27.9948 39.8937 28.102C37.3755 28.215 35.526 27.5361 33.8872 25.8973C32.2697 24.2798 31.5832 22.5246 31.5832 20.0063C31.5832 17.4879 32.2697 15.7327 33.8872 14.1152C35.4052 12.5973 37.1912 11.8806 39.456 11.8806C41.6292 11.8806 43.3704 12.5752 44.8133 14.0181C45.3549 14.5597 45.7281 14.8424 45.8243 14.7836C46.2912 14.4983 47.1483 13.8211 47.1483 13.7376C47.1483 13.4539 45.7884 12.0714 44.9728 11.526ZM69.6295 29.6999L65.4999 19.8499C62.8429 13.5122 61.3085 10 61.1967 10C61.1013 10 60.9084 10.2673 60.7681 10.5941C60.4781 11.2698 53.1799 29.0494 53.0153 29.481C52.9095 29.7588 52.9213 29.7624 53.9369 29.7608L54.9657 29.759L57.7465 22.7876C59.276 18.9532 60.6415 15.4784 60.7811 15.0657C60.9205 14.6529 61.0679 14.2308 61.1085 14.1276C61.1513 14.0186 61.3529 14.4387 61.589 15.1282C61.9667 16.2319 67.3448 29.6128 67.455 29.723C67.4823 29.7503 67.9827 29.7563 68.567 29.7362L69.6295 29.6999ZM110.689 29.6735C110.69 29.6192 108.846 25.1713 106.593 19.7893C103.729 12.9489 102.438 10.0031 102.306 10.0019C102.171 10.0005 100.958 12.8216 98.1526 19.6623C95.9729 24.9766 94.1517 29.4256 94.1056 29.5488C94.0287 29.7549 94.1065 29.77 95.0668 29.7364L96.1117 29.6999L98.8313 22.8831C100.327 19.1339 101.705 15.6023 101.892 15.035C102.08 14.4678 102.272 14.0457 102.318 14.0969C102.364 14.1482 102.551 14.6404 102.734 15.1908C102.916 15.7411 104.295 19.2308 105.796 22.9456L108.527 29.6999L109.607 29.736C110.202 29.7559 110.689 29.7277 110.689 29.6735ZM165.003 12.5097C163.831 11.3565 162.773 10.732 161.282 10.3131C160.204 10.01 157.184 9.94397 156.029 10.1981C152.919 10.8821 150.254 13.0607 149.065 15.8918C148.488 17.2649 148.298 18.2827 148.298 20.0063C148.298 22.9621 149.225 25.2865 151.164 27.1949C153.188 29.187 155.737 30.111 158.834 29.9751C161.164 29.873 162.813 29.3156 164.445 28.0787C165.142 27.5509 166.349 26.2511 166.348 26.0298C166.347 25.9845 166.009 25.7159 165.596 25.4327L164.844 24.9177L163.876 25.8746C162.309 27.4235 160.566 28.1364 158.343 28.1364C155.288 28.1364 152.623 26.5371 151.342 23.9335C150.677 22.5839 150.425 21.3103 150.491 19.6398C150.582 17.3285 151.321 15.5363 152.768 14.1141C154.196 12.7102 155.82 12.0153 157.922 11.9088C160.311 11.7879 162.226 12.4857 163.753 14.0343L164.602 14.8954L165.346 14.3552C165.756 14.058 166.092 13.7635 166.094 13.7007C166.096 13.6379 165.605 13.1019 165.003 12.5097ZM188.466 29.596C188.443 29.499 186.595 25.0514 184.359 19.7127C181.484 12.8464 180.238 10.005 180.101 10.003C179.963 10.0009 178.796 12.7128 175.946 19.6623C173.767 24.9766 171.947 29.4256 171.902 29.5488C171.827 29.7545 171.905 29.77 172.85 29.7364L173.88 29.6999L174.729 27.5735L175.577 25.4472L180.079 25.4144L184.581 25.3815L185.446 27.5407L186.312 29.6999L187.409 29.7361C188.303 29.7656 188.499 29.7396 188.466 29.596ZM255.466 19.7561C253.285 14.5622 251.472 10.2424 251.438 10.1563C251.321 9.86754 251.015 9.9965 250.844 10.4065C250.482 11.272 243.115 29.215 243.012 29.481C242.903 29.759 242.915 29.7624 243.941 29.7624H244.98L245.845 27.5729L246.711 25.3835L251.204 25.4153L255.698 25.4472L256.571 27.6048L257.443 29.7624H258.547C259.64 29.7624 259.649 29.7599 259.54 29.481C259.48 29.3261 257.647 24.95 255.466 19.7561ZM79.0433 28.0113V19.1307V10.2502H77.9801H76.9169V20.0063V29.7624H82.5455H88.174V28.8868V28.0113H83.6086H79.0433ZM130.356 13.5918C129.61 11.9961 128.322 10.9956 126.373 10.4972C125.519 10.2788 124.983 10.2502 121.738 10.2502H118.068V20.0063V29.7624H119.068H120.069V25.9475V22.1326L122.352 22.1366L124.634 22.1406L126.823 25.9467L129.012 29.753L130.232 29.7576C130.902 29.7603 131.451 29.7346 131.451 29.7006C131.451 29.6666 130.474 27.9922 129.281 25.9795C128.087 23.9669 127.046 22.1976 126.967 22.0478C126.834 21.7949 126.874 21.7524 127.525 21.4544C129.151 20.7098 130.218 19.5132 130.638 17.9615C130.808 17.3336 130.846 16.8319 130.802 15.7854C130.753 14.5906 130.699 14.3238 130.356 13.5918ZM208.498 16.2589C208.494 13.2265 206.961 11.2427 204.048 10.4976C203.192 10.2787 202.658 10.2502 199.411 10.2502H195.741V20.0063V29.7624H196.805H197.868V26.0862V22.4099L200.651 22.3544C203.216 22.3031 203.51 22.2737 204.402 21.979C207.148 21.0727 208.502 19.182 208.498 16.2589ZM218.256 29.7624V20.0063V10.2502H217.192H216.129V20.0063V29.7624H217.192H218.256ZM239.644 11.9968V11.1235V10.2502H232.577H225.51V11.1257V12.0013H228.512H231.514V20.8818V29.7624H232.576H233.639L233.671 20.9131L233.703 12.0638L236.673 12.0303L239.644 11.9968ZM269.037 28.0113V19.1307V10.2502H267.974H266.911V20.0063V29.7624H272.602H278.293V28.8868V28.0113H273.665H269.037ZM120.069 16.2123C120.069 13.9879 120.106 12.1305 120.152 12.0847C120.282 11.9552 123.641 11.9864 124.825 12.1281C127.353 12.4304 128.699 13.8425 128.699 16.1914C128.699 17.7032 128.08 18.9487 127.018 19.571C126.031 20.1492 125.359 20.2533 122.602 20.2549L120.069 20.2564V16.2123ZM197.868 16.3373C197.868 14.0442 197.91 12.124 197.962 12.0702C198.125 11.8993 202.742 12.0907 203.484 12.2991C205.515 12.8697 206.495 14.3741 206.345 16.6883C206.218 18.6537 205.192 19.8527 203.244 20.3117C202.674 20.4462 201.756 20.5035 200.15 20.5047L197.868 20.5066V16.3373ZM177.966 19.4756C178.852 17.2564 179.678 15.1198 179.8 14.7273C179.923 14.3348 180.064 14.0384 180.112 14.0686C180.161 14.0987 180.268 14.388 180.349 14.7116C180.431 15.0352 181.225 17.0993 182.115 19.2986C183.006 21.4978 183.734 23.373 183.734 23.4654C183.734 23.6024 183.05 23.6335 180.044 23.6335C178.015 23.6335 176.354 23.6058 176.354 23.5719C176.354 23.5379 177.079 21.6946 177.966 19.4756ZM250.837 14.8781C250.959 14.4997 251.09 14.1371 251.127 14.0722C251.165 14.0073 251.346 14.4013 251.53 14.9477C251.714 15.4942 252.548 17.6378 253.384 19.7115C254.22 21.7851 254.903 23.5158 254.903 23.5576C254.903 23.5994 253.243 23.6335 251.214 23.6335C248.987 23.6335 247.524 23.5868 247.524 23.5156C247.524 23.4508 248.219 21.6355 249.069 19.4818C249.919 17.3281 250.714 15.2564 250.837 14.8781ZM62.209 24.2433C61.8245 23.3232 61.4806 22.5001 61.4451 22.414C61.3743 22.2428 61.0798 22.2023 60.991 22.3515C60.9005 22.5033 59.531 25.8748 59.531 25.9455C59.531 25.981 60.2909 26.01 61.2196 26.01C62.1483 26.01 62.9082 25.9889 62.9082 25.9631C62.9082 25.9374 62.5936 25.1635 62.209 24.2433ZM104.025 25.8537C103.991 25.7678 103.64 24.9235 103.244 23.9775C102.805 22.9281 102.456 22.2577 102.349 22.2577C102.253 22.2577 102.059 22.525 101.919 22.8518C101.387 24.0915 100.682 25.8428 100.682 25.9247C100.682 25.9716 101.448 26.01 102.384 26.01C103.694 26.01 104.072 25.9741 104.025 25.8537Z" fill="#999999"/>
</svg>
