<svg width="92" height="64" viewBox="0 0 92 64" fill="none" xmlns="http://www.w3.org/2000/svg">
<path fill-rule="evenodd" clip-rule="evenodd" d="M30.0607 15.2403C29.8475 11.9572 28.8548 10.5702 26.4058 10.1334C24.6137 9.81389 22.929 10.0747 21.8018 10.8463C20.8696 11.4845 20.3567 12.4098 20.0454 14.0157C19.8687 14.9276 19.8506 15.4822 19.8518 19.9682C19.853 24.4858 19.8702 24.9981 20.0502 25.8701C20.6292 28.6784 22.3294 30.0345 25.0635 29.8688C26.4104 29.7873 27.3166 29.2031 27.9793 27.9892L28.2767 27.4446L28.3369 27.8887C28.37 28.1329 28.4305 28.6268 28.4712 28.9861L28.5454 29.6395L29.3746 29.6687L30.2039 29.6979V24.8689V20.04H27.7412H25.2785V20.9949V21.9499H26.535H27.7915L27.788 23.2817C27.7821 25.4894 27.4902 26.6017 26.7447 27.2562C26.3328 27.618 25.8351 27.7788 25.1277 27.7788C23.552 27.7788 22.7985 27.0101 22.5698 25.1691C22.4316 24.0571 22.4312 15.6221 22.5692 14.5214C22.7023 13.46 23.0233 12.8006 23.5889 12.4263C23.9793 12.1679 24.0786 12.1493 25.0701 12.1493C25.9611 12.1493 26.1897 12.1827 26.4844 12.3558C27.2026 12.7778 27.4311 13.3979 27.5509 15.2513L27.6201 16.3208H28.8755H30.1308L30.0607 15.2403ZM17.8402 12.0955V11.1423V10.1892H14.0707H10.3013V19.9395V29.6898H14.121H17.9407V28.7349V27.7799H15.478H13.0153V24.1613V20.5426H14.9754H16.9355V19.5877V18.6328H14.974H13.0125L13.039 15.391L13.0655 12.1493L15.4529 12.1224L17.8402 12.0955ZM35.8329 29.6898V19.9395V10.1892H34.5262H33.2195V19.9395V29.6898H34.5262H35.8329ZM48.4091 13.3053C47.877 11.5553 46.8893 10.7272 44.8788 10.3458C44.2699 10.2303 43.3963 10.1892 41.5514 10.1892H39.0495V19.9395V29.6898H40.4065H41.7635V25.0659V20.4421H42.8149H43.8664L43.9786 20.819C44.0405 21.0264 44.62 23.0958 45.2667 25.4177L46.4422 29.6395L47.7215 29.6677C48.4252 29.6831 49.0008 29.6766 49.0008 29.6532C49.0008 29.6297 48.3902 27.4465 47.6438 24.8017C46.8975 22.1567 46.2868 19.9636 46.2868 19.928C46.2868 19.8925 46.4338 19.8027 46.6135 19.7286C47.0903 19.532 47.7776 18.8606 48.0475 18.3281C48.4765 17.4815 48.6351 16.6705 48.6368 15.3157C48.638 14.2922 48.5957 13.9194 48.4091 13.3053ZM54.2278 27.7799V18.9846V10.1892H52.921H51.6143V19.9395V29.6898H55.434H59.2537V28.7349V27.7799H56.7407H54.2278ZM41.7635 18.6328V15.3541V12.0754L43.0451 12.1158C44.6094 12.165 45.1348 12.3631 45.5851 13.0732C46.252 14.1247 46.2444 16.591 45.5714 17.5743C45.0987 18.265 43.9515 18.6292 42.241 18.632L41.7635 18.6328ZM18.7405 35.3358C18.2444 34.8424 17.8311 34.6086 17.0399 34.374C16.3895 34.1812 14.7832 34.0907 14.0609 34.2061C11.6568 34.5901 10.494 35.9322 10.107 38.7688C9.96355 39.8207 9.96466 48.3657 10.1084 49.3218C10.5696 52.3887 11.9522 53.7861 14.7174 53.9798C16.9978 54.1395 18.6839 53.3446 19.4024 51.7711C19.8665 50.7551 19.9785 50.1333 20.0261 48.3108L20.0715 46.5768H18.8161H17.5606L17.5202 48.4113C17.485 50.0023 17.452 50.3058 17.2709 50.6981C16.887 51.5298 16.269 51.9043 15.2802 51.9043C14.2032 51.9043 13.4754 51.5184 13.0827 50.7393C12.7425 50.064 12.7023 49.2422 12.7366 43.6618C12.7745 37.5029 12.7752 37.4972 13.4897 36.8087C13.9287 36.3856 14.423 36.2248 15.2871 36.2241C16.3364 36.2231 16.8608 36.5027 17.2649 37.2789C17.4477 37.63 17.4799 37.9069 17.5189 39.4652L17.5635 41.2494H18.8076H20.0516V39.8487C20.0516 37.6195 19.6513 36.2418 18.7405 35.3358ZM32.5766 53.6383C32.5143 53.4322 28.7346 35.7445 28.5707 34.8916L28.4596 34.3136H27.1675C26.2231 34.3136 25.864 34.3474 25.8334 34.4393C25.8104 34.5084 25.6959 35.0172 25.579 35.5701C25.4621 36.1229 24.5551 40.3878 23.5635 45.0477C22.5718 49.7075 21.7604 53.5876 21.7604 53.6702C21.7604 53.7968 21.9537 53.8159 22.9892 53.7921L24.218 53.7639L24.6775 51.3515L25.1371 48.939L27.1679 48.9118C28.2848 48.8968 29.1987 48.9131 29.1987 48.9478C29.1987 49.0621 30.0096 53.4582 30.0639 53.6383C30.1107 53.7936 30.264 53.8142 31.3734 53.8142C32.5234 53.8142 32.6254 53.7993 32.5766 53.6383ZM44.1847 38.5354C43.9117 36.411 43.0712 35.1789 41.4954 34.5933C40.9501 34.3905 40.6895 34.3726 37.7679 34.3368L34.6267 34.2984V44.0563V53.8142H35.9837H37.3407V49.2518V44.6894L39.1249 44.6447C41.1419 44.5941 41.6065 44.4766 42.511 43.7882C43.8587 42.7624 44.4782 40.8183 44.1847 38.5354ZM47.6941 53.8142H49.0008V44.0639V34.3136H47.6941H46.3874V44.0639V53.8142H47.6941ZM60.2589 36.2235V35.2685V34.3136H55.635H51.0112V35.2685V36.2235H52.6697H54.3283V45.0188V53.8142H55.6853H57.0423V45.0188V36.2235H58.6506H60.2589ZM69.8094 43.8316C68.703 38.6452 67.7977 34.3821 67.7977 34.3577C67.7977 34.3335 67.2146 34.3136 66.5019 34.3136C65.2417 34.3136 65.2045 34.3198 65.15 34.5398C65.1191 34.6642 64.3216 38.4072 63.3777 42.8577C62.4338 47.3081 61.5268 51.5735 61.3623 52.3362C61.1977 53.0991 61.063 53.7436 61.063 53.7686C61.063 53.7937 61.6219 53.8142 62.305 53.8142H63.5471L63.9244 51.8289C64.1317 50.737 64.3457 49.6279 64.3998 49.3642L64.4981 48.8846L66.5187 48.9119L68.5392 48.939L68.767 50.1955C68.8924 50.8866 69.0922 51.9835 69.2111 52.6331L69.4273 53.8142H70.6811H71.935L71.8781 53.5377C71.8467 53.3858 70.9159 49.0179 69.8094 43.8316ZM76.6434 51.9043V43.109V34.3136H75.3366H74.0299V44.0639V53.8142H77.8496H81.6693V52.8592V51.9043H79.1563H76.6434ZM37.3407 42.78V39.4905V36.2011L38.7731 36.2424C39.999 36.2776 40.2658 36.3151 40.6242 36.5026C41.4515 36.9351 41.6871 37.5828 41.693 39.44C41.6988 41.2982 41.4267 42.0065 40.5263 42.4763C40.1682 42.6632 39.8975 42.7025 38.7228 42.7381L37.3407 42.78ZM25.5172 46.803C25.5454 46.7063 25.9186 44.7167 26.3464 42.3817C26.7743 40.0468 27.1392 38.1512 27.1574 38.1693C27.1919 38.2039 28.7967 46.744 28.7967 46.8932C28.7967 46.9403 28.0473 46.9789 27.1314 46.9789C25.5928 46.9789 25.4699 46.9655 25.5172 46.803ZM64.8827 46.8825C64.8827 46.7172 66.398 38.4936 66.4578 38.3343C66.4889 38.2514 66.5298 38.2288 66.5486 38.2841C66.622 38.4997 68.0993 46.5945 68.0993 46.7809C68.0993 46.9697 68.024 46.9789 66.491 46.9789C65.5314 46.9789 64.8827 46.94 64.8827 46.8825Z" fill="#999999"/>
</svg>
