<svg width="147" height="60" viewBox="0 0 147 60" fill="none" xmlns="http://www.w3.org/2000/svg">
<path fill-rule="evenodd" clip-rule="evenodd" d="M31.1142 10.0634C29.2006 10.2484 27.7393 11.0846 26.5844 12.6557C24.7881 15.0992 24.7235 19.4774 26.4465 21.9929C27.1909 23.0797 28.3278 23.9053 29.6531 24.3216C30.4936 24.5857 31.1268 24.6623 32.1239 24.6208C33.7548 24.5529 35.059 24.0247 36.2231 22.9608C37.2207 22.0491 38.0375 20.4399 38.3174 18.8347C38.6594 16.8733 38.1659 14.2721 37.1659 12.7655C36.1469 11.2302 34.4814 10.2643 32.5032 10.0613C32.1288 10.0229 31.7879 9.99556 31.7457 10.0006C31.7034 10.0056 31.4192 10.0339 31.1142 10.0634ZM73.0881 10.1626C71.2687 10.4922 69.4704 11.5734 68.4579 12.9468C66.9796 14.9518 66.6835 18.0053 67.7168 20.5861C68.7934 23.2747 72.0222 25.1285 75.0231 24.781C76.4331 24.6178 77.4025 24.1575 78.3659 23.1943C79.2766 22.2837 79.6637 21.5223 79.8224 20.3304C79.9039 19.7184 79.9036 19.716 79.743 19.5859C79.549 19.4288 79.165 19.469 78.9988 19.6636C78.9404 19.732 78.8586 20.0285 78.817 20.3227C78.6161 21.7429 77.8694 22.8123 76.6536 23.4209C75.9626 23.7667 75.5044 23.8589 74.704 23.8134C73.5185 23.7459 72.4707 23.2841 71.7461 22.5099C71.2686 21.9997 70.9952 21.4525 70.7788 20.5739C70.4902 19.4022 70.4374 18.8589 70.4388 17.08C70.44 15.6174 70.4599 15.2966 70.5927 14.5985C70.7855 13.5856 71.0602 13.0352 71.6846 12.4108C72.4787 11.6167 73.543 11.1799 74.6704 11.1854C75.4491 11.1892 76.0143 11.3649 76.6797 11.8099C77.728 12.5111 78.2698 13.4018 78.5346 14.8592C78.6737 15.6246 78.7366 15.7026 79.2147 15.7026C79.7558 15.7026 79.7432 15.7657 79.7432 13.0437C79.7432 11.5221 79.7174 10.6092 79.6704 10.4746C79.5284 10.0672 79.2442 10.1312 78.4937 10.7394C77.8503 11.261 77.7783 11.2724 77.2506 10.9367C76.0694 10.1851 74.5371 9.90015 73.0881 10.1626ZM104.637 10.1221C104.563 10.1524 104.452 10.2337 104.39 10.3027C104.277 10.4283 102.198 16.1904 100.7 20.5295C100.262 21.7985 99.8378 22.9435 99.7573 23.0739C99.5642 23.3862 99.1731 23.5602 98.6572 23.5633C97.9276 23.5676 97.853 23.6301 97.9256 24.1771L97.9691 24.5045H100.204C102.688 24.5045 102.521 24.5383 102.521 24.0369C102.521 23.8966 102.479 23.747 102.427 23.7043C102.376 23.6617 102.094 23.5995 101.801 23.5661C101.508 23.5327 101.193 23.4863 101.1 23.4631L100.932 23.4208L101.336 22.2325C101.559 21.579 101.788 21.0074 101.845 20.9624C101.998 20.843 106.172 20.841 106.265 20.9602C106.3 21.0065 106.452 21.407 106.603 21.8505C106.753 22.294 106.953 22.8609 107.047 23.1103L107.218 23.5638H106.587C105.925 23.5638 105.654 23.6239 105.593 23.7838C105.573 23.8364 105.586 24.0202 105.623 24.1921L105.689 24.5045H108.833H111.976L112.019 24.1955C112.088 23.6904 112.048 23.6646 111.195 23.6646C110.487 23.6646 110.445 23.6567 110.279 23.491C110.162 23.3739 110.042 23.1008 109.91 22.6511C109.803 22.2847 109.503 21.3953 109.243 20.6747C108.688 19.1345 107.194 14.8582 106.344 12.3767C106.015 11.4159 105.704 10.5542 105.653 10.4618C105.479 10.1487 104.98 9.98192 104.637 10.1221ZM10 10.6267V11.1337H10.8295C11.5477 11.1337 11.6738 11.1502 11.7701 11.2566C11.8718 11.369 11.8813 11.8971 11.8813 17.4717V23.5638H10.9407H10V24.0342V24.5045H13.4603H16.9206V24.0342V23.5638H15.9559H14.9912L14.948 23.1508C14.9243 22.9237 14.9049 21.7794 14.9049 20.608C14.9049 18.5316 14.9084 18.4751 15.0456 18.3509C15.1701 18.2382 15.346 18.2181 16.5741 18.1764C18.1012 18.1245 19.0706 18.0315 19.6596 17.8802C21.0978 17.5108 22.1516 16.477 22.4693 15.1239C22.6292 14.4427 22.5721 13.3961 22.3423 12.7983C21.8613 11.5467 20.8625 10.6844 19.4662 10.3152C18.9162 10.1697 18.7958 10.1656 14.4513 10.1428L10 10.1196V10.6267ZM61.1092 10.3722C61.0846 10.3968 61.0644 10.5941 61.0644 10.8106C61.0644 11.2724 61.0597 11.2691 61.9249 11.4017C62.3828 11.4719 62.4758 11.5061 62.4429 11.5919C62.3768 11.764 59.3042 17.2074 59.2223 17.2973C59.1648 17.3605 58.8678 16.9138 57.9723 15.4176C57.3264 14.3382 56.5189 13.0328 56.1779 12.5168C55.8369 12.0008 55.5699 11.5666 55.5845 11.5519C55.5991 11.5374 55.931 11.4922 56.322 11.4517L57.033 11.3779V10.9535V10.529H53.8415H50.65V10.9657V11.4025H51.2424C51.9218 11.4025 52.4435 11.5333 52.6441 11.754C52.7889 11.9133 54.4531 14.7271 55.9333 17.3152L56.7979 18.827L56.8175 20.9434C56.8284 22.1075 56.821 23.125 56.8011 23.2044C56.7475 23.4189 56.4313 23.4967 55.612 23.4967H54.8829V23.9334V24.3701H58.1712H61.4593L61.5063 24.0565C61.5799 23.566 61.5344 23.5354 60.6734 23.4967C60.0766 23.4698 59.9027 23.439 59.8069 23.3431C59.6968 23.2327 59.687 23.0447 59.687 21.025V18.827L59.8573 18.491C59.9509 18.3062 60.477 17.384 61.0265 16.4417C61.5759 15.4994 62.313 14.1744 62.6644 13.4973C63.6023 11.6906 63.9569 11.3524 64.995 11.2747L65.5326 11.2345L65.5524 10.7809L65.5723 10.3274H63.3631C62.1481 10.3274 61.1338 10.3476 61.1092 10.3722ZM131.748 10.7977C131.748 11.0564 131.771 11.2698 131.799 11.272C131.826 11.2741 132.189 11.3003 132.604 11.3302C133.027 11.3606 133.403 11.4213 133.46 11.468C133.673 11.6451 133.696 12.0466 133.696 15.594C133.697 18.9608 133.663 19.6714 133.501 19.6654C133.361 19.66 132.854 18.9918 130.108 15.1987C128.424 12.8706 126.969 10.8838 126.876 10.7837C126.782 10.6836 126.593 10.5704 126.456 10.5321C126.307 10.4908 125.325 10.4624 124.038 10.4622L121.871 10.4618V10.9413V11.4209L122.673 11.3879C123.114 11.3697 123.507 11.3753 123.548 11.4002C123.588 11.4251 123.65 11.549 123.687 11.6755C123.759 11.9288 123.767 22.7218 123.694 23.0528C123.624 23.3767 123.391 23.4901 122.657 23.5595C122.294 23.5937 121.954 23.6577 121.901 23.7018C121.785 23.7976 121.777 24.0045 121.878 24.2937L121.952 24.5062L124.381 24.4885L126.81 24.4709L126.79 24.1014C126.778 23.8981 126.739 23.702 126.703 23.6656C126.667 23.6292 126.318 23.5838 125.928 23.5648C125.116 23.5253 125.002 23.4538 124.929 22.9395C124.907 22.784 124.898 20.3589 124.909 17.5503L124.929 12.4439L126.411 14.426C129.61 18.7043 133.365 23.8659 133.414 24.0545C133.452 24.2009 133.956 24.4373 134.23 24.4373C134.333 24.4373 134.472 24.3746 134.543 24.296C134.667 24.1596 134.672 23.9317 134.705 17.9568C134.741 11.3388 134.724 11.639 135.058 11.4604C135.129 11.4225 135.509 11.356 135.903 11.3128L136.62 11.2343L136.639 10.7808L136.659 10.3274H134.204H131.748V10.7977ZM116.782 10.445L113.54 10.4631V10.9404V11.4178L114.461 11.3933L115.382 11.3689L115.468 11.5368C115.538 11.6709 115.552 12.8659 115.539 17.4645L115.522 23.2242L115.369 23.3773C115.231 23.5157 115.136 23.5334 114.375 23.5638C113.376 23.6038 113.329 23.6372 113.447 24.2274L113.489 24.4373H116.941H120.393V24.0701C120.393 23.5788 120.324 23.5461 119.34 23.5749C118.639 23.5954 118.56 23.5855 118.473 23.467C118.392 23.3567 118.378 22.4185 118.378 17.3713V11.4059L119.402 11.3874L120.427 11.3689L120.419 10.9835C120.411 10.5771 120.314 10.384 120.133 10.4107C120.073 10.4196 118.565 10.4351 116.782 10.445ZM40.4371 10.9321V11.4025H41.3441H42.2512L42.2502 17.2984C42.2495 21.9129 42.2308 23.2308 42.1643 23.3623C42.0811 23.5271 42.0629 23.5306 41.1911 23.549L40.3027 23.5677V24.0361V24.5045H45.3702H50.4377L50.4756 24.3197C50.4964 24.2181 50.5753 23.5605 50.6508 22.8584C50.7264 22.1562 50.8478 21.0444 50.9206 20.3878C51.1007 18.765 51.1274 18.9172 50.6668 18.9412L50.2804 18.9613L50.2736 19.3645C50.2644 19.9 49.9757 20.9099 49.6301 21.6153C49.0108 22.8795 48.0362 23.4477 46.3235 23.5432C45.7075 23.5775 45.6287 23.5682 45.4763 23.444L45.3084 23.307L45.2895 17.3548L45.2706 11.4025H46.5157H47.7608V10.9321V10.4618H44.0989H40.4371V10.9321ZM81.423 10.8985V11.3353H82.2581C83.2094 11.3353 83.2711 11.3631 83.3374 11.8232C83.3599 11.9798 83.3693 14.6543 83.3582 17.7664C83.3393 23.0373 83.3299 23.4327 83.221 23.5416C83.1259 23.6367 82.9473 23.6637 82.2635 23.6865L81.423 23.7144V24.1431V24.5717H84.7489H88.0748V24.2486C88.0748 23.7481 88.0222 23.7158 87.1555 23.6832C86.6757 23.6652 86.366 23.6234 86.2988 23.5676C86.2063 23.4909 86.1936 23.1476 86.1945 20.7505C86.1951 19.1499 86.2218 17.979 86.2592 17.9199C86.313 17.8346 86.6771 17.8139 88.6266 17.7855C89.8937 17.767 90.9943 17.7723 91.0724 17.7971C91.1505 17.8221 91.2332 17.9128 91.2563 17.9987C91.2792 18.0847 91.2985 19.372 91.299 20.8595L91.2999 23.5638H90.4624C89.4314 23.5638 89.3998 23.5915 89.5975 24.3203C89.6277 24.4315 89.8287 24.4375 92.934 24.4211L96.2384 24.4037L96.2591 24.0793C96.291 23.5791 96.244 23.5533 95.3305 23.5704C94.8993 23.5785 94.5115 23.5634 94.4686 23.5369C94.4104 23.501 94.3907 21.9848 94.3907 17.5592C94.3907 12.5484 94.4055 11.6095 94.4859 11.4993C94.5697 11.3844 94.6822 11.3662 95.4265 11.3466L96.272 11.3243V10.893V10.4618H92.9461H89.6202V10.8967V11.3316L90.5776 11.3502L91.5351 11.3689L91.5526 14.0733L91.5702 16.7777H89.1842C86.8878 16.7777 86.7932 16.7726 86.6638 16.6433C86.5345 16.5139 86.5294 16.4193 86.5294 14.105C86.5294 12.0381 86.5441 11.6802 86.6341 11.5518C86.733 11.4105 86.7858 11.4025 87.6083 11.4025H88.478V10.9321V10.4618H84.9505H81.423V10.8985ZM16.3831 11.1352C18.3355 11.2769 18.7095 11.4303 19.0842 12.2431C19.2247 12.5479 19.2406 12.6923 19.2607 13.8378C19.2865 15.3149 19.2101 15.9325 18.9427 16.4081C18.5702 17.0707 17.7759 17.2745 15.8613 17.1987L14.9049 17.1608V14.0742V10.9875L15.1568 11.0261C15.2954 11.0472 15.8472 11.0964 16.3831 11.1352ZM32.4386 11.206C33.3751 11.4218 34.1484 12.1421 34.5879 13.2076C34.8428 13.8258 34.9718 14.3679 35.128 15.4771C35.4896 18.0446 35.3077 20.2578 34.6207 21.6489C34.2228 22.4546 33.597 23.2963 33.2006 23.5589C32.131 24.2673 30.7895 24.0396 29.8266 22.986C28.7789 21.8397 28.4307 20.5216 28.3618 17.4422C28.3036 14.8453 28.428 14.0474 29.0716 12.8885C29.5763 11.9795 30.2651 11.383 31.0134 11.2067C31.3643 11.1239 32.0811 11.1236 32.4386 11.206ZM104.882 16.3241C105.235 17.3681 105.647 18.5624 105.799 18.9781L106.074 19.734L105.322 19.7337C104.55 19.7335 102.448 19.6168 102.403 19.5717C102.389 19.5578 102.741 18.4926 103.185 17.2046C104.209 14.2323 104.138 14.426 104.193 14.426C104.219 14.426 104.529 15.2801 104.882 16.3241ZM39.5818 35.0309C39.4659 35.0871 39.1247 35.3617 38.8238 35.6413L38.2767 36.1497L37.7947 35.9291C36.6699 35.4144 35.7811 35.175 34.6547 35.0836C33.1912 34.9649 31.2626 35.5195 29.9959 36.4234C28.865 37.2303 27.9801 38.4348 27.5468 39.7566C27.2032 40.8048 27.1058 41.4697 27.1087 42.7466C27.1111 43.8338 27.1291 44.0225 27.2873 44.6141C28.0247 47.3724 29.8237 49.1592 32.5619 49.8528C33.0619 49.9795 33.3277 50.0009 34.39 50C35.5737 49.999 35.6587 49.99 36.1705 49.8124C37.5849 49.3215 38.7665 48.2834 39.3951 46.9796C39.8203 46.0977 40.0227 45.017 39.83 44.6571C39.7284 44.4673 39.2859 44.4797 39.0735 44.6783C38.9454 44.798 38.8965 44.9429 38.8384 45.3744C38.7032 46.3797 38.3444 47.1348 37.6785 47.8154C36.9235 48.5872 36.0626 48.9614 34.9238 49.0129C33.6136 49.0723 32.5784 48.6897 31.6945 47.8195C30.9423 47.079 30.6359 46.3861 30.3427 44.7623C30.2272 44.1222 30.2316 41.2192 30.3496 40.2707C30.5243 38.8663 30.939 37.9572 31.7979 37.0959C32.6178 36.2735 33.5521 35.9315 35.011 35.9194C35.8308 35.9126 36.1836 35.9804 36.7066 36.2455C37.5751 36.6855 38.3928 37.9853 38.7547 39.5007C38.9895 40.484 39.102 40.6301 39.6242 40.6301C40.1906 40.6301 40.1683 40.7422 40.1683 37.8912C40.1683 36.4753 40.1407 35.3253 40.1044 35.2298C40.008 34.9764 39.8323 34.9096 39.5818 35.0309ZM48.9723 35.4397C48.802 35.5958 48.6294 36.0302 47.8583 38.2449C46.1264 43.2182 45.8651 43.9633 45.1657 45.9213C44.7796 47.0022 44.4083 48.015 44.3405 48.1721C44.1292 48.6614 44.0271 48.7125 43.1914 48.7469C42.311 48.7832 42.269 48.8118 42.3853 49.2962L42.4662 49.6336H44.7104H46.9545V49.2008C46.9545 48.9628 46.9291 48.7523 46.898 48.7331C46.867 48.714 46.5653 48.6614 46.2277 48.6165C45.89 48.5715 45.5752 48.5106 45.5283 48.4811C45.4129 48.4087 46.1177 46.3059 46.33 46.0893C46.4775 45.9387 46.487 45.9381 48.6144 45.9391C49.7894 45.9397 50.7878 45.9637 50.8331 45.9925C50.8783 46.0212 51.0646 46.4819 51.247 47.0161C51.4292 47.5504 51.6416 48.1473 51.7189 48.3427C51.7962 48.538 51.8594 48.7119 51.8594 48.729C51.8594 48.7461 51.4966 48.7601 51.0531 48.7601H50.2468L50.2362 49.0121C50.2191 49.4158 50.2423 49.5275 50.3617 49.6168C50.4477 49.681 51.1734 49.7008 53.4474 49.7008H56.4207L56.5253 49.5514C56.6722 49.3417 56.6577 48.9895 56.4955 48.8273C56.3811 48.7129 56.2716 48.6929 55.7602 48.6929C55.2331 48.6929 55.1375 48.6742 54.9827 48.5411C54.8375 48.4162 54.4097 47.2604 52.5639 42.0069C50.0384 34.8181 50.2339 35.2549 49.5413 35.2549C49.2341 35.2549 49.1409 35.2852 48.9723 35.4397ZM100.043 35.5265C99.5603 35.6347 99.7055 35.288 97.373 41.9016C95.5169 47.1641 95.0486 48.4329 94.8976 48.6085C94.7336 48.7992 94.3629 48.8873 93.7067 48.8915C93.2296 48.8947 93.0135 49.007 93.0731 49.2207C93.0901 49.2815 93.1238 49.4295 93.148 49.5496L93.1919 49.768H95.4374H97.683V49.3054V48.8428L97.1287 48.7656C96.3426 48.656 96.2048 48.6238 96.2048 48.549C96.2048 48.4236 96.8264 46.5756 96.9524 46.3267C97.0218 46.1894 97.1371 46.0458 97.2085 46.0075C97.4086 45.9004 101.387 45.9141 101.535 46.0225C101.599 46.0689 101.798 46.5451 101.978 47.0808C102.158 47.6164 102.369 48.2008 102.447 48.3793C102.524 48.5579 102.588 48.7167 102.588 48.7321C102.588 48.7475 102.21 48.7601 101.748 48.7601H100.908V49.1894V49.6186L101.143 49.6627C101.273 49.687 101.378 49.7357 101.378 49.771C101.378 49.8108 102.476 49.8352 104.264 49.8352H107.149L107.254 49.6858C107.384 49.4994 107.389 49.1633 107.263 48.9913C107.18 48.8777 107.081 48.8604 106.493 48.8574C105.707 48.8533 105.621 48.8059 105.419 48.2638C105.348 48.0748 104.361 45.2746 103.226 42.0411C102.091 38.8076 101.116 36.0615 101.059 35.9386C100.89 35.5756 100.511 35.4215 100.043 35.5265ZM58.3264 35.6259C58.2098 35.7084 58.1753 35.7987 58.1753 36.021C58.1753 36.4552 58.2821 36.5151 59.1052 36.5422C59.74 36.5632 59.8109 36.5788 59.9282 36.7238C60.0524 36.8772 60.0566 37.0756 60.0566 42.8213V48.7601H59.1965C58.6172 48.7601 58.3102 48.7864 58.2559 48.8407C58.2115 48.8851 58.1753 49.0805 58.1753 49.2751C58.1753 49.5561 58.202 49.6432 58.3052 49.6984C58.3895 49.7435 59.5311 49.768 61.549 49.768C65.0845 49.768 64.9614 49.7858 64.9614 49.273C64.9614 48.7897 64.9129 48.7651 63.92 48.7446L63.0465 48.7265L63.0623 46.1762C63.0768 43.8378 63.0879 43.6166 63.1967 43.5144C63.2952 43.4218 63.5883 43.3902 64.9278 43.3279C66.0162 43.2774 66.7479 43.2096 67.1787 43.1196C69.1683 42.7037 70.4038 41.2995 70.4038 39.4543C70.4038 37.9974 69.5609 36.6192 68.3088 36.0286C67.2911 35.5487 67.4756 35.5648 62.7442 35.5406C58.9266 35.5211 58.4617 35.5301 58.3264 35.6259ZM72.1508 36.0948V36.5315H72.9778C73.586 36.5315 73.8394 36.5568 73.9353 36.6269C74.0625 36.7199 74.0661 36.8695 74.0823 42.6236C74.0926 46.3024 74.0746 48.5629 74.0345 48.6257C73.9837 48.7053 73.7781 48.7312 73.0604 48.7485L72.1508 48.7705V49.202V49.6336H75.6111H79.0714V49.1968V48.7601H78.1441C77.5125 48.7601 77.1912 48.7344 77.1363 48.6795C77.0748 48.618 77.0556 47.1927 77.0556 42.6742C77.0556 37.2504 77.065 36.7418 77.1665 36.6573C77.2449 36.5921 77.54 36.5587 78.1744 36.5431L79.0714 36.5211V36.0896V35.6581H75.6111H72.1508V36.0948ZM81.1022 35.742C81.0646 35.7883 81.0129 36.2191 80.9874 36.6995C80.9619 37.1799 80.8984 38.0114 80.8462 38.5472C80.7941 39.0831 80.7513 39.7674 80.7512 40.0679C80.7511 40.6778 80.7657 40.6944 81.3031 40.6964C81.6332 40.6976 81.6842 40.5911 81.7988 39.6616C82.0287 37.7972 82.3241 37.287 83.3379 37.0039C83.7348 36.8931 85.4558 36.6378 85.4919 36.6845C85.4983 36.6927 85.5204 39.4132 85.5409 42.7298L85.5782 48.7601H84.2397H82.9012V49.1968V49.6336H87.1006H91.2999V49.1983V48.7629L89.9393 48.7447L88.5787 48.7265L88.5616 42.7634L88.5444 36.8003H89.4777C90.6853 36.8003 90.9874 36.8899 91.51 37.4032C91.9106 37.7969 92.1734 38.3383 92.1734 38.7703C92.1734 38.8902 92.2188 39.1536 92.2743 39.3557C92.3297 39.5577 92.408 39.8893 92.4484 40.0926C92.5499 40.6038 92.6039 40.6536 93.0059 40.6059C93.189 40.5842 93.3632 40.5422 93.3928 40.5126C93.4547 40.4508 93.0981 35.8624 93.0219 35.7392C92.9475 35.6188 81.2004 35.6216 81.1022 35.742ZM108.836 35.9954C108.715 36.499 108.756 36.5238 109.731 36.5463C110.525 36.5646 110.548 36.5696 110.631 36.7331C110.697 36.8646 110.716 38.1896 110.717 42.8306L110.718 48.7601H109.815H108.912L108.865 49.0738C108.779 49.6454 108.346 49.598 113.816 49.616C117.594 49.6285 118.717 49.6134 118.845 49.5483C118.953 49.4934 119.027 49.381 119.06 49.2221C119.134 48.8684 119.598 44.8214 119.61 44.4264L119.621 44.0904L119.302 44.0289C118.851 43.9417 118.759 44.0464 118.576 44.8523C118.303 46.0546 118.103 46.7038 117.891 47.0778C117.423 47.9007 116.506 48.5327 115.544 48.6949C115.07 48.7748 114.11 48.7529 113.859 48.6566C113.748 48.614 113.741 48.2618 113.741 42.5731V36.5347L114.9 36.5163L116.059 36.4979L116.082 36.3025C116.094 36.1951 116.085 36.0061 116.062 35.8826L116.02 35.6581H112.468H108.917L108.836 35.9954ZM65.4269 36.4031C66.9668 36.5918 67.2118 37.0647 67.167 39.7627C67.1391 41.4444 67.0828 41.6928 66.647 42.0595C66.2576 42.3872 65.2168 42.575 63.777 42.5775C63.2255 42.5784 63.0791 42.5576 63.0043 42.4677C62.8909 42.331 62.8478 39.6688 62.9275 37.7092C62.9762 36.5099 62.9877 36.4303 63.1198 36.3646C63.2866 36.2815 64.6158 36.3038 65.4269 36.4031ZM49.4326 41.6052C49.795 42.6765 50.1988 43.846 50.3298 44.2042C50.4608 44.5624 50.5511 44.8723 50.5306 44.8929C50.4733 44.9502 46.7531 44.9373 46.7513 44.8799C46.7471 44.7481 48.6712 39.6234 48.719 39.6393C48.749 39.6493 49.0702 40.534 49.4326 41.6052ZM99.7199 40.3687C100.024 41.368 100.797 43.3695 101.423 44.7791C101.452 44.8452 101.049 44.8631 99.5307 44.8631C97.7193 44.8631 97.6044 44.8559 97.6507 44.7455C97.701 44.6258 99.2765 40.0887 99.3423 39.8742C99.4196 39.6224 99.5412 39.7817 99.7199 40.3687Z" fill="#999999"/>
</svg>
