<svg width="163" height="56" viewBox="0 0 163 56" fill="none" xmlns="http://www.w3.org/2000/svg">
<path fill-rule="evenodd" clip-rule="evenodd" d="M20.0903 10.737C19.9743 11.1421 19.5705 13.0847 19.1932 15.0534C18.1443 20.5241 18.4563 20.1068 15.4167 20.1068H12.748L12.4591 21.8195C12.3001 22.7615 12.2879 23.6505 12.4318 23.7945C12.5756 23.9389 13.6161 24.008 14.7442 23.9478C15.8718 23.888 16.8909 23.995 17.0087 24.1861C17.1268 24.3769 16.9367 25.8112 16.5868 27.3731L15.9504 30.2136H13.2856H10.6207L10.2447 32.0033C10.0382 32.9879 9.94352 33.935 10.0348 34.1089C10.1256 34.2824 11.3374 34.4247 12.727 34.4247C14.9389 34.4247 15.2262 34.5165 15.0306 35.1617C14.9074 35.5668 14.4203 37.6989 13.948 39.8992C13.4757 42.0996 12.992 44.3264 12.8734 44.8474C12.6673 45.754 12.7745 45.7949 15.3578 45.7949H18.0572L18.7209 42.7418C19.086 41.0628 19.629 38.5517 19.928 37.162L20.4718 34.6353L23.5253 34.5115C26.5212 34.3898 26.5746 34.4058 26.3505 35.3537C24.8716 41.6086 24.192 45.2234 24.4431 45.5018C24.6113 45.6883 25.8584 45.7831 27.2152 45.7123L29.6816 45.5843L30.7595 40.1098L31.8379 34.6353L34.4713 34.5094C36.8438 34.3961 37.1446 34.2786 37.5071 33.3239C37.7284 32.7411 37.9096 31.8029 37.9096 31.239C37.9096 30.2641 37.7822 30.2136 35.3369 30.2136C32.8726 30.2136 32.7754 30.1736 33.024 29.2661C33.1666 28.7451 33.4038 27.5605 33.551 26.6341C33.9392 24.1891 34.3422 23.8686 36.9221 23.9533C38.1645 23.9937 39.2896 23.9187 39.4221 23.7861C39.5546 23.6538 39.7666 22.7716 39.8932 21.8262L40.1232 20.1068H37.516C35.2258 20.1068 34.9369 20.0171 35.1388 19.3698C35.3579 18.6674 37.0684 10.5074 37.0684 10.1642C37.0684 10.0737 35.8382 10 34.3346 10C32.831 10 31.6007 10.0737 31.6007 10.1642C31.6007 10.5074 29.8902 18.6674 29.671 19.3698C29.4809 19.9788 28.9342 20.1068 26.5254 20.1068C24.9217 20.1068 23.6094 20.0504 23.6094 19.9817C23.6094 19.8545 25.1232 12.6749 25.5139 10.9475C25.7191 10.0404 25.6119 10 23.0147 10C20.7915 10 20.2632 10.1331 20.0903 10.737ZM86.9252 20.303C82.0459 21.6144 79.3309 27.7614 81.8982 31.6845C82.3008 32.2994 83.7169 33.5412 85.0455 34.445C88.1828 36.5779 89.3507 38.0556 89.0088 39.46C88.6214 41.0523 87.4278 42.0524 85.8619 42.0971C84.0685 42.148 83.2328 41.0771 83.5878 39.1829L83.8481 37.7937H81.1122C78.0557 37.7937 77.866 37.9693 77.866 40.7966C77.866 44.4039 79.8781 46.0096 84.3852 46C88.0835 45.9915 89.8992 45.4925 91.569 44.0241C93.6837 42.1653 94.6898 39.9633 94.6898 37.1936C94.6898 35.2063 94.5051 34.6648 93.3985 33.4027C92.6886 32.5929 91.4108 31.514 90.5595 31.0049C88.0553 29.5078 86.6985 28.0511 86.6985 26.8594C86.6985 24.5891 89.0786 22.9186 90.9132 23.9015C91.5 24.216 91.7456 24.7837 91.7456 25.8268V27.3058L94.3743 27.1807L97.003 27.0552L97.1326 25.0183C97.2192 23.6572 97.0341 22.6331 96.5744 21.9302C95.1747 19.7914 91.2758 19.134 86.9252 20.303ZM42.9723 22.3176C42.7166 23.5338 41.499 29.1713 40.2666 34.8459C39.0343 40.5204 38.1056 45.3055 38.2028 45.479C38.3004 45.6525 39.5007 45.7949 40.8706 45.7949C43.1044 45.7949 43.3853 45.6972 43.5931 44.8474C43.7206 44.3264 44.2581 41.8153 44.7876 39.2676L45.7508 34.6353L48.7698 34.5115C50.4307 34.4437 51.7892 34.4622 51.7892 34.5532C51.7892 34.6437 51.316 36.8601 50.7377 39.4781C49.2539 46.1954 49.1698 45.8597 52.2977 45.7098L54.9088 45.5843L57.532 33.3719C58.9751 26.6551 60.1658 20.9229 60.1784 20.6332C60.1944 20.2647 59.3969 20.1068 57.5219 20.1068H54.8431L53.9191 24.6338C53.411 27.1238 52.9193 29.3979 52.826 29.6872C52.712 30.0422 51.6946 30.2136 49.6993 30.2136C48.0729 30.2136 46.7421 30.1571 46.7421 30.0885C46.7421 29.9613 48.2558 22.7817 48.6465 21.0543C48.8518 20.1476 48.7445 20.1068 46.1491 20.1068H43.4371L42.9723 22.3176ZM62.4815 32.5175C59.1454 39.3434 56.4157 45.1232 56.4157 45.3615C56.4157 45.6108 57.4988 45.7949 58.9683 45.7949H61.5213L65.8963 36.8462C68.3026 31.9246 70.2937 28.0869 70.321 28.3186C70.3483 28.5502 70.5902 32.5297 70.8585 37.162L71.3468 45.5843L74.1858 45.709L77.0248 45.8332L77.0181 43.6034C77.0143 42.3767 76.7346 37.0146 76.396 31.6875C76.0579 26.3604 75.7769 21.5756 75.7719 21.0543C75.7635 20.146 75.6137 20.1068 72.1552 20.1068H68.5473L62.4815 32.5175ZM100.793 20.6332C100.572 21.283 95.5309 45.1135 95.5309 45.5094C95.5309 45.6664 96.6712 45.7949 98.065 45.7949C101.071 45.7949 100.905 46.0564 102.285 39.1189L103.219 34.4247H106.261H109.303L108.303 39.1623C107.753 41.7682 107.205 44.3264 107.087 44.8474C106.88 45.754 106.987 45.7949 109.578 45.7949H112.285L112.769 43.584C113.035 42.3678 114.191 36.9198 115.337 31.4769C116.483 26.034 117.524 21.2489 117.65 20.8437C117.852 20.194 117.556 20.1068 115.145 20.1068C112.903 20.1068 112.373 20.2394 112.199 20.8437C111.945 21.7213 110.252 29.6821 110.252 29.9959C110.252 30.1155 108.927 30.2136 107.308 30.2136C105.171 30.2136 104.363 30.0632 104.363 29.6657C104.363 29.3646 104.738 27.422 105.195 25.3493C106.407 19.8592 106.487 20.1068 103.509 20.1068C101.855 20.1068 100.91 20.29 100.793 20.6332ZM120.56 21.0543C120.438 21.5756 119.298 26.9289 118.026 32.9508C116.755 38.9728 115.618 44.3264 115.499 44.8474L115.283 45.7949H122.433C130.376 45.7949 129.819 46.0084 130.127 42.8471L130.23 41.7943L125.915 41.6742C121.701 41.5572 121.604 41.5323 121.816 40.6215C121.935 40.1085 122.283 38.5517 122.589 37.162L123.145 34.6353L127.019 34.514C130.727 34.3978 130.911 34.3468 131.298 33.3286C131.52 32.7432 131.702 31.8029 131.702 31.239C131.702 30.2275 131.65 30.2136 127.871 30.2136C124.109 30.2136 124.044 30.1967 124.276 29.2661C124.406 28.7451 124.642 27.4982 124.801 26.496C125.168 24.1853 126.191 23.7246 130.23 24.0505C131.849 24.1815 133.387 24.1529 133.648 23.9874C133.909 23.8219 134.257 22.8807 134.421 21.8965L134.72 20.1068H127.751C120.871 20.1068 120.78 20.1186 120.56 21.0543ZM136.549 21.0543C136.43 21.5756 135.293 26.9289 134.022 32.9508C132.75 38.9728 131.61 44.3264 131.487 44.8474C131.268 45.786 131.309 45.7949 135.879 45.7949C142.769 45.7949 144.508 45.3131 147.065 42.6955C148.693 41.0295 149.396 39.8719 150.118 37.6694C151.432 33.6608 152.444 27.4161 152.14 25.1876C151.562 20.9494 149.92 20.1068 142.238 20.1068C136.907 20.1068 136.76 20.1312 136.549 21.0543ZM28.3954 24.2354C28.5788 24.5327 28.3697 25.8453 27.5937 29.2661C27.3956 30.1395 27.145 30.2136 24.3972 30.2136C21.5178 30.2136 21.4232 30.1811 21.6423 29.2661C21.7672 28.7451 21.9982 27.5605 22.1555 26.6341C22.3128 25.7076 22.7405 24.713 23.106 24.4232C23.8361 23.8446 28.0614 23.6947 28.3954 24.2354ZM145.856 24.8111C147.115 25.8083 146.894 28.9902 145.09 35.8001C143.911 40.2513 142.671 41.5837 139.706 41.5837C137.832 41.5837 137.564 41.4822 137.757 40.8468C138.214 39.3413 140.954 26.1869 140.955 25.4971C140.955 25.1033 141.286 24.5879 141.691 24.3525C142.478 23.8939 145.055 24.1777 145.856 24.8111Z" fill="#999999"/>
</svg>
