<svg width="179" height="68" viewBox="0 0 179 68" fill="none" xmlns="http://www.w3.org/2000/svg">
<path fill-rule="evenodd" clip-rule="evenodd" d="M28.0313 14.5492C27.4475 13.3777 26.5329 12.5375 25.1224 11.8766C24.1223 11.4081 23.9077 11.3836 20.4819 11.3418C16.5801 11.2943 15.7849 11.4161 14.2956 12.2889C11.5577 13.8934 11.1226 17.6958 13.4433 19.7334L14.0839 20.2956L13.2095 21.2466C12.2389 22.3022 11.8801 23.2322 11.8801 24.6932C11.8801 26.9973 13.3832 28.7967 15.9256 29.5359C16.7888 29.7868 17.6821 29.8338 20.6271 29.7839C24.089 29.7253 24.3134 29.6987 25.319 29.227C26.9098 28.481 28.0986 27.1363 28.5996 25.5159C28.7264 25.1055 28.6886 25.0905 27.526 25.0905H26.3208L25.7133 25.9522C24.718 27.3644 24.1087 27.5399 20.1983 27.5399C16.4899 27.5399 15.8057 27.3733 14.8499 26.2373C14.1672 25.4259 14.1288 23.9477 14.7656 22.9917C15.5844 21.7625 16.223 21.6007 20.5292 21.5318L24.3575 21.4708V20.3637V19.2568L20.3401 19.1961C16.5504 19.1388 16.2838 19.1112 15.6339 18.707C13.846 17.5952 13.9596 15.1523 15.8507 14.0412C16.4549 13.6864 16.8209 13.6529 20.1038 13.6529C24.1911 13.6529 24.5233 13.7475 25.5863 15.2117C26.1444 15.9803 26.1725 15.9932 27.335 16.0045C28.7085 16.018 28.7353 15.962 28.0313 14.5492ZM48.2725 13.842L48.3292 12.7549L48.3859 11.6679H40.2378H32.0897L32.1464 12.7549L32.2031 13.842L35.6533 13.8936L39.1035 13.945V21.692V29.4387H40.2378H41.3721V21.692V13.945L44.8223 13.8936L48.2725 13.842ZM55.1728 19.419V15.5434V11.6679H53.944H52.7152V20.5533V29.4387H53.944H55.1728V25.5632V21.6876H60.7498H66.3269V25.5632V29.4387H67.5557H68.7845V20.5533V11.6679H67.5557H66.3269V15.5434V19.419H60.7498H55.1728ZM88.0678 13.9365V12.8022V11.6679H81.0604H74.053L74.1127 14.8976L74.1725 18.1276L74.7975 18.6857C75.1414 18.9925 75.673 19.2937 75.9791 19.3549C76.5194 19.463 76.5356 19.4988 76.5356 20.5769C76.5356 21.5084 76.4823 21.6878 76.2048 21.6884C75.6637 21.6895 74.6846 22.3862 74.3708 22.9932C74.1432 23.4331 74.078 24.2149 74.078 26.499V29.4387H81.0823H88.0867L88.0299 28.3517L87.9732 27.2646L82.2544 27.2145L76.5356 27.1646V24.426V21.6876H81.9236H87.3116V20.5533V19.419H81.9236H76.5356V16.6778V13.9365H82.3017H88.0678ZM108.442 14.9982C108.087 13.8081 106.56 12.3436 105.284 11.9692C104.449 11.7242 103.24 11.6679 98.8093 11.6679H93.3612V20.5533V29.4387H94.59H95.8189V25.7522V22.0657H98.1722H100.526L103.324 25.7441L106.122 29.4225L107.587 29.4306C108.393 29.4351 109.052 29.4002 109.052 29.3529C109.052 29.3056 107.863 27.7106 106.408 25.8082C104.954 23.9058 103.763 22.2964 103.761 22.2317C103.76 22.1671 104.116 22.057 104.552 21.9873C106.271 21.7124 107.856 20.4331 108.415 18.8689C108.727 17.9975 108.741 15.9979 108.442 14.9982ZM127.674 13.842L127.731 12.7549L127.787 11.6679H120.783H113.779V14.7451C113.779 17.3355 113.83 17.8964 114.101 18.2898C114.533 18.9174 114.905 19.1887 115.527 19.3305C116.02 19.4428 116.047 19.5056 116.047 20.5304C116.047 21.5916 116.035 21.616 115.395 21.8476C115.036 21.9772 114.526 22.3412 114.261 22.6563C113.787 23.2193 113.779 23.2819 113.779 26.3339V29.4387H120.783H127.787L127.731 28.3517L127.674 27.2646L121.861 27.2147L116.047 27.1646V24.4262V21.6876H121.53H127.012V20.5533V19.419H121.53H116.047V16.6804V13.942L121.861 13.8919L127.674 13.842ZM148.59 27.4145C148.09 26.2923 146.332 22.2903 144.682 18.521L141.683 11.6679H140.343H139.002L136.324 17.7648C134.852 21.1182 133.094 25.1164 132.419 26.6502L131.192 29.4387L132.458 29.4347L133.724 29.431L134.593 27.4024L135.461 25.3741L140.157 25.3234C143.087 25.2919 144.923 25.3435 145.04 25.4609C145.143 25.5643 145.591 26.4803 146.035 27.4966L146.841 29.3442L148.17 29.3996L149.498 29.455L148.59 27.4145ZM155.37 27.1701V19.419V11.6679H154.141H152.912V20.5533V29.4387H160.096H167.28V28.3044V27.1701H161.325H155.37ZM95.8189 19.7971V16.857V13.9167L100.154 13.9739C104.901 14.0365 104.965 14.0513 105.901 15.3056C106.399 15.972 106.405 17.6217 105.913 18.4641C105.207 19.6731 104.655 19.7971 99.9855 19.7971H95.8189ZM138.186 19.1188C139.132 16.9443 139.988 14.9546 140.088 14.6969C140.249 14.2823 140.485 14.7258 142.148 18.5575C143.182 20.9384 144.027 22.9569 144.027 23.0433C144.027 23.1295 142.325 23.2 140.246 23.2C138.166 23.2 136.465 23.1713 136.465 23.1361C136.465 23.1008 137.239 21.2931 138.186 19.1188ZM165.59 40.415C164.619 39.4435 163.458 38.785 162.089 38.4285C159.881 37.8534 156.781 38.1927 155.224 39.18C152.443 40.944 151.879 44.4932 154.038 46.6518C155.152 47.7654 156.048 48.0659 159.34 48.4287C163.41 48.8772 164.422 49.3978 164.583 51.1261C164.651 51.8526 164.58 52.158 164.225 52.6792C162.721 54.8864 157.799 54.9421 155.634 52.7765C154.812 51.9547 154.765 51.9358 153.569 51.9358C152.896 51.9358 152.345 51.9818 152.345 52.0379C152.345 52.4179 153.269 53.8144 153.973 54.4986C155.894 56.3655 159.21 57.1105 162.327 56.3757C163.79 56.0309 164.435 55.7057 165.415 54.8211C166.423 53.9099 166.934 52.854 167.037 51.4687C167.11 50.4901 167.046 50.182 166.586 49.2904C165.947 48.0487 164.817 47.136 163.44 46.7473C162.901 46.5953 161.284 46.3382 159.848 46.176C156.913 45.8448 155.939 45.4803 155.447 44.5296C154.974 43.6134 155.18 42.4133 155.949 41.6206C156.838 40.703 158.084 40.339 159.977 40.4434C161.772 40.5425 163.08 41.1053 164.03 42.1876C164.595 42.8307 164.678 42.8614 165.857 42.8614C166.536 42.8614 167.091 42.8154 167.091 42.7593C167.091 42.4127 166.207 41.0321 165.59 40.415ZM20.1983 56.1696C20.1983 56.0815 14.4328 39.8517 14.0114 38.7538C13.9492 38.5914 13.4985 38.5132 12.6263 38.5132H11.3333L11.6814 39.5057C11.8729 40.0515 13.2333 43.9437 14.7045 48.1548C16.1768 52.3689 17.5193 55.9176 17.6908 56.0477C17.9995 56.2821 20.1983 56.3891 20.1983 56.1696ZM26.1383 47.3608C27.6358 43.0665 28.9516 39.3189 29.0622 39.0331L29.2633 38.5132H27.9649C26.904 38.5132 26.6427 38.5737 26.5367 38.844C26.2508 39.5715 20.5169 55.6448 20.4331 55.9532C20.3549 56.2411 20.4872 56.2836 21.4523 56.2812C22.6732 56.278 22.8736 56.198 23.1965 55.5845C23.3169 55.3558 24.6407 51.6551 26.1383 47.3608ZM47.4217 40.7818V39.6475V38.5132H40.4268H33.4319V41.1363C33.4319 42.5789 33.4862 44.0303 33.5524 44.3615C33.703 45.115 34.5746 46.0055 35.3219 46.1696C35.8749 46.2911 35.8896 46.3235 35.8896 47.4135C35.8896 48.3533 35.8365 48.5331 35.5588 48.5337C34.9634 48.5348 33.9821 49.2838 33.7042 49.9489C33.5081 50.4177 33.4319 51.3965 33.4319 53.4422V56.284H40.4268H47.4217V55.1497V54.0154H41.6557H35.8896V51.2741V48.5329H41.3721H46.8546V47.3986V46.2643H41.3721H35.8896V43.523V40.7818H41.6557H47.4217ZM66.2323 52.7425L60.8633 45.6279L55.4944 38.5132H54.1047H52.7152V47.3986V56.284H53.9417H55.1683L55.2178 49.1674L55.2674 42.0507L60.6374 49.1674L66.0074 56.284H67.3959H68.7845V47.3986V38.5132H67.558H66.3314L66.2819 45.6279L66.2323 52.7425ZM89.2021 40.7818V39.6475V38.5132H81.1674H73.1327V39.6475V40.7818H76.5356H79.9386V48.5329V56.284H81.1674H82.3962V48.5329V40.7818H85.7991H89.2021ZM97.6109 53.0463C96.1945 51.7407 96.1297 51.3857 96.0518 44.5156L95.9839 38.5132H94.7672H93.5502L93.554 43.7594C93.5561 46.6447 93.6434 49.5984 93.7482 50.323C94.2231 53.6097 96.2221 55.7876 99.3728 56.4511C103.398 57.2988 107.216 55.5847 108.526 52.3417C108.941 51.315 108.959 51.0299 109.014 44.8937L109.071 38.5132H107.943H106.816L106.749 44.5156C106.685 50.3378 106.669 50.5476 106.238 51.5089C105.668 52.7799 104.616 53.7256 103.358 54.0993C101.244 54.727 98.9851 54.313 97.6109 53.0463ZM128.979 41.9033C128.575 40.5294 127.258 39.224 125.856 38.8075C125.057 38.5703 123.789 38.5132 119.321 38.5132H113.779V47.3986V56.284H115.008H116.236V52.5975V48.911H118.671H121.106L123.915 52.5975L126.723 56.284H128.191C128.999 56.284 129.659 56.2598 129.659 56.2301C129.659 56.2006 128.429 54.5636 126.927 52.5926L124.194 49.0089L125.083 48.8042C128.379 48.0453 129.961 45.2428 128.979 41.9033ZM147.997 40.7818V39.6475V38.5132H140.989H133.982L134.042 41.6193C134.11 45.1759 134.254 45.5663 135.679 46.0694L136.465 46.3471V47.44C136.465 48.3546 136.411 48.5331 136.134 48.5337C135.593 48.5348 134.614 49.2314 134.3 49.8385C134.072 50.2784 134.007 51.0601 134.007 53.3443V56.284H141.002H147.997V55.1497V54.0154H142.231H136.465V51.2741V48.5329H141.853H147.241V47.3986V46.2643H141.853H136.465V43.523V40.7818H142.231H147.997ZM116.236 46.6424V43.7121V40.7818L120.443 40.7822C124.07 40.7824 124.74 40.8279 125.307 41.113C127.347 42.1377 127.353 45.1909 125.318 46.217C124.52 46.6193 124.251 46.6424 120.355 46.6424H116.236ZM21.9565 45.2718C22.1113 44.8298 22.2985 44.3195 22.3726 44.1375C22.4964 43.8337 22.3282 43.8066 20.3131 43.8066C19.1062 43.8066 18.1188 43.8416 18.1188 43.8843C18.1188 43.927 18.3006 44.4375 18.5232 45.0186L18.9275 46.0752H20.3014H21.6752L21.9565 45.2718Z" fill="#999999"/>
</svg>
