<svg fill="none" height="223" viewBox="0 0 370 223" width="370" xmlns="http://www.w3.org/2000/svg"><rect fill="#000" height="223" rx="13.9857" width="370"/><path d="m26.2159 56.1541c-.7391 0-1.3755-.1674-1.9091-.5021-.5303-.3381-.938-.8038-1.223-1.397-.285-.5933-.4276-1.2728-.4276-2.0384 0-.7755.1459-1.46.4376-2.0532.2916-.5966.7026-1.0623 1.2329-1.3971.5303-.3347 1.1551-.5021 1.8743-.5021.58 0 1.0971.1077 1.5511.3232.4541.2121.8203.5104 1.0988.8948.2817.3845.4491.8336.5021 1.3473h-1.4468c-.0795-.3579-.2618-.6661-.5468-.9247-.2817-.2585-.6596-.3878-1.1335-.3878-.4143 0-.7773.1094-1.0888.3282-.3083.2154-.5486.5236-.7209.9247-.1724.3977-.2585.8684-.2585 1.4119 0 .5568.0845 1.0374.2535 1.4418.1691.4043.4077.7175.7159.9396.3116.2221.6778.3331 1.0988.3331.2817 0 .5369-.0514.7656-.1541.232-.1061.4259-.2569.5817-.4524.159-.1956.2701-.4309.333-.706h1.4468c-.053.4939-.2138.9347-.4823 1.3224-.2684.3878-.628.6928-1.0788.9148-.4474.2221-.9728.3331-1.576.3331zm7.9434 0c-.7159 0-1.3407-.164-1.8743-.4922-.5336-.3281-.9479-.7871-1.2429-1.3771s-.4425-1.2794-.4425-2.0682c0-.7921.1475-1.4848.4425-2.0781s.7093-1.054 1.2429-1.3821 1.1584-.4922 1.8743-.4922 1.3406.1641 1.8743.4922c.5336.3281.9479.7888 1.2429 1.3821.2949.5933.4424 1.286.4424 2.0781 0 .7888-.1475 1.4782-.4424 2.0682-.295.59-.7093 1.049-1.2429 1.3771-.5337.3282-1.1584.4922-1.8743.4922zm.0049-1.2479c.4641 0 .8485-.1226 1.1534-.3678.305-.2453.5304-.5718.6762-.9795.1491-.4076.2237-.8567.2237-1.3473 0-.4872-.0746-.9346-.2237-1.3423-.1458-.411-.3712-.7407-.6762-.9893-.3049-.2486-.6893-.3729-1.1534-.3729-.4673 0-.8551.1243-1.1633.3729-.3049.2486-.532.5783-.6811.9893-.1459.4077-.2188.8551-.2188 1.3423 0 .4906.0729.9397.2188 1.3473.1491.4077.3762.7342.6811.9795.3082.2452.696.3678 1.1633.3678zm6.7005-3.4403v4.5341h-1.4865v-7.6364h1.4268v1.2429h.0945c.1757-.4043.4508-.7291.8253-.9744.3778-.2453.8534-.3679 1.4268-.3679.5204 0 .9761.1094 1.3672.3281.3911.2155.6944.537.9098.9645.2155.4276.3232.9562.3232 1.586v4.8572h-1.4865v-4.6783c0-.5535-.1442-.986-.4326-1.2976-.2883-.3148-.6844-.4723-1.1882-.4723-.3447 0-.6512.0746-.9197.2238-.2652.1491-.4756.3679-.6314.6562-.1525.2851-.2287.6298-.2287 1.0341zm8.3672 0v4.5341h-1.4865v-7.6364h1.4268v1.2429h.0945c.1757-.4043.4507-.7291.8253-.9744.3778-.2453.8534-.3679 1.4268-.3679.5204 0 .9761.1094 1.3672.3281.3911.2155.6944.537.9098.9645.2154.4276.3232.9562.3232 1.586v4.8572h-1.4865v-4.6783c0-.5535-.1442-.986-.4326-1.2976-.2883-.3148-.6844-.4723-1.1882-.4723-.3447 0-.6513.0746-.9197.2238-.2652.1491-.4756.3679-.6314.6562-.1525.2851-.2287.6298-.2287 1.0341zm10.1719 4.6882c-.7524 0-1.4004-.1607-1.9439-.4822-.5403-.3248-.9579-.7806-1.2529-1.3672-.2916-.59-.4375-1.281-.4375-2.0732 0-.7822.1459-1.4716.4375-2.0681.295-.5966.706-1.0623 1.233-1.3971.5303-.3347 1.1501-.5021 1.8594-.5021.4308 0 .8484.0713 1.2528.2138s.7673.3662 1.0888.6711c.3215.305.575.701.7606 1.1883.1856.4839.2784 1.0722.2784 1.7649v.527h-6.0703v-1.1137h4.6137c0-.3911-.0796-.7374-.2387-1.039-.1591-.305-.3828-.5453-.6711-.7209-.2851-.1757-.6198-.2635-1.0043-.2635-.4176 0-.7822.1027-1.0937.3082-.3083.2022-.5469.4674-.716.7955-.1657.3248-.2485.6778-.2485 1.0589v.8701c0 .5104.0895.9446.2684 1.3025.1823.358.4359.6314.7607.8203.3248.1856.7043.2784 1.1385.2784.2817 0 .5386-.0397.7706-.1193.232-.0828.4325-.2055.6015-.3679.1691-.1624.2983-.3629.3878-.6015l1.407.2535c-.1127.4143-.3149.7772-.6066 1.0888-.2883.3082-.6512.5485-1.0887.7209-.4342.169-.9297.2535-1.4865.2535zm5.9211-7.7905 1.6854 2.973 1.7003-2.973h1.6257l-2.3814 3.8182 2.4013 3.8182h-1.6257l-1.7202-2.8537-1.7152 2.8537h-1.6307l2.3764-3.8182-2.3466-3.8182zm10.1023 0v1.1932h-4.1712v-1.1932zm-3.0526-1.8295h1.4866v7.2237c0 .2884.043.5055.1292.6513.0862.1425.1972.2403.3331.2933.1392.0497.29.0746.4524.0746.1193 0 .2237-.0083.3132-.0249.0895-.0165.1591-.0298.2088-.0397l.2685 1.2279c-.0862.0332-.2088.0663-.3679.0995-.1591.0364-.3579.0563-.5966.0596-.3911.0067-.7557-.0629-1.0937-.2088-.3381-.1458-.6115-.3712-.8203-.6761-.2089-.3049-.3133-.6877-.3133-1.1484z" fill="#ad93e9"/><path d="m78.051 56.0945c-.2718 0-.5055-.0962-.701-.2884-.1956-.1955-.2934-.4309-.2934-.706 0-.2717.0978-.5037.2934-.696.1955-.1955.4292-.2933.701-.2933.2717 0 .5054.0978.701.2933.1955.1923.2933.4243.2933.696 0 .1823-.0464.3497-.1392.5022-.0895.1491-.2088.2684-.358.3579-.1491.0895-.3148.1343-.4971.1343zm36.475-4.2905v-.7458c.56 0 .952-.1143 1.174-.343.222-.232.333-.6148.333-1.1484v-1.4269c0-.5071.056-.933.169-1.2777.116-.348.291-.6264.527-.8352.235-.2088.533-.3596.895-.4524.361-.0928.787-.1392 1.277-.1392v1.1782c-.384 0-.684.0564-.9.1691-.215.1127-.366.2883-.452.527-.083.2353-.124.5369-.124.9048v1.8096c0 .2553-.038.4922-.115.711-.076.2154-.217.4027-.422.5618-.206.1591-.499.2834-.88.3728-.381.0895-.875.1343-1.482.1343zm4.375 6.3139c-.49 0-.916-.0464-1.277-.1392-.362-.0928-.66-.2436-.895-.4524-.236-.2088-.411-.4872-.527-.8352-.113-.3447-.169-.7706-.169-1.2777v-1.4319c0-.5303-.111-.9114-.333-1.1434s-.614-.348-1.174-.348v-.7408c.607 0 1.101.0447 1.482.1342.381.0862.674.2105.88.3729.205.1591.346.348.422.5668.077.2154.115.4507.115.7059v1.8097c0 .3646.041.6645.124.8998.086.2387.237.4143.452.527.216.116.516.174.9.174zm-4.375-5.6278v-1.4319h1.377v1.4319zm42.494 3.6044c-.272 0-.506-.0962-.701-.2884-.196-.1955-.294-.4309-.294-.706 0-.2717.098-.5037.294-.696.195-.1955.429-.2933.701-.2933.271 0 .505.0978.701.2933.195.1923.293.4243.293.696 0 .1823-.046.3497-.139.5022-.09.1491-.209.2684-.358.3579s-.315.1343-.497.1343zm0-5.5583c-.272 0-.506-.0978-.701-.2933-.196-.1956-.294-.4292-.294-.701s.098-.5038.294-.696c.195-.1956.429-.2933.701-.2933.271 0 .505.0977.701.2933.195.1922.293.4242.293.696 0 .1823-.046.3497-.139.5021-.09.1492-.209.2685-.358.358s-.315.1342-.497.1342zm17.805 5.4638v-7.6364h1.437v1.2131h.08c.139-.411.384-.7341.736-.9695.354-.2386.755-.3579 1.203-.3579.093 0 .202.0033.328.0099.129.0067.23.0149.303.0249v1.4219c-.06-.0166-.166-.0348-.318-.0547-.153-.0232-.305-.0348-.457-.0348-.352 0-.665.0746-.94.2237-.272.1458-.487.3497-.646.6115-.159.2585-.239.5535-.239.8849v4.6634zm8.391.1541c-.752 0-1.4-.1607-1.944-.4822-.54-.3248-.957-.7806-1.252-1.3672-.292-.59-.438-1.281-.438-2.0732 0-.7822.146-1.4716.438-2.0681.295-.5966.705-1.0623 1.232-1.3971.531-.3347 1.151-.5021 1.86-.5021.431 0 .848.0713 1.253.2138.404.1425.767.3662 1.088.6711.322.305.576.701.761 1.1883.186.4839.279 1.0722.279 1.7649v.527h-6.071v-1.1137h4.614c0-.3911-.08-.7374-.239-1.039-.159-.305-.383-.5453-.671-.7209-.285-.1757-.62-.2635-1.004-.2635-.418 0-.782.1027-1.094.3082-.308.2022-.547.4674-.716.7955-.166.3248-.248.6778-.248 1.0589v.8701c0 .5104.089.9446.268 1.3025.182.358.436.6314.761.8203.324.1856.704.2784 1.138.2784.282 0 .539-.0397.771-.1193.232-.0828.432-.2055.601-.3679s.299-.3629.388-.6015l1.407.2535c-.113.4143-.315.7772-.606 1.0888-.289.3082-.652.5485-1.089.7209-.434.169-.93.2535-1.487.2535zm6.412-10.3359v10.1818h-1.486v-10.1818zm4.222 10.3508c-.483 0-.921-.0895-1.312-.2684-.391-.1823-.701-.4458-.93-.7905-.225-.3447-.338-.7673-.338-1.2678 0-.4308.083-.7855.249-1.0639s.389-.4988.671-.6612.597-.2851.945-.3679c.348-.0829.702-.1458 1.064-.1889.457-.0531.828-.0961 1.113-.1293.285-.0365.492-.0945.622-.174.129-.0795.193-.2088.193-.3878v-.0348c0-.4342-.122-.7706-.367-1.0092-.242-.2387-.604-.358-1.084-.358-.501 0-.895.1111-1.183.3331-.285.2188-.483.4624-.592.7308l-1.397-.3181c.166-.464.408-.8386.726-1.1236.321-.2884.691-.4972 1.108-.6264.418-.1326.857-.1989 1.318-.1989.305 0 .628.0365.969.1094.345.0696.667.1988.965.3878.301.1889.548.459.741.8103.192.348.288.8005.288 1.3573v5.071h-1.452v-1.044h-.059c-.097.1922-.241.3811-.433.5667s-.439.3398-.741.4624c-.301.1226-.663.1839-1.084.1839zm.324-1.1931c.411 0 .762-.0813 1.054-.2437.295-.1624.518-.3745.671-.6363.156-.2652.233-.5486.233-.8502v-.9843c-.053.053-.155.1027-.308.1491-.149.0431-.32.0812-.512.1144-.192.0298-.379.058-.562.0845-.182.0232-.334.0431-.457.0596-.288.0365-.552.0978-.791.184-.235.0862-.424.2104-.566.3729-.139.159-.209.3712-.209.6363 0 .3679.136.6463.408.8352.271.1856.618.2785 1.039.2785zm6.091 3.8877c-.222 0-.424-.0182-.606-.0547-.183-.0331-.319-.0696-.408-.1093l.358-1.2181c.272.073.514.1044.726.0945s.399-.0895.561-.2386c.166-.1492.312-.3928.438-.7309l.184-.5071-2.794-7.7358h1.591l1.934 5.9262h.079l1.934-5.9262h1.596l-3.147 8.6556c-.146.3977-.331.7341-.557 1.0092-.225.2784-.494.4872-.805.6264-.312.1392-.673.2088-1.084.2088zm10.022-2.7095c-.753 0-1.401-.1607-1.944-.4822-.541-.3248-.958-.7806-1.253-1.3672-.292-.59-.438-1.281-.438-2.0732 0-.7822.146-1.4716.438-2.0681.295-.5966.706-1.0623 1.233-1.3971.53-.3347 1.15-.5021 1.859-.5021.431 0 .849.0713 1.253.2138s.767.3662 1.089.6711c.321.305.575.701.76 1.1883.186.4839.279 1.0722.279 1.7649v.527h-6.07v-1.1137h4.613c0-.3911-.079-.7374-.238-1.039-.16-.305-.383-.5453-.672-.7209-.285-.1757-.619-.2635-1.004-.2635-.417 0-.782.1027-1.094.3082-.308.2022-.547.4674-.716.7955-.165.3248-.248.6778-.248 1.0589v.8701c0 .5104.089.9446.268 1.3025.183.358.436.6314.761.8203.325.1856.704.2784 1.138.2784.282 0 .539-.0397.771-.1193.232-.0828.433-.2055.602-.3679s.298-.3629.387-.6015l1.407.2535c-.112.4143-.314.7772-.606 1.0888-.288.3082-.651.5485-1.089.7209-.434.169-.93.2535-1.486.2535zm4.925-.1541v-7.6364h1.437v1.2131h.08c.139-.411.384-.7341.735-.9695.355-.2386.756-.3579 1.203-.3579.093 0 .203.0033.329.0099.129.0067.23.0149.303.0249v1.4219c-.06-.0166-.166-.0348-.318-.0547-.153-.0232-.305-.0348-.458-.0348-.351 0-.664.0746-.939.2237-.272.1458-.488.3497-.647.6115-.159.2585-.238.5535-.238.8849v4.6634zm5.493 0v-10.1818h6.313v1.3224h-4.777v3.1023h4.325v1.3175h-4.325v4.4396zm10.814.1541c-.752 0-1.4-.1607-1.944-.4822-.54-.3248-.958-.7806-1.253-1.3672-.291-.59-.437-1.281-.437-2.0732 0-.7822.146-1.4716.437-2.0681.295-.5966.706-1.0623 1.233-1.3971.531-.3347 1.15-.5021 1.86-.5021.43 0 .848.0713 1.252.2138.405.1425.768.3662 1.089.6711.322.305.575.701.761 1.1883.185.4839.278 1.0722.278 1.7649v.527h-6.07v-1.1137h4.614c0-.3911-.08-.7374-.239-1.039-.159-.305-.383-.5453-.671-.7209-.285-.1757-.62-.2635-1.004-.2635-.418 0-.783.1027-1.094.3082-.308.2022-.547.4674-.716.7955-.166.3248-.249.6778-.249 1.0589v.8701c0 .5104.09.9446.269 1.3025.182.358.436.6314.76.8203.325.1856.705.2784 1.139.2784.282 0 .539-.0397.771-.1193.232-.0828.432-.2055.601-.3679s.298-.3629.388-.6015l1.407.2535c-.113.4143-.315.7772-.607 1.0888-.288.3082-.651.5485-1.088.7209-.435.169-.93.2535-1.487.2535zm8.217 0c-.753 0-1.401-.1607-1.944-.4822-.54-.3248-.958-.7806-1.253-1.3672-.292-.59-.437-1.281-.437-2.0732 0-.7822.145-1.4716.437-2.0681.295-.5966.706-1.0623 1.233-1.3971.53-.3347 1.15-.5021 1.859-.5021.431 0 .849.0713 1.253.2138.405.1425.768.3662 1.089.6711.322.305.575.701.761 1.1883.185.4839.278 1.0722.278 1.7649v.527h-6.07v-1.1137h4.613c0-.3911-.079-.7374-.238-1.039-.159-.305-.383-.5453-.671-.7209-.285-.1757-.62-.2635-1.005-.2635-.417 0-.782.1027-1.093.3082-.309.2022-.547.4674-.716.7955-.166.3248-.249.6778-.249 1.0589v.8701c0 .5104.09.9446.269 1.3025.182.358.435.6314.76.8203.325.1856.705.2784 1.139.2784.281 0 .538-.0397.77-.1193.232-.0828.433-.2055.602-.3679s.298-.3629.388-.6015l1.407.2535c-.113.4143-.315.7772-.607 1.0888-.288.3082-.651.5485-1.089.7209-.434.169-.929.2535-1.486.2535zm8.729-4.4048v.7408c-.56 0-.952.116-1.174.348s-.333.6131-.333 1.1434v1.4319c0 .5071-.058.933-.174 1.2777-.112.348-.286.6264-.522.8352-.235.2088-.533.3596-.895.4524-.361.0928-.787.1392-1.277.1392v-1.1783c.384 0 .684-.058.9-.174.215-.1127.364-.2883.447-.527.086-.2353.129-.5352.129-.8998v-1.8097c0-.2552.038-.4905.115-.7059.076-.2188.217-.4077.422-.5668.206-.1624.499-.2867.88-.3729.381-.0895.875-.1342 1.482-.1342zm-4.375-6.3139c.49 0 .916.0464 1.277.1392.362.0928.66.2436.895.4524.236.2088.41.4872.522.8352.116.3447.174.7706.174 1.2777v1.4269c0 .5336.111.9164.333 1.1484.222.2287.614.343 1.174.343v.7458c-.607 0-1.101-.0448-1.482-.1343-.381-.0894-.674-.2137-.88-.3728-.205-.1591-.346-.3464-.422-.5618-.077-.2188-.115-.4557-.115-.711v-1.8096c0-.3679-.043-.6695-.129-.9048-.083-.2387-.232-.4143-.447-.527-.216-.1127-.516-.1691-.9-.1691zm4.375 5.6228v1.4319h-1.377v-1.4319zm1.92.7159c0-1.2462.164-2.3929.492-3.4403.328-1.0473.807-2.0135 1.437-2.8984h1.362c-.245.3281-.474.7308-.686 1.2081-.212.4772-.398 1.0009-.557 1.571-.159.5667-.283 1.1551-.373 1.7649-.089.6065-.134 1.2048-.134 1.7947 0 .7889.078 1.5876.234 2.3964.156.8087.366 1.5594.631 2.2521s.56 1.2578.885 1.6953h-1.362c-.63-.8849-1.109-1.8511-1.437-2.8984-.328-1.0474-.492-2.1958-.492-3.4454zm-206.0017 22.375c-.6164 0-1.1666-.1574-1.6505-.4723-.4806-.3181-.8585-.7706-1.1335-1.3572-.2718-.59-.4077-1.2976-.4077-2.1229s.1375-1.5312.4126-2.1179c.2784-.5866.6596-1.0357 1.1435-1.3473.4839-.3115 1.0324-.4673 1.6456-.4673.4739 0 .8551.0796 1.1435.2386.2916.1558.517.3381.6761.5469.1624.2088.2883.3928.3778.5519h.0895v-3.7834h1.4865v10.1818h-1.4517v-1.1882h-.1243c-.0895.1624-.2187.348-.3878.5568-.1657.2088-.3944.3911-.686.5469-.2917.1558-.6695.2336-1.1336.2336zm.3282-1.2677c.4275 0 .7888-.1127 1.0838-.3381.2983-.2287.5237-.5452.6761-.9495.1558-.4044.2337-.8751.2337-1.412 0-.5303-.0763-.9943-.2287-1.392-.1525-.3978-.3762-.7077-.6712-.9297-.295-.2221-.6595-.3331-1.0937-.3331-.4475 0-.8203.116-1.1186.348s-.5237.5485-.6762.9496c-.1491.401-.2237.8534-.2237 1.3572 0 .5104.0762.9695.2287 1.3771.1525.4077.3778.7309.6761.9695.3016.2353.6729.353 1.1137.353zm8.868 1.2727c-.7523 0-1.4003-.1607-1.9438-.4822-.5403-.3248-.9579-.7806-1.2529-1.3672-.2917-.59-.4375-1.281-.4375-2.0732 0-.7822.1458-1.4716.4375-2.0681.295-.5966.706-1.0623 1.233-1.3971.5303-.3347 1.1501-.5021 1.8593-.5021.4309 0 .8485.0713 1.2529.2138.4043.1425.7673.3662 1.0888.6711.3215.305.575.701.7606 1.1883.1856.4839.2784 1.0722.2784 1.7649v.527h-6.0703v-1.1137h4.6136c0-.3911-.0795-.7374-.2386-1.039-.1591-.305-.3828-.5453-.6712-.7209-.285-.1757-.6197-.2635-1.0042-.2635-.4176 0-.7822.1027-1.0938.3082-.3082.2022-.5468.4674-.7159.7955-.1657.3248-.2486.6778-.2486 1.0589v.8701c0 .5104.0895.9446.2685 1.3025.1823.358.4359.6314.7607.8203.3248.1856.7043.2784 1.1385.2784.2817 0 .5385-.0397.7706-.1193.232-.0828.4325-.2055.6015-.3679.1691-.1624.2983-.3629.3878-.6015l1.407.2535c-.1127.4143-.3149.7772-.6066 1.0888-.2883.3082-.6512.5485-1.0887.7209-.4342.169-.9297.2535-1.4866.2535zm10.648-5.9261-1.3474.2386c-.0563-.1723-.1458-.3364-.2684-.4922-.1193-.1557-.2817-.2833-.4872-.3828-.2055-.0994-.4624-.1491-.7706-.1491-.421 0-.7723.0944-1.054.2834-.2817.1856-.4226.4259-.4226.7208 0 .2552.0945.4607.2834.6165s.4938.2834.9148.3828l1.213.2784c.7027.1624 1.2264.4127 1.5711.7507.3446.3381.517.7773.517 1.3175 0 .4574-.1326.8651-.3977 1.223-.2619.3547-.6281.6331-1.0988.8353-.4673.2021-1.0092.3032-1.6257.3032-.8551 0-1.5528-.1823-2.093-.5469-.5402-.3679-.8717-.8899-.9943-1.566l1.4368-.2188c.0895.3746.2734.658.5518.8502.2784.1889.6414.2834 1.0888.2834.4872 0 .8767-.1011 1.1683-.3033.2917-.2055.4375-.4557.4375-.7507 0-.2386-.0895-.4392-.2684-.6016-.1757-.1624-.4458-.285-.8104-.3679l-1.2926-.2834c-.7126-.1624-1.2396-.4209-1.581-.7755-.3381-.3547-.5071-.8038-.5071-1.3473 0-.4508.1259-.8452.3778-1.1833.2519-.338.5999-.6015 1.0441-.7904.4441-.1923.9529-.2884 1.5263-.2884.8252 0 1.4749.179 1.9488.5369.474.3547.7872.8303.9397 1.4269zm5.3481-1.8644v1.1932h-4.1711v-1.1932zm-3.0525-1.8295h1.4865v7.2237c0 .2884.0431.5055.1292.6513.0862.1425.1973.2403.3331.2933.1393.0497.2901.0746.4525.0746.1193 0 .2237-.0083.3132-.0249.0895-.0165.1591-.0298.2088-.0397l.2684 1.2279c-.0861.0332-.2088.0663-.3679.0995-.159.0364-.3579.0563-.5965.0596-.3911.0067-.7557-.0629-1.0938-.2088-.3381-.1458-.6115-.3712-.8203-.6761s-.3132-.6877-.3132-1.1484zm4.6969 9.4659v-7.6364h1.4865v7.6364zm.7507-8.8146c-.2585 0-.4806-.0862-.6662-.2586-.1823-.1756-.2734-.3844-.2734-.6264 0-.2452.0911-.454.2734-.6264.1856-.1757.4077-.2635.6662-.2635s.4789.0878.6612.2635c.1856.1724.2784.3812.2784.6264 0 .242-.0928.4508-.2784.6264-.1823.1724-.4027.2586-.6612.2586zm4.2221 4.2805v4.5341h-1.4865v-7.6364h1.4269v1.2429h.0944c.1757-.4043.4508-.7291.8253-.9744.3779-.2453.8535-.3679 1.4269-.3679.5203 0 .976.1094 1.3671.3281.3911.2155.6944.537.9098.9645.2155.4276.3232.9562.3232 1.586v4.8572h-1.4865v-4.6783c0-.5535-.1442-.986-.4325-1.2976-.2884-.3148-.6845-.4723-1.1882-.4723-.3447 0-.6513.0746-.9198.2238-.2651.1491-.4756.3679-.6314.6562-.1524.2851-.2287.6298-.2287 1.0341zm9.103 4.7031c-.4839 0-.9214-.0895-1.3125-.2684-.3911-.1823-.701-.4458-.9297-.7905-.2254-.3447-.338-.7673-.338-1.2678 0-.4308.0828-.7855.2485-1.0639.1658-.2784.3895-.4988.6712-.6612s.5966-.2851.9446-.3679c.348-.0829.7027-.1458 1.0639-.1889.4574-.0531.8286-.0961 1.1137-.1293.285-.0365.4921-.0945.6214-.174s.1939-.2088.1939-.3878v-.0348c0-.4342-.1226-.7706-.3679-1.0092-.2419-.2387-.6032-.358-1.0838-.358-.5005 0-.8949.1111-1.1832.3331-.2851.2188-.4823.4624-.5917.7308l-1.397-.3181c.1657-.464.4077-.8386.7259-1.1236.3215-.2884.691-.4972 1.1086-.6264.4176-.1326.8568-.1989 1.3175-.1989.3049 0 .6281.0365.9695.1094.3447.0696.6662.1988.9645.3878.3016.1889.5485.459.7407.8103.1923.348.2884.8005.2884 1.3573v5.071h-1.4517v-1.044h-.0597c-.0961.1922-.2403.3811-.4325.5667-.1923.1856-.4392.3398-.7408.4624s-.6629.1839-1.0838.1839zm.3232-1.1931c.4109 0 .7623-.0813 1.0539-.2437.295-.1624.5187-.3745.6712-.6363.1558-.2652.2337-.5486.2337-.8502v-.9843c-.0531.053-.1558.1027-.3083.1491-.1491.0431-.3198.0812-.512.1144-.1923.0298-.3795.058-.5618.0845-.1823.0232-.3348.0431-.4574.0596-.2884.0365-.5519.0978-.7905.184-.2353.0862-.4242.2104-.5668.3729-.1392.159-.2088.3712-.2088.6363 0 .3679.1359.6463.4077.8352.2718.1856.6181.2785 1.0391.2785zm8.9898-6.6123v1.1932h-4.1711v-1.1932zm-3.0525-1.8295h1.4865v7.2237c0 .2884.0431.5055.1293.6513.0861.1425.1972.2403.333.2933.1393.0497.2901.0746.4525.0746.1193 0 .2237-.0083.3132-.0249.0895-.0165.1591-.0298.2088-.0397l.2684 1.2279c-.0861.0332-.2088.0663-.3679.0995-.159.0364-.3579.0563-.5965.0596-.3911.0067-.7557-.0629-1.0938-.2088-.3381-.1458-.6115-.3712-.8203-.6761s-.3132-.6877-.3132-1.1484zm4.6969 9.4659v-7.6364h1.4865v7.6364zm.7507-8.8146c-.2585 0-.4806-.0862-.6662-.2586-.1823-.1756-.2734-.3844-.2734-.6264 0-.2452.0911-.454.2734-.6264.1856-.1757.4077-.2635.6662-.2635s.4789.0878.6612.2635c.1856.1724.2784.3812.2784.6264 0 .242-.0928.4508-.2784.6264-.1823.1724-.4027.2586-.6612.2586zm5.9521 8.9687c-.716 0-1.341-.164-1.874-.4922-.534-.3281-.948-.7871-1.243-1.3771s-.4425-1.2794-.4425-2.0682c0-.7921.1475-1.4848.4425-2.0781s.709-1.054 1.243-1.3821c.533-.3281 1.158-.4922 1.874-.4922s1.341.1641 1.874.4922c.534.3281.948.7888 1.243 1.3821s.443 1.286.443 2.0781c0 .7888-.148 1.4782-.443 2.0682s-.709 1.049-1.243 1.3771c-.533.3282-1.158.4922-1.874.4922zm.005-1.2479c.464 0 .849-.1226 1.154-.3678.304-.2453.53-.5718.676-.9795.149-.4076.223-.8567.223-1.3473 0-.4872-.074-.9346-.223-1.3423-.146-.411-.372-.7407-.676-.9893-.305-.2486-.69-.3729-1.154-.3729-.467 0-.855.1243-1.163.3729-.305.2486-.532.5783-.681.9893-.146.4077-.219.8551-.219 1.3423 0 .4906.073.9397.219 1.3473.149.4077.376.7342.681.9795.308.2452.696.3678 1.163.3678zm6.701-3.4403v4.5341h-1.487v-7.6364h1.427v1.2429h.094c.176-.4043.451-.7291.826-.9744.378-.2453.853-.3679 1.427-.3679.52 0 .976.1094 1.367.3281.391.2155.694.537.909.9645.216.4276.324.9562.324 1.586v4.8572h-1.487v-4.6783c0-.5535-.144-.986-.432-1.2976-.289-.3148-.685-.4723-1.189-.4723-.344 0-.651.0746-.919.2238-.265.1491-.476.3679-.632.6562-.152.2851-.228.6298-.228 1.0341zm15.456-2.3366h-1.551c-.06-.3315-.171-.6231-.333-.875s-.361-.4657-.597-.6414c-.235-.1756-.498-.3082-.79-.3977-.288-.0895-.595-.1342-.92-.1342-.586 0-1.112.1475-1.576.4424-.46.295-.825.7275-1.094 1.2976-.265.5701-.397 1.2661-.397 2.0881 0 .8286.132 1.5279.397 2.098.269.5701.635 1.0009 1.099 1.2926s.986.4375 1.566.4375c.322 0 .627-.0431.915-.1292.292-.0895.555-.2205.79-.3928.236-.1723.435-.3828.597-.6314.166-.2519.28-.5402.343-.865l1.551.0049c-.083.5005-.243.9612-.482 1.3821-.235.4176-.539.7789-.91 1.0838-.368.3016-.789.5353-1.263.701s-.991.2486-1.551.2486c-.881 0-1.667-.2088-2.356-.6264-.69-.4209-1.233-1.0225-1.631-1.8047-.394-.7822-.592-1.7152-.592-2.799 0-1.0871.199-2.0201.597-2.799.398-.7822.941-1.3821 1.631-1.7997.689-.421 1.473-.6314 2.351-.6314.541 0 1.044.0779 1.512.2336.47.1525.893.3779 1.267.6762.375.295.685.6562.93 1.0838.245.4242.411.9098.497 1.4567zm3.206 2.3366v4.5341h-1.487v-10.1818h1.467v3.7883h.094c.179-.411.453-.7374.821-.9794.367-.2419.848-.3629 1.441-.3629.524 0 .981.1077 1.372.3232.395.2154.7.5369.915.9644.219.4243.328.9546.328 1.591v4.8572h-1.486v-4.6783c0-.5601-.144-.9943-.433-1.3025-.288-.3116-.689-.4674-1.203-.4674-.351 0-.666.0746-.944.2238-.275.1491-.493.3679-.652.6562-.155.2851-.233.6298-.233 1.0341zm9.157 4.7031c-.484 0-.921-.0895-1.312-.2684-.391-.1823-.701-.4458-.93-.7905-.225-.3447-.338-.7673-.338-1.2678 0-.4308.083-.7855.249-1.0639.165-.2784.389-.4988.671-.6612s.596-.2851.944-.3679c.348-.0829.703-.1458 1.064-.1889.458-.0531.829-.0961 1.114-.1293.285-.0365.492-.0945.621-.174.13-.0795.194-.2088.194-.3878v-.0348c0-.4342-.122-.7706-.368-1.0092-.242-.2387-.603-.358-1.083-.358-.501 0-.895.1111-1.184.3331-.285.2188-.482.4624-.591.7308l-1.397-.3181c.165-.464.407-.8386.726-1.1236.321-.2884.691-.4972 1.108-.6264.418-.1326.857-.1989 1.318-.1989.305 0 .628.0365.969.1094.345.0696.666.1988.965.3878.301.1889.548.459.74.8103.193.348.289.8005.289 1.3573v5.071h-1.452v-1.044h-.06c-.096.1922-.24.3811-.432.5667s-.439.3398-.741.4624c-.301.1226-.663.1839-1.084.1839zm.324-1.1931c.41 0 .762-.0813 1.053-.2437.295-.1624.519-.3745.672-.6363.155-.2652.233-.5486.233-.8502v-.9843c-.053.053-.155.1027-.308.1491-.149.0431-.32.0812-.512.1144-.192.0298-.379.058-.562.0845-.182.0232-.335.0431-.457.0596-.289.0365-.552.0978-.791.184-.235.0862-.424.2104-.566.3729-.14.159-.209.3712-.209.6363 0 .3679.136.6463.407.8352.272.1856.619.2785 1.04.2785zm5.425 1.0241v-7.6364h1.486v7.6364zm.75-8.8146c-.258 0-.48-.0862-.666-.2586-.182-.1756-.273-.3844-.273-.6264 0-.2452.091-.454.273-.6264.186-.1757.408-.2635.666-.2635.259 0 .479.0878.662.2635.185.1724.278.3812.278.6264 0 .242-.093.4508-.278.6264-.183.1724-.403.2586-.662.2586zm4.223 4.2805v4.5341h-1.487v-7.6364h1.427v1.2429h.094c.176-.4043.451-.7291.826-.9744.378-.2453.853-.3679 1.427-.3679.52 0 .976.1094 1.367.3281.391.2155.694.537.91.9645.215.4276.323.9562.323 1.586v4.8572h-1.487v-4.6783c0-.5535-.144-.986-.432-1.2976-.289-.3148-.685-.4723-1.189-.4723-.344 0-.651.0746-.919.2238-.265.1491-.476.3679-.632.6562-.152.2851-.228.6298-.228 1.0341zm8.814 3.1421-.074.5419c-.05.3977-.135.812-.254 1.2429-.116.4341-.237.8368-.363 1.2081-.122.3712-.224.6661-.303.8849h-1.054c.043-.2055.103-.4839.179-.8352.076-.348.151-.7375.224-1.1684.073-.4308.127-.87.164-1.3174l.049-.5568zm-111.9277 11.7556v1.1932h-4.1712v-1.1932zm-3.0525-1.8295h1.4865v7.2237c0 .2884.043.5055.1292.6513.0862.1425.1972.2403.3331.2933.1392.0497.29.0746.4524.0746.1194 0 .2238-.0083.3132-.0249.0895-.0165.1591-.0298.2088-.0397l.2685 1.2279c-.0862.0332-.2088.0663-.3679.0995-.1591.0364-.3579.0563-.5966.0596-.3911.0067-.7557-.0629-1.0937-.2088-.3381-.1458-.6115-.3712-.8203-.6761s-.3132-.6877-.3132-1.1484zm6.9192 9.6349c-.4839 0-.9214-.0895-1.3125-.2684-.3911-.1823-.701-.4458-.9297-.7905-.2254-.3447-.3381-.7673-.3381-1.2678 0-.4308.0829-.7855.2486-1.0639s.3894-.4988.6712-.6612c.2817-.1624.5965-.2851.9446-.3679.348-.0829.7026-.1458 1.0639-.1889.4574-.0531.8286-.0961 1.1136-.1293.2851-.0365.4922-.0945.6215-.174.1292-.0795.1939-.2088.1939-.3878v-.0348c0-.4342-.1227-.7706-.3679-1.0092-.242-.2387-.6033-.358-1.0839-.358-.5004 0-.8948.1111-1.1832.3331-.285.2188-.4822.4624-.5916.7308l-1.397-.3181c.1657-.464.4076-.8386.7258-1.1236.3215-.2884.6911-.4972 1.1087-.6264.4176-.1326.8568-.1989 1.3175-.1989.3049 0 .628.0365.9694.1094.3447.0696.6662.1988.9645.3878.3016.1889.5485.459.7408.8103.1922.348.2883.8005.2883 1.3573v5.071h-1.4517v-1.044h-.0596c-.0961.1922-.2403.3811-.4326.5667-.1922.1856-.4391.3398-.7407.4624s-.6629.1839-1.0838.1839zm.3231-1.1931c.411 0 .7623-.0813 1.054-.2437.295-.1624.5187-.3745.6712-.6363.1557-.2652.2336-.5486.2336-.8502v-.9843c-.053.053-.1558.1027-.3082.1491-.1492.0431-.3199.0812-.5121.1144-.1922.0298-.3795.058-.5618.0845-.1823.0232-.3347.0431-.4574.0596-.2883.0365-.5518.0978-.7904.184-.2354.0862-.4243.2104-.5668.3729-.1392.159-.2088.3712-.2088.6363 0 .3679.1359.6463.4077.8352.2717.1856.6181.2785 1.039.2785zm5.4253 1.0241v-7.6364h1.4368v1.2131h.0795c.1392-.411.3845-.7341.7358-.9695.3546-.2386.7557-.3579 1.2031-.3579.0928 0 .2022.0033.3281.0099.1293.0067.2304.0149.3033.0249v1.4219c-.0596-.0166-.1657-.0348-.3182-.0547-.1524-.0232-.3049-.0348-.4574-.0348-.3513 0-.6645.0746-.9396.2237-.2718.1458-.4872.3497-.6463.6115-.1591.2585-.2386.5535-.2386.8849v4.6634zm8.3013 3.0227c-.6066 0-1.1286-.0795-1.5661-.2386-.4342-.1591-.7888-.3696-1.0639-.6314s-.4806-.5485-.6165-.8601l1.2777-.527c.0895.1459.2088.3.358.4624.1524.1657.3579.3066.6165.4226.2618.116.5982.174 1.0092.174.5634 0 1.0291-.1376 1.397-.4127.3679-.2717.5519-.7059.5519-1.3025v-1.5014h-.0945c-.0895.1624-.2187.343-.3878.5419-.1657.1988-.3944.3712-.6861.517-.2916.1458-.6711.2188-1.1385.2188-.6032 0-1.1467-.1409-1.6306-.4226-.4806-.2851-.8618-.7043-1.1435-1.2578-.2784-.5569-.4176-1.2413-.4176-2.0533s.1375-1.5081.4126-2.0881c.2784-.58.6596-1.0241 1.1435-1.3324.4839-.3115 1.0324-.4673 1.6456-.4673.4739 0 .8568.0796 1.1484.2386.2917.1558.5187.3381.6811.5469.1658.2088.2934.3928.3828.5519h.1094v-1.238h1.4567v7.8054c0 .6563-.1525 1.1949-.4574 1.6158s-.7176.7325-1.2379.9347c-.5171.2021-1.1004.3032-1.75.3032zm-.0149-4.37c.4275 0 .7888-.0994 1.0838-.2983.2983-.2022.5236-.4905.6761-.8651.1558-.3778.2337-.8302.2337-1.3572 0-.5137-.0763-.9661-.2287-1.3572-.1525-.3911-.3762-.6961-.6712-.9148-.295-.2221-.6595-.3331-1.0937-.3331-.4475 0-.8203.116-1.1186.348-.2983.2287-.5237.5402-.6762.9347-.1491.3944-.2237.8352-.2237 1.3224 0 .5005.0762.9396.2287 1.3175.1525.3778.3778.6728.6761.8849.3016.2121.6729.3182 1.1137.3182zm8.745 1.5014c-.7524 0-1.4003-.1607-1.9439-.4822-.5402-.3248-.9579-.7806-1.2528-1.3672-.2917-.59-.4375-1.281-.4375-2.0732 0-.7822.1458-1.4716.4375-2.0681.2949-.5966.7059-1.0623 1.2329-1.3971.5303-.3347 1.1501-.5021 1.8594-.5021.4309 0 .8485.0713 1.2528.2138.4044.1425.7673.3662 1.0888.6711.3215.305.5751.701.7607 1.1883.1856.4839.2784 1.0722.2784 1.7649v.527h-6.0703v-1.1137h4.6136c0-.3911-.0795-.7374-.2386-1.039-.1591-.305-.3829-.5453-.6712-.7209-.285-.1757-.6198-.2635-1.0043-.2635-.4176 0-.7822.1027-1.0937.3082-.3083.2022-.5469.4674-.7159.7955-.1657.3248-.2486.6778-.2486 1.0589v.8701c0 .5104.0895.9446.2685 1.3025.1823.358.4358.6314.7606.8203.3248.1856.7043.2784 1.1385.2784.2817 0 .5386-.0397.7706-.1193.232-.0828.4325-.2055.6016-.3679.169-.1624.2983-.3629.3878-.6015l1.4069.2535c-.1127.4143-.3149.7772-.6065 1.0888-.2884.3082-.6513.5485-1.0888.7209-.4342.169-.9297.2535-1.4865.2535zm8.4902-7.7905v1.1932h-4.1711v-1.1932zm-3.0525-1.8295h1.4865v7.2237c0 .2884.0431.5055.1292.6513.0862.1425.1972.2403.3331.2933.1392.0497.29.0746.4525.0746.1193 0 .2237-.0083.3132-.0249.0895-.0165.1591-.0298.2088-.0397l.2684 1.2279c-.0861.0332-.2088.0663-.3679.0995-.1591.0364-.3579.0563-.5966.0596-.3911.0067-.7556-.0629-1.0937-.2088-.3381-.1458-.6115-.3712-.8203-.6761s-.3132-.6877-.3132-1.1484zm5.6763 9.4659h-1.6307l3.6641-10.1818h1.7748l3.6641 10.1818h-1.6307l-2.8785-8.3324h-.0796zm.2734-3.9872h5.2898v1.2926h-5.2898zm11.2855 4.1363c-.6164 0-1.1666-.1574-1.6505-.4723-.4806-.3181-.8585-.7706-1.1336-1.3572-.2717-.59-.4076-1.2976-.4076-2.1229s.1375-1.5312.4126-2.1179c.2784-.5866.6596-1.0357 1.1435-1.3473.4839-.3115 1.0324-.4673 1.6456-.4673.4739 0 .8551.0796 1.1434.2386.2917.1558.5171.3381.6762.5469.1624.2088.2883.3928.3778.5519h.0895v-3.7834h1.4865v10.1818h-1.4517v-1.1882h-.1243c-.0895.1624-.2187.348-.3878.5568-.1657.2088-.3944.3911-.686.5469-.2917.1558-.6695.2336-1.1336.2336zm.3282-1.2677c.4275 0 .7888-.1127 1.0838-.3381.2983-.2287.5236-.5452.6761-.9495.1558-.4044.2337-.8751.2337-1.412 0-.5303-.0763-.9943-.2287-1.392-.1525-.3978-.3762-.7077-.6712-.9297-.295-.2221-.6596-.3331-1.0937-.3331-.4475 0-.8204.116-1.1186.348-.2983.232-.5237.5485-.6762.9496-.1491.401-.2237.8534-.2237 1.3572 0 .5104.0762.9695.2287 1.3771.1525.4077.3778.7309.6761.9695.3016.2353.6728.353 1.1137.353zm8.4351 1.2677c-.616 0-1.166-.1574-1.65-.4723-.481-.3181-.859-.7706-1.134-1.3572-.271-.59-.4074-1.2976-.4074-2.1229s.1374-1.5312.4124-2.1179c.279-.5866.66-1.0357 1.144-1.3473.484-.3115 1.032-.4673 1.645-.4673.474 0 .855.0796 1.144.2386.291.1558.517.3381.676.5469.162.2088.288.3928.378.5519h.089v-3.7834h1.487v10.1818h-1.452v-1.1882h-.124c-.09.1624-.219.348-.388.5568-.166.2088-.394.3911-.686.5469s-.67.2336-1.134.2336zm.329-1.2677c.427 0 .788-.1127 1.083-.3381.299-.2287.524-.5452.676-.9495.156-.4044.234-.8751.234-1.412 0-.5303-.076-.9943-.229-1.392-.152-.3978-.376-.7077-.671-.9297-.295-.2221-.659-.3331-1.093-.3331-.448 0-.821.116-1.119.348s-.524.5485-.676.9496c-.149.401-.224.8534-.224 1.3572 0 .5104.076.9695.229 1.3771.152.4077.378.7309.676.9695.302.2353.673.353 1.114.353zm5.576 1.1186v-7.6364h1.437v1.2131h.08c.139-.411.384-.7341.736-.9695.354-.2386.755-.3579 1.203-.3579.092 0 .202.0033.328.0099.129.0067.23.0149.303.0249v1.4219c-.06-.0166-.166-.0348-.318-.0547-.153-.0232-.305-.0348-.458-.0348-.351 0-.664.0746-.939.2237-.272.1458-.487.3497-.646.6115-.16.2585-.239.5535-.239.8849v4.6634zm8.391.1541c-.752 0-1.4-.1607-1.944-.4822-.54-.3248-.958-.7806-1.253-1.3672-.291-.59-.437-1.281-.437-2.0732 0-.7822.146-1.4716.437-2.0681.295-.5966.706-1.0623 1.233-1.3971.531-.3347 1.151-.5021 1.86-.5021.431 0 .848.0713 1.253.2138.404.1425.767.3662 1.088.6711.322.305.575.701.761 1.1883.186.4839.278 1.0722.278 1.7649v.527h-6.07v-1.1137h4.614c0-.3911-.08-.7374-.239-1.039-.159-.305-.383-.5453-.671-.7209-.285-.1757-.62-.2635-1.004-.2635-.418 0-.782.1027-1.094.3082-.308.2022-.547.4674-.716.7955-.166.3248-.248.6778-.248 1.0589v.8701c0 .5104.089.9446.268 1.3025.182.358.436.6314.761.8203.324.1856.704.2784 1.138.2784.282 0 .539-.0397.771-.1193.232-.0828.432-.2055.601-.3679s.299-.3629.388-.6015l1.407.2535c-.113.4143-.315.7772-.606 1.0888-.289.3082-.652.5485-1.089.7209-.434.169-.93.2535-1.487.2535zm10.648-5.9261-1.347.2386c-.057-.1723-.146-.3364-.269-.4922-.119-.1557-.281-.2833-.487-.3828-.205-.0994-.462-.1491-.77-.1491-.421 0-.773.0944-1.054.2834-.282.1856-.423.4259-.423.7208 0 .2552.094.4607.283.6165s.494.2834.915.3828l1.213.2784c.703.1624 1.227.4127 1.571.7507.345.3381.517.7773.517 1.3175 0 .4574-.132.8651-.397 1.223-.262.3547-.629.6331-1.099.8353-.468.2021-1.009.3032-1.626.3032-.855 0-1.553-.1823-2.093-.5469-.54-.3679-.872-.8899-.994-1.566l1.437-.2188c.089.3746.273.658.551.8502.279.1889.642.2834 1.089.2834.487 0 .877-.1011 1.168-.3033.292-.2055.438-.4557.438-.7507 0-.2386-.089-.4392-.268-.6016-.176-.1624-.446-.285-.811-.3679l-1.292-.2834c-.713-.1624-1.24-.4209-1.581-.7755-.338-.3547-.508-.8038-.508-1.3473 0-.4508.126-.8452.378-1.1833.252-.338.6-.6015 1.044-.7904.444-.1923.953-.2884 1.527-.2884.825 0 1.475.179 1.948.5369.474.3547.788.8303.94 1.4269zm7.506 0-1.347.2386c-.057-.1723-.146-.3364-.269-.4922-.119-.1557-.282-.2833-.487-.3828-.205-.0994-.462-.1491-.771-.1491-.421 0-.772.0944-1.054.2834-.281.1856-.422.4259-.422.7208 0 .2552.094.4607.283.6165s.494.2834.915.3828l1.213.2784c.703.1624 1.226.4127 1.571.7507.345.3381.517.7773.517 1.3175 0 .4574-.132.8651-.398 1.223-.261.3547-.628.6331-1.098.8353-.468.2021-1.01.3032-1.626.3032-.855 0-1.553-.1823-2.093-.5469-.54-.3679-.872-.8899-.994-1.566l1.436-.2188c.09.3746.274.658.552.8502.279.1889.642.2834 1.089.2834.487 0 .877-.1011 1.168-.3033.292-.2055.438-.4557.438-.7507 0-.2386-.09-.4392-.269-.6016-.175-.1624-.445-.285-.81-.3679l-1.293-.2834c-.712-.1624-1.239-.4209-1.581-.7755-.338-.3547-.507-.8038-.507-1.3473 0-.4508.126-.8452.378-1.1833.252-.338.6-.6015 1.044-.7904.444-.1923.953-.2884 1.526-.2884.826 0 1.475.179 1.949.5369.474.3547.788.8303.94 1.4269zm3.717 4.38-.074.5419c-.05.3977-.134.812-.254 1.2429-.116.4341-.237.8368-.363 1.2081-.122.3712-.223.6661-.303.8849h-1.054c.043-.2055.103-.4839.179-.8352.076-.348.151-.7375.224-1.1684.073-.4308.127-.87.164-1.3174l.05-.5568zm-94.2497 11.756v1.193h-4.1712v-1.193zm-3.0525-1.83h1.4865v7.224c0 .288.043.505.1292.651.0862.143.1972.24.3331.293.1392.05.29.075.4524.075.1194 0 .2238-.008.3132-.025.0895-.016.1591-.03.2088-.04l.2685 1.228c-.0862.033-.2088.067-.3679.1-.1591.036-.3579.056-.5966.059-.3911.007-.7557-.063-1.0937-.208-.3381-.146-.6115-.372-.8203-.677-.2088-.304-.3132-.687-.3132-1.148zm7.8315 9.62c-.716 0-1.3407-.164-1.8743-.492-.5337-.328-.948-.787-1.2429-1.377-.295-.59-.4425-1.28-.4425-2.068 0-.793.1475-1.485.4425-2.079.2949-.593.7092-1.053 1.2429-1.382.5336-.328 1.1583-.492 1.8743-.492.7159 0 1.3406.164 1.8742.492.5337.329.948.789 1.2429 1.382.295.594.4425 1.286.4425 2.079 0 .788-.1475 1.478-.4425 2.068-.2949.59-.7092 1.049-1.2429 1.377-.5336.328-1.1583.492-1.8742.492zm.0049-1.248c.464 0 .8485-.122 1.1534-.368.305-.245.5303-.571.6762-.979.1491-.408.2237-.857.2237-1.347 0-.488-.0746-.935-.2237-1.343-.1459-.411-.3712-.74-.6762-.989-.3049-.249-.6894-.373-1.1534-.373-.4673 0-.8551.124-1.1633.373-.305.249-.532.578-.6811.989-.1459.408-.2188.855-.2188 1.343 0 .49.0729.939.2188 1.347.1491.408.3761.734.6811.979.3082.246.696.368 1.1633.368zm6.5812-1.496-.01-1.815h.2585l3.0427-3.231h1.7798l-3.4702 3.679h-.2336zm-1.3672 2.59v-10.1818h1.4865v10.1818zm4.8224 0-2.7344-3.629 1.0242-1.039 3.5348 4.668zm5.9473.154c-.7524 0-1.4003-.161-1.9439-.482-.5402-.325-.9579-.781-1.2528-1.367-.2917-.59-.4375-1.281-.4375-2.073 0-.783.1458-1.472.4375-2.069.2949-.596.7059-1.062 1.2329-1.397.5303-.334 1.1501-.502 1.8594-.502.4309 0 .8485.071 1.2528.214.4044.143.7673.366 1.0888.671s.5751.701.7607 1.188c.1856.484.2784 1.073.2784 1.765v.527h-6.0703v-1.113h4.6136c0-.391-.0796-.738-.2386-1.039-.1591-.305-.3829-.546-.6712-.721-.285-.176-.6198-.264-1.0043-.264-.4176 0-.7822.103-1.0937.308-.3083.203-.5469.468-.7159.796-.1657.325-.2486.678-.2486 1.059v.87c0 .51.0895.944.2685 1.302.1822.358.4358.632.7606.821.3248.185.7043.278 1.1385.278.2817 0 .5386-.04.7706-.119.232-.083.4325-.206.6016-.368.169-.162.2983-.363.3877-.602l1.407.254c-.1127.414-.3149.777-.6065 1.089-.2884.308-.6513.548-1.0888.721-.4342.169-.9297.253-1.4865.253zm6.4121-4.688v4.534h-1.4865v-7.636h1.4268v1.243h.0945c.1757-.405.4508-.73.8253-.975.3778-.245.8534-.368 1.4268-.368.5204 0 .9761.11 1.3672.328.3911.216.6944.537.9098.965.2155.427.3232.956.3232 1.586v4.857h-1.4865v-4.678c0-.554-.1442-.986-.4326-1.298-.2883-.315-.6844-.472-1.1882-.472-.3447 0-.6513.074-.9197.224-.2652.149-.4756.367-.6314.656-.1525.285-.2287.63-.2287 1.034zm7.8601 4.534h-1.6307l3.6641-10.1818h1.7748l3.6641 10.1818h-1.6307l-2.8785-8.332h-.0796zm.2734-3.987h5.2898v1.292h-5.2898zm11.2855 4.136c-.6164 0-1.1666-.157-1.6505-.472-.4806-.318-.8585-.771-1.1336-1.357-.2717-.59-.4076-1.298-.4076-2.123 0-.826.1375-1.532.4126-2.118.2784-.587.6596-1.036 1.1435-1.347.4839-.312 1.0324-.468 1.6456-.468.4739 0 .8551.08 1.1434.239.2917.156.5171.338.6762.547.1624.209.2883.392.3778.552h.0895v-3.7838h1.4865v10.1818h-1.4517v-1.188h-.1243c-.0895.162-.2187.348-.3878.557-.1657.208-.3944.391-.686.546-.2917.156-.6696.234-1.1336.234zm.3282-1.268c.4275 0 .7888-.112 1.0838-.338.2983-.228.5236-.545.6761-.949.1558-.405.2337-.875.2337-1.412 0-.53-.0763-.995-.2287-1.392-.1525-.398-.3762-.708-.6712-.93s-.6596-.333-1.0937-.333c-.4475 0-.8204.116-1.1187.348-.2982.232-.5236.549-.6761.95-.1491.401-.2237.853-.2237 1.357 0 .51.0762.969.2287 1.377.1524.408.3778.731.6761.969.3016.236.6728.353 1.1137.353zm8.4358 1.268c-.6168 0-1.167-.157-1.6509-.472-.4806-.318-.8584-.771-1.1335-1.357-.2718-.59-.4077-1.298-.4077-2.123 0-.826.1376-1.532.4127-2.118.2784-.587.6595-1.036 1.1435-1.347.4839-.312 1.0324-.468 1.6459-.468.474 0 .855.08 1.143.239.292.156.517.338.676.547.163.209.289.392.378.552h.09v-3.7838h1.486v10.1818h-1.452v-1.188h-.124c-.089.162-.219.348-.388.557-.165.208-.394.391-.686.546-.291.156-.669.234-1.133.234zm.328-1.268c.427 0 .789-.112 1.084-.338.298-.228.523-.545.676-.949.156-.405.233-.875.233-1.412 0-.53-.076-.995-.228-1.392-.153-.398-.376-.708-.671-.93s-.66-.333-1.094-.333c-.448 0-.8205.116-1.1188.348s-.5237.549-.6761.95c-.1492.401-.2237.853-.2237 1.357 0 .51.0762.969.2287 1.377.1524.408.3778.731.6761.969.3016.236.6728.353 1.1138.353zm5.577 1.119v-7.636h1.437v1.213h.079c.139-.411.385-.734.736-.97.354-.238.756-.358 1.203-.358.093 0 .202.004.328.01.129.007.23.015.303.025v1.422c-.059-.017-.165-.035-.318-.055-.152-.023-.305-.035-.457-.035-.352 0-.665.075-.94.224-.272.146-.487.35-.646.612-.159.258-.239.553-.239.885v4.663zm8.391.154c-.753 0-1.401-.161-1.944-.482-.541-.325-.958-.781-1.253-1.367-.292-.59-.438-1.281-.438-2.073 0-.783.146-1.472.438-2.069.295-.596.706-1.062 1.233-1.397.53-.334 1.15-.502 1.859-.502.431 0 .849.071 1.253.214s.767.366 1.089.671c.321.305.575.701.76 1.188.186.484.279 1.073.279 1.765v.527h-6.071v-1.113h4.614c0-.391-.079-.738-.239-1.039-.159-.305-.382-.546-.671-.721-.285-.176-.619-.264-1.004-.264-.418 0-.782.103-1.094.308-.308.203-.547.468-.716.796-.165.325-.248.678-.248 1.059v.87c0 .51.089.944.268 1.302.183.358.436.632.761.821.325.185.704.278 1.138.278.282 0 .539-.04.771-.119.232-.083.433-.206.602-.368s.298-.363.387-.602l1.407.254c-.112.414-.315.777-.606 1.089-.289.308-.651.548-1.089.721-.434.169-.93.253-1.486.253zm10.647-5.926-1.347.239c-.056-.173-.146-.337-.268-.493-.12-.155-.282-.283-.488-.382-.205-.1-.462-.15-.77-.15-.421 0-.772.095-1.054.284-.282.185-.423.426-.423.721 0 .255.095.46.284.616s.494.284.914.383l1.213.278c.703.163 1.227.413 1.572.751.344.338.517.777.517 1.318 0 .457-.133.865-.398 1.223-.262.354-.628.633-1.099.835-.467.202-1.009.303-1.626.303-.855 0-1.552-.182-2.093-.547-.54-.368-.871-.89-.994-1.566l1.437-.219c.089.375.273.658.552.851.278.189.641.283 1.088.283.488 0 .877-.101 1.169-.303.291-.206.437-.456.437-.751 0-.239-.089-.439-.268-.602-.176-.162-.446-.285-.811-.367l-1.292-.284c-.713-.162-1.24-.421-1.581-.775-.338-.355-.507-.804-.507-1.348 0-.45.126-.845.378-1.183s.6-.602 1.044-.79c.444-.193.953-.289 1.526-.289.825 0 1.475.179 1.949.537.474.355.787.83.939 1.427zm7.506 0-1.347.239c-.056-.173-.146-.337-.268-.493-.12-.155-.282-.283-.488-.382-.205-.1-.462-.15-.77-.15-.421 0-.773.095-1.054.284-.282.185-.423.426-.423.721 0 .255.095.46.284.616.188.156.493.284.914.383l1.213.278c.703.163 1.227.413 1.571.751.345.338.517.777.517 1.318 0 .457-.132.865-.397 1.223-.262.354-.628.633-1.099.835-.467.202-1.009.303-1.626.303-.855 0-1.553-.182-2.093-.547-.54-.368-.871-.89-.994-1.566l1.437-.219c.089.375.273.658.552.851.278.189.641.283 1.088.283.488 0 .877-.101 1.169-.303.291-.206.437-.456.437-.751 0-.239-.089-.439-.268-.602-.176-.162-.446-.285-.811-.367l-1.292-.284c-.713-.162-1.24-.421-1.581-.775-.338-.355-.507-.804-.507-1.348 0-.45.126-.845.377-1.183.252-.338.6-.602 1.045-.79.444-.193.952-.289 1.526-.289.825 0 1.475.179 1.949.537.474.355.787.83.939 1.427zm3.718 4.38-.075.542c-.05.398-.134.812-.253 1.243-.116.434-.237.837-.363 1.208-.123.371-.224.666-.304.885h-1.054c.044-.206.103-.484.179-.835.077-.348.151-.738.224-1.169s.128-.87.164-1.317l.05-.557zm-92.2357 19.541c-.6164 0-1.1666-.157-1.6505-.472-.4806-.318-.8585-.771-1.1335-1.357-.2718-.59-.4077-1.298-.4077-2.123 0-.826.1375-1.532.4126-2.118.2784-.587.6596-1.036 1.1435-1.347.4839-.312 1.0324-.468 1.6456-.468.4739 0 .8551.08 1.1435.239.2916.156.517.338.6761.547.1624.209.2883.392.3778.552h.0895v-3.784h1.4865v10.182h-1.4517v-1.188h-.1243c-.0895.162-.2187.348-.3878.557-.1657.208-.3944.391-.686.546-.2917.156-.6695.234-1.1336.234zm.3282-1.268c.4275 0 .7888-.112 1.0838-.338.2983-.228.5237-.545.6761-.949.1558-.405.2337-.875.2337-1.412 0-.53-.0763-.995-.2287-1.392-.1525-.398-.3762-.708-.6712-.93s-.6595-.333-1.0937-.333c-.4475 0-.8203.116-1.1186.348s-.5237.549-.6762.95c-.1491.401-.2237.853-.2237 1.357 0 .51.0762.969.2287 1.377s.3778.731.6761.969c.3016.236.6729.353 1.1137.353zm8.868 1.273c-.7523 0-1.4003-.161-1.9438-.482-.5403-.325-.9579-.781-1.2529-1.367-.2917-.59-.4375-1.281-.4375-2.073 0-.783.1458-1.472.4375-2.069.295-.596.706-1.062 1.233-1.397.5303-.334 1.1501-.502 1.8593-.502.4309 0 .8485.071 1.2529.214.4043.143.7673.366 1.0888.671s.575.701.7606 1.188c.1856.484.2784 1.073.2784 1.765v.527h-6.0703v-1.113h4.6136c0-.391-.0795-.738-.2386-1.039-.1591-.305-.3828-.546-.6712-.721-.285-.176-.6197-.264-1.0042-.264-.4176 0-.7822.103-1.0938.308-.3082.203-.5468.468-.7159.796-.1657.325-.2486.678-.2486 1.059v.87c0 .51.0895.944.2685 1.302.1823.358.4359.632.7607.821.3248.185.7043.278 1.1385.278.2817 0 .5385-.04.7706-.119.232-.083.4325-.206.6015-.368.1691-.162.2983-.363.3878-.602l1.407.254c-.1127.414-.3149.777-.6066 1.089-.2883.308-.6512.548-1.0887.721-.4342.169-.9297.253-1.4866.253zm6.4122-10.336v10.182h-1.4866v-10.182zm5.291 10.336c-.7524 0-1.4004-.161-1.9439-.482-.5403-.325-.9579-.781-1.2529-1.367-.2916-.59-.4375-1.281-.4375-2.073 0-.783.1459-1.472.4375-2.069.295-.596.706-1.062 1.233-1.397.5303-.334 1.1501-.502 1.8594-.502.4308 0 .8485.071 1.2528.214.4044.143.7673.366 1.0888.671s.575.701.7606 1.188c.1856.484.2784 1.073.2784 1.765v.527h-6.0703v-1.113h4.6137c0-.391-.0796-.738-.2387-1.039-.1591-.305-.3828-.546-.6711-.721-.2851-.176-.6198-.264-1.0043-.264-.4176 0-.7822.103-1.0937.308-.3083.203-.5469.468-.7159.796-.1658.325-.2486.678-.2486 1.059v.87c0 .51.0895.944.2684 1.302.1823.358.4359.632.7607.821.3248.185.7043.278 1.1385.278.2817 0 .5386-.04.7706-.119.232-.083.4325-.206.6015-.368.1691-.162.2983-.363.3878-.602l1.407.254c-.1127.414-.3149.777-.6065 1.089-.2884.308-.6513.548-1.0888.721-.4342.169-.9297.253-1.4865.253zm8.1273 2.869c-.6066 0-1.1286-.08-1.5661-.239-.4342-.159-.7888-.369-1.0639-.631s-.4806-.549-.6165-.86l1.2777-.527c.0895.145.2088.3.358.462.1524.166.3579.307.6165.423.2618.116.5982.174 1.0092.174.5634 0 1.0291-.138 1.397-.413.3679-.272.5519-.706.5519-1.303v-1.501h-.0945c-.0895.162-.2188.343-.3878.542-.1657.199-.3944.371-.6861.517-.2916.146-.6711.219-1.1385.219-.6032 0-1.1467-.141-1.6306-.423-.4806-.285-.8618-.704-1.1435-1.258-.2784-.557-.4176-1.241-.4176-2.053s.1375-1.508.4126-2.088c.2784-.58.6596-1.024 1.1435-1.332.4839-.312 1.0324-.468 1.6456-.468.4739 0 .8568.08 1.1484.239.2917.156.5187.338.6811.547.1657.209.2934.392.3828.552h.1094v-1.238h1.4567v7.805c0 .656-.1525 1.195-.4574 1.616s-.7176.732-1.2379.934c-.5171.203-1.1004.304-1.75.304zm-.0149-4.37c.4275 0 .7888-.1 1.0838-.299.2983-.202.5236-.49.6761-.865.1558-.377.2337-.83.2337-1.357 0-.514-.0763-.966-.2287-1.357-.1525-.391-.3762-.696-.6712-.915-.295-.222-.6596-.333-1.0937-.333-.4475 0-.8203.116-1.1186.348-.2983.229-.5237.54-.6762.935-.1491.394-.2237.835-.2237 1.322 0 .501.0762.94.2287 1.318.1525.377.3778.672.6761.885.3016.212.6728.318 1.1137.318zm7.6761 1.516c-.4839 0-.9214-.089-1.3125-.268-.3911-.183-.701-.446-.9297-.791-.2254-.345-.3381-.767-.3381-1.268 0-.431.0829-.785.2486-1.064.1657-.278.3895-.498.6712-.661.2817-.162.5966-.285.9446-.368s.7026-.146 1.0639-.189c.4574-.053.8286-.096 1.1136-.129.2851-.036.4922-.094.6215-.174.1293-.079.1939-.209.1939-.388v-.034c0-.435-.1226-.771-.3679-1.01-.242-.238-.6032-.358-1.0838-.358-.5005 0-.8949.111-1.1833.333-.285.219-.4822.463-.5916.731l-1.397-.318c.1657-.464.4077-.838.7259-1.124.3215-.288.691-.497 1.1086-.626.4176-.133.8568-.199 1.3175-.199.3049 0 .6281.037.9695.11.3447.069.6662.198.9644.387.3017.189.5486.459.7408.811.1922.348.2884.8.2884 1.357v5.071h-1.4517v-1.044h-.0597c-.0961.192-.2403.381-.4325.567-.1923.185-.4392.339-.7408.462s-.6629.184-1.0838.184zm.3232-1.193c.4109 0 .7623-.081 1.0539-.244.295-.162.5187-.374.6712-.636.1558-.265.2337-.549.2337-.85v-.985c-.0531.053-.1558.103-.3083.15-.1491.043-.3198.081-.5121.114-.1922.03-.3794.058-.5617.084-.1823.024-.3348.043-.4574.06-.2884.036-.5519.098-.7905.184-.2353.086-.4243.21-.5668.373-.1392.159-.2088.371-.2088.636 0 .368.1359.647.4077.835.2718.186.6181.279 1.0391.279zm8.9898-6.612v1.193h-4.1711v-1.193zm-3.0525-1.83h1.4865v7.224c0 .288.0431.505.1292.651.0862.143.1972.24.3331.293.1392.05.29.075.4525.075.1193 0 .2237-.008.3132-.025.0895-.016.1591-.03.2088-.04l.2684 1.228c-.0861.033-.2088.067-.3679.1-.1591.036-.3579.056-.5966.059-.391.007-.7556-.063-1.0937-.208-.3381-.146-.6115-.372-.8203-.677-.2088-.304-.3132-.687-.3132-1.148zm7.906 9.62c-.7523 0-1.4003-.161-1.9438-.482-.5403-.325-.9579-.781-1.2529-1.367-.2917-.59-.4375-1.281-.4375-2.073 0-.783.1458-1.472.4375-2.069.295-.596.706-1.062 1.233-1.397.5303-.334 1.1501-.502 1.8593-.502.4309 0 .8485.071 1.2529.214.4043.143.7673.366 1.0888.671s.575.701.7606 1.188c.1856.484.2784 1.073.2784 1.765v.527h-6.0703v-1.113h4.6137c0-.391-.0796-.738-.2387-1.039-.1591-.305-.3828-.546-.6712-.721-.285-.176-.6197-.264-1.0042-.264-.4176 0-.7822.103-1.0938.308-.3082.203-.5468.468-.7159.796-.1657.325-.2486.678-.2486 1.059v.87c0 .51.0895.944.2685 1.302.1823.358.4359.632.7607.821.3248.185.7043.278 1.1385.278.2817 0 .5386-.04.7706-.119.232-.083.4325-.206.6015-.368.1691-.162.2983-.363.3878-.602l1.407.254c-.1127.414-.3149.777-.6066 1.089-.2883.308-.6512.548-1.0887.721-.4342.169-.9297.253-1.4866.253zm6.8593-1.546-.074.542c-.05.398-.135.812-.254 1.243-.116.434-.237.837-.363 1.208-.122.371-.223.666-.303.885h-1.054c.043-.206.103-.484.179-.835.076-.348.151-.738.224-1.169s.127-.87.164-1.317l.049-.557zm-58.35 19.561c-.4839 0-.9214-.089-1.3125-.268-.3911-.183-.701-.446-.9297-.791-.2254-.345-.3381-.767-.3381-1.268 0-.431.0829-.785.2486-1.064.1657-.278.3894-.498.6712-.661.2817-.162.5966-.285.9446-.368s.7026-.146 1.0639-.189c.4574-.053.8286-.096 1.1136-.129.2851-.036.4922-.094.6215-.174.1292-.079.1939-.209.1939-.388v-.034c0-.435-.1227-.771-.3679-1.01-.242-.238-.6032-.358-1.0838-.358-.5005 0-.8949.111-1.1833.333-.285.219-.4822.463-.5916.731l-1.397-.318c.1657-.464.4077-.838.7258-1.124.3215-.288.6911-.497 1.1087-.626.4176-.133.8568-.199 1.3175-.199.3049 0 .6281.037.9694.11.3447.069.6662.198.9645.387.3016.189.5486.459.7408.811.1922.348.2883.8.2883 1.357v5.071h-1.4517v-1.044h-.0596c-.0961.192-.2403.381-.4325.567-.1923.185-.4392.339-.7408.462s-.6629.184-1.0838.184zm.3231-1.193c.411 0 .7623-.081 1.054-.244.295-.162.5187-.374.6712-.636.1558-.265.2336-.549.2336-.85v-.985c-.053.053-.1557.103-.3082.15-.1491.043-.3198.081-.5121.114-.1922.03-.3795.058-.5618.084-.1823.024-.3347.043-.4573.06-.2884.036-.5519.098-.7905.184-.2354.086-.4243.21-.5668.373-.1392.159-.2088.371-.2088.636 0 .368.1359.647.4077.835.2718.186.6181.279 1.039.279zm5.4253 1.024v-7.636h1.4268v1.243h.0945c.1591-.421.4193-.75.7805-.985.3613-.238.7938-.358 1.2976-.358.5104 0 .938.12 1.2827.358.348.239.6049.567.7706.985h.0795c.1823-.408.4723-.733.8701-.975.3977-.245.8716-.368 1.4218-.368.6927 0 1.2578.217 1.6953.651.4409.435.6613 1.089.6613 1.964v5.121h-1.4865v-4.982c0-.517-.1409-.891-.4226-1.123s-.6182-.348-1.0093-.348c-.4839 0-.86.149-1.1285.447-.2685.295-.4027.675-.4027 1.139v4.867h-1.4815v-5.076c0-.414-.1293-.747-.3878-.999s-.595-.378-1.0093-.378c-.2817 0-.5419.074-.7805.224-.2353.145-.4259.349-.5717.611-.1426.262-.2138.565-.2138.91v4.708zm15.5896.154c-.7159 0-1.3406-.164-1.8742-.492-.5337-.328-.948-.787-1.2429-1.377-.295-.59-.4425-1.28-.4425-2.068 0-.793.1475-1.485.4425-2.079.2949-.593.7092-1.053 1.2429-1.382.5336-.328 1.1583-.492 1.8742-.492.716 0 1.3407.164 1.8743.492.5337.329.948.789 1.2429 1.382.295.594.4425 1.286.4425 2.079 0 .788-.1475 1.478-.4425 2.068-.2949.59-.7092 1.049-1.2429 1.377-.5336.328-1.1583.492-1.8743.492zm.005-1.248c.464 0 .8485-.122 1.1534-.368.305-.245.5303-.571.6762-.979.1491-.408.2237-.857.2237-1.347 0-.488-.0746-.935-.2237-1.343-.1459-.411-.3712-.74-.6762-.989-.3049-.249-.6894-.373-1.1534-.373-.4673 0-.8551.124-1.1633.373-.305.249-.532.578-.6811.989-.1459.408-.2188.855-.2188 1.343 0 .49.0729.939.2188 1.347.1491.408.3761.734.6811.979.3082.246.696.368 1.1633.368zm10.0513-2.073v-4.469h1.4915v7.636h-1.4616v-1.322h-.0796c-.1756.407-.4574.747-.8452 1.019-.3844.268-.8634.402-1.4367.402-.4906 0-.9248-.107-1.3026-.323-.3745-.218-.6695-.542-.8849-.969-.2122-.428-.3182-.956-.3182-1.586v-4.857h1.4865v4.678c0 .52.1442.935.4325 1.243.2884.308.6629.462 1.1236.462.2784 0 .5552-.069.8302-.209.2785-.139.5088-.349.6911-.631.1856-.282.2767-.64.2734-1.074zm4.9754-1.367v4.534h-1.4866v-7.636h1.4269v1.243h.0945c.1756-.405.4507-.73.8252-.975.3779-.245.8535-.368 1.4269-.368.5203 0 .9761.11 1.3672.328.3911.216.6943.537.9098.965.2154.427.3231.956.3231 1.586v4.857h-1.4865v-4.678c0-.554-.1442-.986-.4325-1.298-.2884-.315-.6844-.472-1.1882-.472-.3447 0-.6513.074-.9198.224-.2651.149-.4756.367-.6314.656-.1524.285-.2286.63-.2286 1.034zm10.4453-3.102v1.193h-4.1712v-1.193zm-3.0526-1.83h1.4865v7.224c0 .288.0431.505.1293.651.0862.143.1972.24.3331.293.1392.05.29.075.4524.075.1193 0 .2237-.008.3132-.025.0895-.016.1591-.03.2088-.04l.2685 1.228c-.0862.033-.2088.067-.3679.1-.1591.036-.358.056-.5966.059-.3911.007-.7557-.063-1.0938-.208-.338-.146-.6115-.372-.8203-.677-.2088-.304-.3132-.687-.3132-1.148zm6.6309 8.074-.0746.542c-.0497.398-.1342.812-.2536 1.243-.116.434-.2369.837-.3629 1.208-.1226.371-.2237.666-.3032.885h-1.054c.0431-.206.1027-.484.179-.835.0762-.348.1508-.738.2237-1.169s.1276-.87.164-1.317l.0498-.557zm-46.8933 13.62-1.3473.239c-.0564-.173-.1459-.337-.2685-.493-.1193-.155-.2817-.283-.4872-.382-.2055-.1-.4624-.15-.7706-.15-.4209 0-.7723.095-1.054.284-.2817.185-.4226.426-.4226.721 0 .255.0945.46.2834.616s.4939.284.9148.383l1.2131.278c.7026.163 1.2263.413 1.571.751s.517.777.517 1.318c0 .457-.1325.865-.3977 1.223-.2618.354-.6281.633-1.0987.835-.4673.202-1.0093.303-1.6257.303-.8551 0-1.5528-.182-2.0931-.547-.5402-.368-.8717-.89-.9943-1.566l1.4368-.219c.0895.375.2734.658.5518.851.2785.189.6414.283 1.0888.283.4872 0 .8767-.101 1.1684-.303.2916-.206.4375-.456.4375-.751 0-.239-.0895-.439-.2685-.602-.1757-.162-.4458-.285-.8104-.367l-1.2926-.284c-.7126-.162-1.2396-.421-1.581-.775-.338-.355-.5071-.804-.5071-1.348 0-.45.126-.845.3779-1.183s.5999-.602 1.044-.79c.4441-.193.9529-.289 1.5263-.289.8253 0 1.4749.179 1.9489.537.4739.355.7871.83.9396 1.427zm3.27-4.41v10.182h-1.4865v-10.182zm1.9999 10.182v-7.636h1.4865v7.636zm.7507-8.815c-.2585 0-.4806-.086-.6662-.258-.1823-.176-.2735-.385-.2735-.627 0-.245.0912-.454.2735-.626.1856-.176.4077-.263.6662-.263s.4789.087.6612.263c.1856.172.2784.381.2784.626 0 .242-.0928.451-.2784.627-.1823.172-.4027.258-.6612.258zm2.7356 11.679v-10.5h1.4517v1.238h.1243c.0862-.16.2105-.343.3729-.552s.3877-.391.6761-.547c.2883-.159.6695-.239 1.1435-.239.6164 0 1.1666.156 1.6505.468.4839.311.8634.76 1.1385 1.347.2784.586.4176 1.292.4176 2.118 0 .825-.1375 1.533-.4126 2.123-.2751.586-.6529 1.039-1.1335 1.357-.4806.315-1.0291.472-1.6456.472-.464 0-.8435-.078-1.1385-.234-.2917-.155-.5204-.338-.6861-.546-.1657-.209-.2933-.395-.3828-.557h-.0895v4.052zm1.4567-6.682c0 .537.0779 1.007.2336 1.412.1558.404.3812.721.6762.949.295.226.6562.338 1.0838.338.4441 0 .8153-.117 1.1136-.353.2983-.238.5237-.561.6762-.969.1557-.408.2336-.867.2336-1.377 0-.504-.0762-.956-.2287-1.357-.1491-.401-.3745-.718-.6761-.95-.2983-.232-.6712-.348-1.1186-.348-.4309 0-.7955.111-1.0938.333-.295.222-.5187.532-.6711.93-.1525.397-.2287.862-.2287 1.392zm7.1839 6.682v-10.5h1.4517v1.238h.1243c.0862-.16.2105-.343.3729-.552s.3878-.391.6761-.547c.2884-.159.6695-.239 1.1435-.239.6165 0 1.1667.156 1.6506.468.4839.311.8634.76 1.1384 1.347.2785.586.4177 1.292.4177 2.118 0 .825-.1376 1.533-.4127 2.123-.2751.586-.6529 1.039-1.1335 1.357-.4806.315-1.0291.472-1.6456.472-.464 0-.8435-.078-1.1385-.234-.2917-.155-.5204-.338-.6861-.546-.1657-.209-.2933-.395-.3828-.557h-.0895v4.052zm1.4567-6.682c0 .537.0779 1.007.2337 1.412.1557.404.3811.721.6761.949.295.226.6562.338 1.0838.338.4441 0 .8153-.117 1.1136-.353.2983-.238.5237-.561.6762-.969.1558-.408.2336-.867.2336-1.377 0-.504-.0762-.956-.2287-1.357-.1491-.401-.3745-.718-.6761-.95-.2983-.232-.6712-.348-1.1186-.348-.4309 0-.7954.111-1.0937.333-.295.222-.5187.532-.6712.93-.1525.397-.2287.862-.2287 1.392zm9.4062 3.987c-.4839 0-.9214-.089-1.3125-.268-.3911-.183-.7009-.446-.9296-.791-.2254-.345-.3381-.767-.3381-1.268 0-.431.0829-.785.2486-1.064.1657-.278.3894-.498.6711-.661.2818-.162.5966-.285.9446-.368s.7027-.146 1.064-.189c.4573-.053.8286-.096 1.1136-.129.285-.036.4922-.094.6214-.174.1293-.079.1939-.209.1939-.388v-.034c0-.435-.1226-.771-.3679-1.01-.2419-.238-.6032-.358-1.0838-.358-.5004 0-.8949.111-1.1832.333-.285.219-.4823.463-.5916.731l-1.397-.318c.1657-.464.4076-.838.7258-1.124.3215-.288.6911-.497 1.1087-.626.4176-.133.8567-.199 1.3174-.199.305 0 .6281.037.9695.11.3447.069.6662.198.9645.387.3016.189.5485.459.7408.811.1922.348.2883.8.2883 1.357v5.071h-1.4517v-1.044h-.0597c-.0961.192-.2402.381-.4325.567-.1922.185-.4391.339-.7407.462-.3017.123-.6629.184-1.0839.184zm.3232-1.193c.411 0 .7623-.081 1.054-.244.295-.162.5187-.374.6711-.636.1558-.265.2337-.549.2337-.85v-.985c-.053.053-.1558.103-.3082.15-.1492.043-.3199.081-.5121.114-.1922.03-.3795.058-.5618.084-.1823.024-.3347.043-.4574.06-.2883.036-.5518.098-.7905.184-.2353.086-.4242.21-.5667.373-.1392.159-.2088.371-.2088.636 0 .368.1359.647.4076.835.2718.186.6182.279 1.0391.279zm8.627 4.047c-.6066 0-1.1286-.08-1.5661-.239-.4342-.159-.7888-.369-1.0639-.631s-.4806-.549-.6165-.86l1.2777-.527c.0895.145.2088.3.358.462.1524.166.3579.307.6164.423.2619.116.5983.174 1.0093.174.5634 0 1.0291-.138 1.397-.413.3679-.272.5518-.706.5518-1.303v-1.501h-.0944c-.0895.162-.2188.343-.3878.542-.1657.199-.3944.371-.6861.517s-.6712.219-1.1385.219c-.6032 0-1.1468-.141-1.6307-.423-.4806-.285-.8617-.704-1.1434-1.258-.2784-.557-.4176-1.241-.4176-2.053s.1375-1.508.4126-2.088c.2784-.58.6596-1.024 1.1435-1.332.4839-.312 1.0324-.468 1.6456-.468.4739 0 .8567.08 1.1484.239.2917.156.5187.338.6811.547.1657.209.2933.392.3828.552h.1094v-1.238h1.4567v7.805c0 .656-.1525 1.195-.4574 1.616s-.7176.732-1.2379.934c-.5171.203-1.1004.304-1.75.304zm-.015-4.37c.4276 0 .7889-.1 1.0838-.299.2983-.202.5237-.49.6762-.865.1558-.377.2336-.83.2336-1.357 0-.514-.0762-.966-.2286-1.357-.1525-.391-.3762-.696-.6712-.915-.295-.222-.6596-.333-1.0938-.333-.4474 0-.8203.116-1.1186.348-.2983.229-.5236.54-.6761.935-.1492.394-.2237.835-.2237 1.322 0 .501.0762.94.2287 1.318.1524.377.3778.672.6761.885.3016.212.6728.318 1.1136.318zm8.7451 1.501c-.7524 0-1.4004-.161-1.9439-.482-.5403-.325-.9579-.781-1.2529-1.367-.2916-.59-.4375-1.281-.4375-2.073 0-.783.1459-1.472.4375-2.069.295-.596.706-1.062 1.233-1.397.5303-.334 1.1501-.502 1.8594-.502.4308 0 .8484.071 1.2528.214s.7673.366 1.0888.671.575.701.7606 1.188c.1856.484.2784 1.073.2784 1.765v.527h-6.0703v-1.113h4.6137c0-.391-.0796-.738-.2387-1.039-.1591-.305-.3828-.546-.6711-.721-.2851-.176-.6198-.264-1.0043-.264-.4176 0-.7822.103-1.0937.308-.3083.203-.5469.468-.716.796-.1657.325-.2485.678-.2485 1.059v.87c0 .51.0895.944.2684 1.302.1823.358.4359.632.7607.821.3248.185.7043.278 1.1385.278.2817 0 .5386-.04.7706-.119.232-.083.4325-.206.6015-.368.1691-.162.2983-.363.3878-.602l1.407.254c-.1127.414-.3149.777-.6065 1.089-.2884.308-.6513.548-1.0888.721-.4342.169-.9297.253-1.4865.253zm6.86-1.546-.0751.542c-.0497.398-.1342.812-.2535 1.243-.116.434-.237.837-.3629 1.208-.1227.371-.2238.666-.3033.885h-1.054c.0431-.206.1028-.484.179-.835.0762-.348.1508-.738.2237-1.169s.1276-.87.1641-1.317l.0497-.557zm-55.3057 19.546c-.7391 0-1.3755-.167-1.9091-.502-.5303-.338-.938-.804-1.223-1.397s-.4276-1.273-.4276-2.038c0-.776.1459-1.46.4375-2.054.2917-.596.7027-1.062 1.233-1.397.5303-.334 1.1551-.502 1.8743-.502.58 0 1.097.108 1.5511.323.4541.212.8203.511 1.0987.895.2818.385.4491.834.5022 1.348h-1.4468c-.0795-.358-.2618-.667-.5468-.925-.2818-.259-.6596-.388-1.1336-.388-.4143 0-.7772.109-1.0887.328-.3083.216-.5486.524-.7209.925-.1724.398-.2585.868-.2585 1.412 0 .557.0845 1.037.2535 1.442.169.404.4077.717.7159.939.3116.222.6778.333 1.0987.333.2818 0 .537-.051.7657-.154.232-.106.4259-.257.5816-.452.1591-.196.2702-.431.3331-.706h1.4468c-.0531.494-.2138.934-.4823 1.322-.2684.388-.628.693-1.0788.915-.4474.222-.9728.333-1.576.333zm6.949.015c-.4839 0-.9214-.089-1.3125-.268-.3911-.183-.701-.446-.9296-.791-.2254-.345-.3381-.767-.3381-1.268 0-.431.0828-.785.2486-1.064.1657-.278.3894-.498.6711-.661.2818-.162.5966-.285.9446-.368s.7027-.146 1.064-.189c.4573-.053.8286-.096 1.1136-.129.285-.036.4922-.094.6214-.174.1293-.079.1939-.209.1939-.388v-.034c0-.435-.1226-.771-.3679-1.01-.2419-.238-.6032-.358-1.0838-.358-.5004 0-.8949.111-1.1832.333-.2851.219-.4823.463-.5916.731l-1.397-.318c.1657-.464.4076-.838.7258-1.124.3215-.288.6911-.497 1.1087-.626.4176-.133.8567-.199 1.3174-.199.305 0 .6281.037.9695.11.3447.069.6662.198.9645.387.3016.189.5485.459.7408.811.1922.348.2883.8.2883 1.357v5.071h-1.4517v-1.044h-.0597c-.0961.192-.2403.381-.4325.567-.1922.185-.4391.339-.7408.462-.3016.123-.6628.184-1.0838.184zm.3232-1.193c.411 0 .7623-.081 1.054-.244.295-.162.5187-.374.6711-.636.1558-.265.2337-.549.2337-.85v-.985c-.053.053-.1558.103-.3082.15-.1492.043-.3199.081-.5121.114-.1922.03-.3795.058-.5618.084-.1823.024-.3348.043-.4574.06-.2883.036-.5518.098-.7905.184-.2353.086-.4242.21-.5667.373-.1392.159-.2088.371-.2088.636 0 .368.1359.647.4076.835.2718.186.6182.279 1.0391.279zm6.9117-9.158v10.182h-1.4865v-10.182zm3.4864 0v10.182h-1.4865v-10.182zm5.4153 10.182h-3.2962v-10.182h3.4006c.9976 0 1.8544.204 2.5703.612.7159.404 1.2644.986 1.6456 1.745.3845.755.5767 1.662.5767 2.719 0 1.061-.1939 1.972-.5817 2.735-.3844.762-.9413 1.349-1.6704 1.759-.7292.408-1.6108.612-2.6449.612zm-1.76-1.342h1.6755c.7755 0 1.4202-.146 1.9339-.438.5137-.295.8982-.721 1.1534-1.278.2552-.56.3828-1.242.3828-2.048 0-.799-.1276-1.476-.3828-2.033-.2519-.557-.6281-.98-1.1285-1.268-.5005-.288-1.122-.432-1.8644-.432h-1.7699zm10.6703 1.511c-.4839 0-.9214-.089-1.3125-.268-.3911-.183-.701-.446-.9297-.791-.2254-.345-.338-.767-.338-1.268 0-.431.0828-.785.2485-1.064.1658-.278.3895-.498.6712-.661.2817-.162.5966-.285.9446-.368s.7027-.146 1.0639-.189c.4574-.053.8286-.096 1.1137-.129.285-.036.4922-.094.6214-.174.1293-.079.1939-.209.1939-.388v-.034c0-.435-.1226-.771-.3679-1.01-.2419-.238-.6032-.358-1.0838-.358-.5005 0-.8949.111-1.1832.333-.2851.219-.4823.463-.5917.731l-1.397-.318c.1657-.464.4077-.838.7259-1.124.3215-.288.691-.497 1.1086-.626.4177-.133.8568-.199 1.3175-.199.3049 0 .6281.037.9695.11.3447.069.6662.198.9645.387.3016.189.5485.459.7407.811.1923.348.2884.8.2884 1.357v5.071h-1.4517v-1.044h-.0597c-.0961.192-.2403.381-.4325.567-.1922.185-.4392.339-.7408.462s-.6629.184-1.0838.184zm.3232-1.193c.411 0 .7623-.081 1.0539-.244.295-.162.5187-.374.6712-.636.1558-.265.2337-.549.2337-.85v-.985c-.0531.053-.1558.103-.3083.15-.1491.043-.3198.081-.512.114-.1923.03-.3795.058-.5618.084-.1823.024-.3348.043-.4574.06-.2884.036-.5519.098-.7905.184-.2353.086-.4242.21-.5668.373-.1392.159-.2088.371-.2088.636 0 .368.1359.647.4077.835.2718.186.6181.279 1.0391.279zm8.9898-6.612v1.193h-4.1711v-1.193zm-3.0525-1.83h1.4865v7.224c0 .288.0431.505.1293.651.0861.143.1972.24.3331.293.1392.05.29.075.4524.075.1193 0 .2237-.008.3132-.025.0895-.016.1591-.03.2088-.04l.2685 1.228c-.0862.033-.2089.067-.3679.1-.1591.036-.358.056-.5966.059-.3911.007-.7557-.063-1.0938-.208-.3381-.146-.6115-.372-.8203-.677-.2088-.304-.3132-.687-.3132-1.148zm6.9192 9.635c-.4839 0-.9214-.089-1.3125-.268-.3911-.183-.701-.446-.9297-.791-.2254-.345-.3381-.767-.3381-1.268 0-.431.0829-.785.2486-1.064.1657-.278.3895-.498.6712-.661.2817-.162.5966-.285.9446-.368s.7026-.146 1.0639-.189c.4574-.053.8286-.096 1.1137-.129.285-.036.4921-.094.6214-.174.1293-.079.1939-.209.1939-.388v-.034c0-.435-.1226-.771-.3679-1.01-.242-.238-.6032-.358-1.0838-.358-.5005 0-.8949.111-1.1833.333-.285.219-.4822.463-.5916.731l-1.397-.318c.1657-.464.4077-.838.7259-1.124.3215-.288.691-.497 1.1086-.626.4176-.133.8568-.199 1.3175-.199.3049 0 .6281.037.9695.11.3447.069.6662.198.9644.387.3017.189.5486.459.7408.811.1923.348.2884.8.2884 1.357v5.071h-1.4517v-1.044h-.0597c-.0961.192-.2403.381-.4325.567-.1923.185-.4392.339-.7408.462s-.6629.184-1.0838.184zm.3232-1.193c.4109 0 .7623-.081 1.0539-.244.295-.162.5187-.374.6712-.636.1558-.265.2337-.549.2337-.85v-.985c-.0531.053-.1558.103-.3083.15-.1491.043-.3198.081-.512.114-.1923.03-.3795.058-.5618.084-.1823.024-.3348.043-.4574.06-.2884.036-.5519.098-.7905.184-.2353.086-.4243.21-.5668.373-.1392.159-.2088.371-.2088.636 0 .368.1359.647.4077.835.2718.186.6181.279 1.0391.279zm7.3592-.368-.0746.542c-.0497.398-.1343.812-.2536 1.243-.116.434-.2369.837-.3629 1.208-.1226.371-.2237.666-.3033.885h-1.0539c.043-.206.1027-.484.1789-.835.0763-.348.1508-.738.2238-1.169.0729-.431.1276-.87.164-1.317l.0497-.557zm-71.7413 15.166c0 1.25-.1641 2.398-.4922 3.445-.3282 1.048-.8071 2.014-1.4368 2.899h-1.3622c.2452-.328.4739-.731.686-1.208.2122-.477.3978-.999.5569-1.566.1591-.57.2833-1.16.3728-1.77s.1343-1.21.1343-1.8c0-.785-.0779-1.582-.2337-2.391s-.3662-1.56-.6314-2.252c-.2651-.693-.5601-1.258-.8849-1.696h1.3622c.6297.885 1.1086 1.851 1.4368 2.899.3281 1.047.4922 2.194.4922 3.44zm8.0713 2.834-.0745.542c-.0498.398-.1343.812-.2536 1.243-.116.434-.237.837-.3629 1.208-.1227.371-.2237.666-.3033.885h-1.054c.0431-.206.1028-.484.179-.835.0762-.348.1508-.738.2237-1.169.073-.431.1276-.87.1641-1.317l.0497-.557zm-.7755-4.072c-.2718 0-.5055-.098-.701-.293-.1956-.196-.2934-.429-.2934-.701s.0978-.504.2934-.696c.1955-.196.4292-.293.701-.293.2717 0 .5054.097.701.293.1955.192.2933.424.2933.696 0 .182-.0464.35-.1392.502-.0895.149-.2088.268-.358.358-.1491.089-.3148.134-.4971.134z" fill="#fff"/><path d="m82.2097 48.3636 1.6854 2.973 1.7002-2.973h1.6258l-2.3814 3.8182 2.4012 3.8182h-1.6257l-1.7201-2.8537-1.7152 2.8537h-1.6307l2.3764-3.8182-2.3466-3.8182zm9.4535 7.7905c-.7391 0-1.3755-.1674-1.9091-.5021-.5303-.3381-.938-.8038-1.223-1.397-.2851-.5933-.4276-1.2728-.4276-2.0384 0-.7755.1458-1.46.4375-2.0532.2917-.5966.7027-1.0623 1.233-1.3971.5303-.3347 1.155-.5021 1.8743-.5021.58 0 1.097.1077 1.5511.3232.4541.2121.8203.5104 1.0987.8948.2817.3845.4491.8336.5021 1.3473h-1.4467c-.0795-.3579-.2618-.6661-.5469-.9247-.2817-.2585-.6595-.3878-1.1335-.3878-.4143 0-.7772.1094-1.0888.3282-.3082.2154-.5485.5236-.7208.9247-.1724.3977-.2586.8684-.2586 1.4119 0 .5568.0846 1.0374.2536 1.4418.169.4043.4077.7175.7159.9396.3115.2221.6778.3331 1.0987.3331.2817 0 .5369-.0514.7656-.1541.2321-.1061.4259-.2569.5817-.4524.1591-.1956.2701-.4309.3331-.706h1.4467c-.053.4939-.2137.9347-.4822 1.3224-.2685.3878-.6281.6928-1.0788.9148-.4475.2221-.9728.3331-1.576.3331zm6.949.0149c-.4839 0-.9214-.0895-1.3125-.2684-.3911-.1823-.701-.4458-.9297-.7905-.2254-.3447-.338-.7673-.338-1.2678 0-.4308.0828-.7855.2485-1.0639.1658-.2784.3895-.4988.6712-.6612s.5966-.2851.9446-.3679c.348-.0829.7027-.1458 1.0639-.1889.4574-.0531.8286-.0961 1.1138-.1293.285-.0365.492-.0945.621-.174.13-.0795.194-.2088.194-.3878v-.0348c0-.4342-.122-.7706-.368-1.0092-.242-.2387-.6029-.358-1.0835-.358-.5005 0-.8949.1111-1.1832.3331-.2851.2188-.4823.4624-.5917.7308l-1.397-.3181c.1657-.464.4077-.8386.7259-1.1236.3215-.2884.691-.4972 1.1086-.6264.4177-.1326.8568-.1989 1.3175-.1989.3049 0 .6284.0365.9694.1094.345.0696.666.1988.965.3878.301.1889.548.459.74.8103.193.348.289.8005.289 1.3573v5.071h-1.452v-1.044h-.06c-.096.1922-.24.3811-.432.5667s-.4394.3398-.741.4624-.6629.1839-1.0838.1839zm.3232-1.1931c.411 0 .7623-.0813 1.0539-.2437.2947-.1624.5187-.3745.6717-.6363.155-.2652.233-.5486.233-.8502v-.9843c-.053.053-.156.1027-.308.1491-.149.0431-.32.0812-.512.1144-.1924.0298-.3796.058-.5619.0845-.1823.0232-.3348.0431-.4574.0596-.2884.0365-.5519.0978-.7905.184-.2353.0862-.4242.2104-.5668.3729-.1392.159-.2088.3712-.2088.6363 0 .3679.1359.6463.4077.8352.2718.1856.6181.2785 1.0391.2785zm6.9116-9.1577v10.1818h-1.486v-10.1818zm3.486 0v10.1818h-1.486v-10.1818z" fill="#ffbd2e"/><path d="m126.862 48.3636-2.769 7.6364h-1.591l-2.774-7.6364h1.596l1.934 5.8765h.079l1.929-5.8765zm3.401 7.8054c-.484 0-.922-.0895-1.313-.2684-.391-.1823-.701-.4458-.93-.7905-.225-.3447-.338-.7673-.338-1.2678 0-.4308.083-.7855.249-1.0639s.389-.4988.671-.6612.597-.2851.945-.3679c.348-.0829.702-.1458 1.064-.1889.457-.0531.828-.0961 1.113-.1293.285-.0365.492-.0945.622-.174.129-.0795.194-.2088.194-.3878v-.0348c0-.4342-.123-.7706-.368-1.0092-.242-.2387-.604-.358-1.084-.358-.501 0-.895.1111-1.183.3331-.285.2188-.483.4624-.592.7308l-1.397-.3181c.166-.464.408-.8386.726-1.1236.321-.2884.691-.4972 1.109-.6264.417-.1326.856-.1989 1.317-.1989.305 0 .628.0365.969.1094.345.0696.667.1988.965.3878.302.1889.548.459.741.8103.192.348.288.8005.288 1.3573v5.071h-1.452v-1.044h-.059c-.096.1922-.241.3811-.433.5667s-.439.3398-.741.4624c-.301.1226-.662.1839-1.083.1839zm.323-1.1931c.411 0 .762-.0813 1.054-.2437.295-.1624.518-.3745.671-.6363.156-.2652.234-.5486.234-.8502v-.9843c-.053.053-.156.1027-.309.1491-.149.0431-.32.0812-.512.1144-.192.0298-.379.058-.562.0845-.182.0232-.334.0431-.457.0596-.288.0365-.552.0978-.79.184-.236.0862-.425.2104-.567.3729-.139.159-.209.3712-.209.6363 0 .3679.136.6463.408.8352.271.1856.618.2785 1.039.2785zm6.912-9.1577v10.1818h-1.487v-10.1818zm6.837 7.0149v-4.4695h1.491v7.6364h-1.461v-1.3224h-.08c-.176.4076-.457.7474-.845 1.0191-.385.2685-.864.4027-1.437.4027-.491 0-.925-.1077-1.303-.3231-.374-.2188-.669-.5419-.884-.9695-.213-.4275-.319-.9562-.319-1.5859v-4.8573h1.487v4.6783c0 .5204.144.9347.432 1.2429.289.3082.663.4624 1.124.4624.278 0 .555-.0696.83-.2088.279-.1393.509-.3497.691-.6314.186-.2818.277-.6397.274-1.0739zm6.78 3.321c-.753 0-1.401-.1607-1.944-.4822-.54-.3248-.958-.7806-1.253-1.3672-.292-.59-.438-1.281-.438-2.0732 0-.7822.146-1.4716.438-2.0681.295-.5966.706-1.0623 1.233-1.3971.53-.3347 1.15-.5021 1.859-.5021.431 0 .849.0713 1.253.2138s.767.3662 1.089.6711c.321.305.575.701.761 1.1883.185.4839.278 1.0722.278 1.7649v.527h-6.07v-1.1137h4.613c0-.3911-.079-.7374-.238-1.039-.159-.305-.383-.5453-.671-.7209-.286-.1757-.62-.2635-1.005-.2635-.417 0-.782.1027-1.094.3082-.308.2022-.546.4674-.715.7955-.166.3248-.249.6778-.249 1.0589v.8701c0 .5104.089.9446.268 1.3025.183.358.436.6314.761.8203.325.1856.704.2784 1.139.2784.281 0 .538-.0397.77-.1193.232-.0828.433-.2055.602-.3679s.298-.3629.388-.6015l1.407.2535c-.113.4143-.315.7772-.607 1.0888-.288.3082-.651.5485-1.089.7209-.434.169-.929.2535-1.486.2535z" fill="#a6cafa"/><circle cx="16.688" cy="16.7818" fill="#ff5f56" r="5.59427"/><circle cx="33.4707" cy="16.7818" fill="#ffbd2e" r="5.59427"/><circle cx="50.2537" cy="16.7818" fill="#27c93f" r="5.59427"/></svg>