<svg width="198" height="54" viewBox="0 0 198 54" fill="none" xmlns="http://www.w3.org/2000/svg">
<path d="M165.844 27.1442C164.927 26.5466 163.927 26.1139 162.979 25.5781C162.361 25.2381 161.702 24.929 161.166 24.486C160.259 23.7442 160.445 22.2708 161.393 21.6321C162.763 20.7254 165.019 21.2302 165.267 23.0848C165.267 23.126 165.308 23.1569 165.349 23.1569H167.41C167.461 23.1569 167.502 23.1157 167.482 23.0539C167.464 22.4705 167.32 21.898 167.06 21.3752C166.801 20.8525 166.431 20.3919 165.978 20.0248C165.139 19.3781 164.11 19.0267 163.052 19.0254C157.612 19.0254 157.107 24.7848 160.043 26.5981C160.383 26.8042 163.258 28.2466 164.267 28.8751C165.298 29.5036 165.607 30.6575 165.174 31.5539C164.762 32.3884 163.732 32.9654 162.681 32.8933C161.547 32.8314 160.661 32.2133 160.352 31.2551C160.301 31.0799 160.27 30.7399 160.27 30.606C160.267 30.5849 160.258 30.5652 160.243 30.5502C160.228 30.5352 160.208 30.5258 160.187 30.5236H157.952C157.921 30.5236 157.879 30.5648 157.879 30.606C157.879 32.2133 158.281 33.1096 159.373 33.9236C160.404 34.6963 161.537 35.026 162.691 35.026C165.751 35.026 167.327 33.2951 167.636 31.5127C167.925 29.7611 167.41 28.1848 165.844 27.1442ZM68.7891 19.3242H66.7079C66.6925 19.3261 66.6779 19.3318 66.6653 19.3408C66.6527 19.3498 66.6426 19.3618 66.6358 19.3757L64.8018 25.4133C64.8018 25.4351 64.7932 25.4561 64.7777 25.4716C64.7622 25.487 64.7413 25.4957 64.7194 25.4957C64.6976 25.4957 64.6766 25.487 64.6611 25.4716C64.6457 25.4561 64.637 25.4351 64.637 25.4133L62.8031 19.3757C62.7928 19.3345 62.7618 19.3242 62.7206 19.3242H59.3103C59.2691 19.3242 59.2279 19.3654 59.2279 19.3963V34.8096C59.2279 34.8508 59.2691 34.8921 59.3103 34.8921H61.5461C61.5873 34.8921 61.6285 34.8508 61.6285 34.8096V23.0848C61.6285 22.9921 61.7625 22.9818 61.7831 23.0642L63.6376 29.143L63.7715 29.5551C63.7715 29.6066 63.8025 29.6169 63.8437 29.6169H65.5643C65.6055 29.6169 65.6261 29.586 65.6364 29.5654L65.7703 29.1327L67.6249 23.0539C67.6455 22.9715 67.7794 22.9921 67.7794 23.0848V34.7993C67.7794 34.8405 67.8206 34.8818 67.8618 34.8818H70.0976C70.1388 34.8818 70.18 34.8405 70.18 34.7993V19.3963C70.18 19.3654 70.1388 19.3242 70.0976 19.3242H68.7891ZM131.617 19.3242C131.6 19.3243 131.583 19.3292 131.568 19.3383C131.554 19.3474 131.542 19.3603 131.535 19.3757L129.701 25.4133C129.701 25.4351 129.692 25.4561 129.676 25.4716C129.661 25.487 129.64 25.4957 129.618 25.4957C129.596 25.4957 129.575 25.487 129.56 25.4716C129.544 25.4561 129.536 25.4351 129.536 25.4133L127.702 19.3757C127.702 19.3345 127.671 19.3242 127.63 19.3242H124.23C124.189 19.3242 124.147 19.3654 124.147 19.3963V34.8096C124.147 34.8508 124.189 34.8921 124.23 34.8921H126.465C126.496 34.8921 126.538 34.8508 126.538 34.8096V23.0848C126.538 22.9921 126.672 22.9818 126.702 23.0642L128.557 29.143L128.681 29.5551C128.701 29.6066 128.722 29.6169 128.763 29.6169H130.473C130.49 29.6158 130.507 29.6105 130.521 29.6015C130.535 29.5925 130.547 29.5801 130.556 29.5654L130.69 29.1327L132.544 23.0539C132.565 22.9715 132.699 22.9921 132.699 23.0848V34.7993C132.699 34.8405 132.74 34.8818 132.781 34.8818H135.017C135.058 34.8818 135.099 34.8405 135.099 34.7993V19.3963C135.099 19.3654 135.058 19.3242 135.017 19.3242H131.617ZM102.779 19.3242H92.2182C92.1873 19.3242 92.1461 19.3654 92.1461 19.3963V21.3333C92.1461 21.3745 92.1873 21.4157 92.2182 21.4157H96.3085V34.8096C96.3085 34.8611 96.3497 34.9024 96.3806 34.9024H98.6164C98.6576 34.9024 98.6988 34.8611 98.6988 34.8199V21.4054H102.779C102.82 21.4054 102.861 21.3642 102.861 21.323V19.3963C102.861 19.3654 102.841 19.3242 102.779 19.3242ZM115.967 34.8921H118.007C118.058 34.8921 118.099 34.8302 118.079 34.789L113.875 19.3242C113.875 19.283 113.844 19.2624 113.803 19.2624H110.867C110.85 19.2652 110.835 19.2725 110.822 19.2833C110.809 19.2942 110.8 19.3083 110.795 19.3242L106.591 34.7787C106.57 34.8302 106.612 34.8818 106.663 34.8818H108.703C108.744 34.8818 108.765 34.8611 108.785 34.8302L110.001 30.3381C110.012 30.2969 110.042 30.2866 110.084 30.2866H114.576C114.617 30.2866 114.648 30.3072 114.658 30.3381L115.874 34.8302C115.895 34.8611 115.936 34.8921 115.956 34.8921H115.967ZM110.63 28.0818L112.258 22.0545C112.258 22.0326 112.266 22.0117 112.282 21.9962C112.297 21.9807 112.318 21.9721 112.34 21.9721C112.362 21.9721 112.383 21.9807 112.398 21.9962C112.414 22.0117 112.422 22.0326 112.422 22.0545L114.05 28.0818C114.071 28.1333 114.03 28.1848 113.978 28.1848H110.712C110.65 28.1848 110.609 28.1333 110.63 28.0818ZM150.657 34.8921H152.697C152.749 34.8921 152.79 34.8302 152.779 34.789L148.576 19.3139C148.555 19.2727 148.535 19.2521 148.493 19.2521H145.578C145.559 19.2531 145.542 19.2595 145.527 19.2705C145.512 19.2815 145.501 19.2966 145.495 19.3139L141.292 34.7684C141.281 34.8199 141.322 34.8714 141.374 34.8714H143.404C143.445 34.8714 143.476 34.8508 143.486 34.8199L144.702 30.3278C144.722 30.2866 144.743 30.2763 144.784 30.2763H149.287C149.318 30.2763 149.349 30.2969 149.359 30.3278L150.585 34.8199C150.585 34.8508 150.626 34.8818 150.657 34.8818V34.8921ZM145.32 28.0818L146.958 22.0545C146.964 22.0387 146.975 22.0251 146.988 22.0155C147.002 22.0059 147.019 22.0007 147.035 22.0007C147.052 22.0007 147.069 22.0059 147.083 22.0155C147.096 22.0251 147.107 22.0387 147.113 22.0545L148.751 28.0818C148.751 28.1333 148.72 28.1848 148.669 28.1848H145.402C145.351 28.1848 145.299 28.1333 145.32 28.0818ZM79.257 32.6048V27.8242C79.257 27.783 79.2879 27.7418 79.3291 27.7418H85.2843C85.3255 27.7418 85.3667 27.7005 85.3667 27.6696V25.743C85.3645 25.7219 85.3551 25.7022 85.3401 25.6872C85.3251 25.6722 85.3054 25.6628 85.2843 25.6605H79.3394C79.2982 25.6605 79.2673 25.6193 79.2673 25.5781V21.4981C79.2673 21.4569 79.2982 21.4157 79.3394 21.4157H86.1188C86.16 21.4157 86.2012 21.3745 86.2012 21.3333V19.4169C86.199 19.3958 86.1896 19.3761 86.1746 19.3611C86.1596 19.3461 86.1399 19.3367 86.1188 19.3345H76.9491C76.928 19.3367 76.9083 19.3461 76.8933 19.3611C76.8783 19.3761 76.8689 19.3958 76.8667 19.4169V34.8096C76.8667 34.8508 76.9079 34.8921 76.9491 34.8921H86.397C86.4382 34.8921 86.4794 34.8508 86.4794 34.8096V32.7696C86.4772 32.7485 86.4678 32.7288 86.4528 32.7139C86.4378 32.6989 86.4181 32.6894 86.397 32.6872H79.3291C79.2879 32.6769 79.2673 32.646 79.2673 32.5945L79.257 32.6048ZM186.264 34.7581L178.537 26.7836C178.525 26.769 178.519 26.7508 178.519 26.7321C178.519 26.7133 178.525 26.6952 178.537 26.6805L185.492 19.4684C185.509 19.4602 185.523 19.4453 185.53 19.4269C185.537 19.4086 185.536 19.3883 185.528 19.3705C185.519 19.3528 185.504 19.339 185.486 19.3322C185.468 19.3255 185.447 19.3263 185.43 19.3345H182.586C182.555 19.3345 182.545 19.3448 182.535 19.3654L176.631 25.4751C176.62 25.4844 176.606 25.4905 176.592 25.4928C176.577 25.4952 176.563 25.4936 176.549 25.4884C176.535 25.4832 176.523 25.4744 176.514 25.463C176.505 25.4516 176.499 25.438 176.497 25.4236V19.4169C176.495 19.3958 176.485 19.3761 176.47 19.3611C176.455 19.3461 176.436 19.3367 176.415 19.3345H174.179C174.158 19.3367 174.138 19.3461 174.123 19.3611C174.108 19.3761 174.099 19.3958 174.096 19.4169V34.8199C174.096 34.8611 174.138 34.9024 174.179 34.9024H176.415C176.456 34.9024 176.497 34.8611 176.497 34.8199V28.0405C176.497 27.9684 176.59 27.9375 176.631 27.989L183.328 34.8714C183.339 34.8851 183.353 34.8957 183.369 34.9024H186.223C186.275 34.8921 186.326 34.7993 186.264 34.7581Z" fill="#999999"/>
<path d="M43.9588 11.0303L30.4206 21.0448L32.9448 15.1412L43.9588 11.0303Z" fill="#E8E8E8" stroke="#E8E8E8" stroke-width="0.257576" stroke-linecap="round" stroke-linejoin="round"/>
<path d="M12.7406 11.0303L26.1551 21.1272L23.7545 15.1515L12.7406 11.0303ZM39.0854 34.243L35.4794 39.7448L43.1964 41.8672L45.4012 34.3666L39.0854 34.243ZM11.3085 34.3666L13.503 41.8672L21.1994 39.7448L17.6139 34.243L11.3085 34.3666Z" fill="#EFEFEF" stroke="#EFEFEF" stroke-width="0.257576" stroke-linecap="round" stroke-linejoin="round"/>
<path d="M20.7873 24.9495L18.6442 28.1847L26.2685 28.535L26.0212 20.3235L20.7873 24.9599V24.9495ZM35.9121 24.9599L30.5957 20.2205L30.4206 28.535L38.0448 28.1847L35.9121 24.9599ZM21.1994 39.7447L25.8254 37.5192L21.8485 34.4283L21.1994 39.7447ZM30.8842 37.5089L35.4794 39.7447L34.8612 34.418L30.8842 37.5089Z" fill="#DDDDDD" stroke="#F1F1F1" stroke-width="0.257576" stroke-linecap="round" stroke-linejoin="round"/>
<path d="M35.4794 39.7447L30.8843 37.5193L31.2552 40.5072L31.2139 41.7744L35.4794 39.7447ZM21.1994 39.7447L25.4855 41.7744L25.4546 40.5072L25.8255 37.5193L21.1994 39.7447Z" fill="#F9F9F9" stroke="#F9F9F9" stroke-width="0.257576" stroke-linecap="round" stroke-linejoin="round"/>
<path d="M25.5576 32.44L21.7455 31.3272L24.4449 30.0909L25.5679 32.44H25.5576ZM31.1315 32.44L32.2649 30.0806L34.9746 31.3169L31.1315 32.4503V32.44Z" fill="#999999" stroke="#999999" stroke-width="0.257576" stroke-linecap="round" stroke-linejoin="round"/>
<path d="M21.1994 39.7446L21.8691 34.2428L17.614 34.3664L21.1994 39.7446ZM34.8303 34.2428L35.4794 39.7446L39.0855 34.3664L34.8303 34.2428ZM38.0552 28.1846L30.4309 28.5349L31.1315 32.45L32.2649 30.0803L34.9746 31.3167L38.0552 28.1846ZM21.7455 31.327L24.4449 30.0906L25.5679 32.4397L26.2788 28.5246L18.6546 28.1846L21.7455 31.327Z" fill="#F9F9F9" stroke="#999999" stroke-width="0.257576" stroke-linecap="round" stroke-linejoin="round"/>
<path d="M18.6545 28.1846L21.8485 34.4179L21.7455 31.327L18.6545 28.1846ZM34.9745 31.327L34.8509 34.4179L38.0448 28.1846L34.9745 31.327ZM26.2788 28.5349L25.5576 32.45L26.4642 37.0658L26.6703 30.9767L26.2788 28.5349ZM30.4206 28.5349L30.0497 30.9664L30.2351 37.0658L31.1315 32.4397L30.4206 28.5246V28.5349Z" fill="#999999" stroke="#999999" stroke-width="0.257576" stroke-linecap="round" stroke-linejoin="round"/>
<path d="M31.1315 32.4399L30.2352 37.0659L30.8843 37.5193L34.8509 34.4284L34.9746 31.3271L31.1315 32.4399ZM21.7455 31.3271L21.8485 34.4181L25.8255 37.509L26.4643 37.0659L25.5679 32.4399L21.7352 31.3271H21.7455Z" fill="#D3D3D3" stroke="#999999" stroke-width="0.257576" stroke-linecap="round" stroke-linejoin="round"/>
<path d="M31.2243 41.7746L31.2552 40.5073L30.9049 40.2188H25.7946L25.4546 40.5073L25.4855 41.7746L21.1994 39.7449L22.7036 40.9812L25.743 43.0727H30.9461L33.9958 40.9709L35.4794 39.7449L31.2139 41.7746H31.2243Z" fill="#5F5F5F" stroke="#999999" stroke-width="0.257576" stroke-linecap="round" stroke-linejoin="round"/>
<path d="M30.8842 37.5089L30.2351 37.0659H26.4642L25.8254 37.5192L25.4545 40.5071L25.7945 40.2186H30.9048L31.2551 40.5071L30.8842 37.5192V37.5089Z" fill="#5F5F5F" stroke="#999999" stroke-width="0.257576" stroke-linecap="round" stroke-linejoin="round"/>
<path d="M44.5357 21.6939L45.6691 16.1818L43.9588 11.0303L30.8739 20.7151L35.9121 24.9497L43.0212 27.0206L44.5872 25.1969L43.9072 24.7024L44.9891 23.7133L44.1648 23.0745L45.2466 22.2503L44.5254 21.6939H44.5357ZM11.0303 16.1715L12.1842 21.6939L11.4424 22.24L12.5448 23.0642L11.7206 23.7133L12.7921 24.7024L12.1121 25.1969L13.6782 27.0206L20.7872 24.96L25.8254 20.7048L12.7406 11.0303L11.0303 16.1715Z" fill="#5F5F5F" stroke="#999999" stroke-width="0.257576" stroke-linecap="round" stroke-linejoin="round"/>
<path d="M43.0212 27.0205L35.9121 24.9599L38.0551 28.1847L34.8612 34.4181L39.0854 34.3666H45.4012L43.0212 27.0205ZM20.7873 24.9496L13.6782 27.0205L11.3085 34.3666H17.6242L21.8485 34.4181L18.6545 28.1847L20.7976 24.9496H20.7873ZM30.4206 28.5351L30.8842 20.7048L32.9448 15.1411H23.7545L25.8151 20.7048L26.2788 28.5351L26.4539 30.9872V37.066H30.2351L30.2557 30.9872L30.4206 28.5351Z" fill="#999999" stroke="#999999" stroke-width="0.257576" stroke-linecap="round" stroke-linejoin="round"/>
</svg>
