<svg width="237" height="44" viewBox="0 0 237 44" fill="none" xmlns="http://www.w3.org/2000/svg">
<path d="M22.1074 43.9994C34.2573 43.9994 44.1068 34.1498 44.1068 21.9999C44.1068 9.85005 34.2573 0.000610352 22.1074 0.000610352C9.95757 0.000610352 0.108154 9.85005 0.108154 21.9999C0.108154 34.1498 9.95757 43.9994 22.1074 43.9994Z" fill="url(#paint0_linear_1815_2327)"/>
<path d="M22.1061 34.0947C28.785 34.0947 34.1994 28.6804 34.1994 22.0015C34.1994 15.3226 28.785 9.90833 22.1061 9.90833C15.4272 9.90833 10.0129 15.3226 10.0129 22.0015C10.0129 28.6804 15.4272 34.0947 22.1061 34.0947Z" fill="#101010"/>
<path d="M22.1058 43.9995C25.3293 44.0025 28.5136 43.2955 31.4329 41.9285C34.3521 40.5617 36.9342 38.5683 38.9958 36.0905L26.8597 23.9789C26.2337 23.351 25.4899 22.8528 24.671 22.5129C23.8522 22.1728 22.9742 21.9979 22.0875 21.9979C21.2007 21.9979 20.3229 22.1728 19.5038 22.5129C18.685 22.8528 17.9412 23.351 17.3152 23.9789L5.21582 36.0905C7.27745 38.5683 9.85964 40.5617 12.7788 41.9285C15.698 43.2955 18.8824 44.0025 22.1058 43.9995Z" fill="#999999"/>
<path d="M31.9384 29.033C30.8208 30.5984 29.3455 31.8746 27.6353 32.7549C25.9251 33.6353 24.0293 34.0947 22.1058 34.0947C20.1823 34.0947 18.2865 33.6353 16.5763 32.7549C14.8661 31.8746 13.3908 30.5984 12.2732 29.033L5.21582 36.0904C7.27928 38.5662 9.8618 40.5581 12.7806 41.925C15.6992 43.292 18.8829 44.0006 22.1058 44.0006C25.3288 44.0006 28.5124 43.292 31.4312 41.925C34.3499 40.5581 36.9324 38.5662 38.9958 36.0904L31.9384 29.033Z" fill="#999999"/>
<path d="M65.8315 33.5006V10.2499H80.6552V13.7463H69.9886V20.6265H79.7368V24.0102H69.9886V33.5006H65.8315ZM89.3244 33.8551C85.3607 33.8551 83.3305 31.4704 83.3305 27.2811V15.8893H87.3425V26.3626C87.3425 29.0857 88.3576 30.4714 90.7746 30.4714C93.3687 30.4714 94.7544 28.7957 94.7544 26.1532V15.8893H98.7665V33.5006H94.7544V30.8259H94.4805C93.6588 32.7111 91.8702 33.8551 89.3244 33.8551ZM104.342 12.9407C103.037 12.9407 101.957 11.8934 101.957 10.5721C101.957 9.26698 103.037 8.20353 104.342 8.20353C105.663 8.20353 106.743 9.26698 106.743 10.5721C106.743 11.8934 105.663 12.9407 104.342 12.9407ZM100.411 39.5107C100.088 39.5107 99.6693 39.4946 99.4438 39.4785V36.3203C99.6049 36.3365 99.7821 36.3365 99.9594 36.3365C101.667 36.3365 102.344 35.7564 102.344 34.129V15.8893H106.356V34.1773C106.356 37.7866 104.358 39.5107 100.411 39.5107ZM112.012 12.9407C110.691 12.9407 109.611 11.8934 109.611 10.5721C109.611 9.26698 110.691 8.20353 112.012 8.20353C113.317 8.20353 114.397 9.26698 114.397 10.5721C114.397 11.8934 113.317 12.9407 112.012 12.9407ZM109.998 33.5006V15.8893H114.01V33.5006H109.998Z" fill="#999999"/>
<path d="M120.617 33.5006V10.2499H135.441V13.7463H124.774V20.6265H134.522V24.0102H124.774V33.5006H120.617ZM140.34 12.9407C139.018 12.9407 137.939 11.8934 137.939 10.5721C137.939 9.26698 139.018 8.20353 140.34 8.20353C141.645 8.20353 142.724 9.26698 142.724 10.5721C142.724 11.8934 141.645 12.9407 140.34 12.9407ZM138.326 33.5006V15.8893H142.338V33.5006H138.326ZM145.915 33.5006V15.8893H149.927V18.5802H150.201C151.039 16.695 152.731 15.551 155.277 15.551C159.208 15.551 161.351 17.9195 161.351 22.1089V33.5006H157.339V23.0434C157.339 20.3042 156.227 18.9185 153.794 18.9185C151.41 18.9185 149.927 20.5943 149.927 23.2368V33.5006H145.915ZM169.537 33.7906C166.186 33.7906 163.753 31.7282 163.753 28.5218V28.4895C163.753 25.3475 166.153 23.5107 170.439 23.2529L174.967 22.979V21.4644C174.967 19.7081 173.823 18.7413 171.664 18.7413C169.827 18.7413 168.635 19.4019 168.232 20.562L168.216 20.6265H164.429L164.445 20.4815C164.832 17.5167 167.668 15.551 171.857 15.551C176.385 15.551 178.931 17.7423 178.931 21.4644V33.5006H174.967V31.0837H174.693C173.726 32.7916 171.857 33.7906 169.537 33.7906ZM167.716 28.3284C167.716 29.8269 168.989 30.7131 170.762 30.7131C173.179 30.7131 174.967 29.134 174.967 27.0394V25.6215L171.003 25.8793C168.764 26.0243 167.716 26.846 167.716 28.2962V28.3284ZM182.396 33.5006V15.8893H186.408V18.5802H186.682C187.519 16.695 189.211 15.551 191.757 15.551C195.689 15.551 197.832 17.9195 197.832 22.1089V33.5006H193.82V23.0434C193.82 20.3042 192.708 18.9185 190.275 18.9185C187.89 18.9185 186.408 20.5943 186.408 23.2368V33.5006H182.396ZM208.773 33.8551C203.472 33.8551 200.346 30.4231 200.346 24.6708V24.6386C200.346 18.9508 203.456 15.551 208.757 15.551C213.284 15.551 215.991 18.0646 216.442 21.706V21.7705H212.656L212.64 21.7222C212.269 20.0142 210.964 18.7896 208.773 18.7896C206.034 18.7896 204.422 20.9487 204.422 24.6386V24.6708C204.422 28.409 206.05 30.6003 208.773 30.6003C210.851 30.6003 212.124 29.6497 212.624 27.7967L212.656 27.7322L216.442 27.7161L216.41 27.845C215.83 31.4543 213.236 33.8551 208.773 33.8551ZM226.449 33.8551C221.212 33.8551 218.038 30.3425 218.038 24.7353V24.7191C218.038 19.1763 221.245 15.551 226.256 15.551C231.267 15.551 234.36 19.0636 234.36 24.3808V25.702H222.05C222.099 28.8601 223.806 30.697 226.53 30.697C228.705 30.697 229.945 29.6013 230.332 28.7957L230.381 28.6829H234.199L234.151 28.8279C233.587 31.0998 231.234 33.8551 226.449 33.8551ZM226.304 18.693C224.064 18.693 222.389 20.2076 222.082 23.0112H230.445C230.171 20.127 228.544 18.693 226.304 18.693Z" fill="#999999"/>
<defs>
<linearGradient id="paint0_linear_1815_2327" x1="22.0711" y1="44.0007" x2="22.0711" y2="0.000610352" gradientUnits="userSpaceOnUse">
<stop stop-color="#101010"/>
<stop offset="0.838542" stop-color="#979797"/>
<stop offset="1" stop-color="#6B6B6B"/>
</linearGradient>
</defs>
</svg>
